/* XPM */
static char *_e5f5684e1c44df2e259958210a1139bpAWF9iXXmBdfYfgw[] = {
/* columns rows colors chars-per-pixel */
"40 40 162 2 ",
"   c #000000",
".  c #021501",
"X  c #001D00",
"o  c #000013",
"O  c #00001C",
"+  c #121E14",
"@  c #012700",
"#  c #373833",
"$  c #100058",
"%  c #2C0062",
"&  c #350076",
"*  c #3E157A",
"=  c #3F207E",
"-  c #3C2377",
";  c #5C006A",
":  c #5B0165",
">  c #4E1379",
",  c #501E7D",
"<  c #660073",
"1  c #6B0178",
"2  c #43257F",
"3  c #255741",
"4  c #255B42",
"5  c #2E6A4B",
"6  c #2C674B",
"7  c #31654F",
"8  c #474840",
"9  c #544951",
"0  c #585B50",
"q  c #58585A",
"w  c #675E63",
"e  c #5A7B79",
"r  c #676769",
"t  c #6C6B6E",
"y  c #666165",
"u  c #706B6F",
"i  c #6E6F72",
"p  c #726C70",
"a  c #7A7A7D",
"s  c #727977",
"d  c #4F8E73",
"f  c #5D8571",
"g  c #5F8A76",
"h  c #4D9B7A",
"j  c #4F9273",
"k  c #529374",
"l  c #509B76",
"z  c #549779",
"x  c #599C7D",
"c  c #55A27D",
"v  c #59A57F",
"b  c #0100A2",
"n  c #1800AB",
"m  c #531B80",
"M  c #4C0E9F",
"N  c #543D8D",
"B  c #532B9F",
"V  c #4501AE",
"C  c #530AAF",
"Z  c #4D17A1",
"A  c #4C00B4",
"S  c #5000B9",
"D  c #5B00B5",
"F  c #7C19A1",
"G  c #6700B3",
"H  c #6A00B3",
"J  c #681BB4",
"K  c #5728A7",
"L  c #5727B1",
"P  c #7D20A2",
"I  c #652EB5",
"U  c #633AB8",
"Y  c #7F3EBC",
"T  c #76468A",
"R  c #685896",
"E  c #7D7D82",
"W  c #6853A2",
"Q  c #715DA5",
"!  c #6543BE",
"~  c #6A4BBA",
"^  c #7E40BB",
"/  c #7153BC",
"(  c #785EBD",
")  c #6E48C2",
"_  c #735FC0",
"`  c #7564C0",
"'  c #7E71C3",
"]  c #871C9B",
"[  c #862994",
"{  c #882895",
"}  c #8B1DA0",
"|  c #803EBA",
" . c #9F39B8",
".. c #9C38B6",
"X. c #A334BC",
"o. c #A13BB8",
"O. c #924FBA",
"+. c #9252BE",
"@. c #AA40BD",
"#. c #8548C1",
"$. c #846DC2",
"%. c #876BCC",
"&. c #7F8581",
"*. c #7F9F90",
"=. c #5AA682",
"-. c #5BA984",
";. c #55A580",
":. c #66B792",
">. c #66BA94",
",. c #69BA96",
"<. c #6BBC99",
"1. c #66BA98",
"2. c #6CC69D",
"3. c #6EC99E",
"4. c #70C89E",
"5. c #6ECBA1",
"6. c #71CDA2",
"7. c #6FD0A3",
"8. c #73D0A4",
"9. c #77D6AA",
"0. c #77D8AC",
"q. c #78D7AB",
"w. c #848582",
"e. c #878789",
"r. c #8B8C8D",
"t. c #8F9093",
"y. c #939493",
"u. c #999B9B",
"i. c #A09E9F",
"p. c #8982A4",
"a. c #908AA6",
"s. c #9D9FA1",
"d. c #9FA0A2",
"f. c #A2A3A4",
"g. c #A6A7A9",
"h. c #A5A9A9",
"j. c #ABABAE",
"k. c #A8A6AB",
"l. c #ADAEB0",
"z. c #BCBEBD",
"x. c #9B8BCA",
"c. c #A497CF",
"v. c #A79BCD",
"b. c #A99ED1",
"n. c #ACA2D4",
"m. c #B2A6D4",
"M. c #BDB6DB",
"N. c #C0BADE",
"B. c #C2BCE0",
"V. c #C4C4C4",
"C. c #CACACC",
"Z. c #DCDEDD",
"A. c #D1D2D6",
"S. c #CDC9E0",
"D. c #D3CFE5",
"F. c #DDDAEB",
"G. c #D6D2E9",
"H. c #E1DEEF",
"J. c #EBEBEB",
"K. c #EAE9F1",
"L. c #FEFEFE",
"P. c #F1F1F1",
/* pixels */
"3.3.3.3.3.3.3.3.3.3.3.3.3.3.3.3.3.3.3.3.3.3.3.3.3.3.3.3.3.3.3.3.3.3.3.3.3.3.3.3.",
"3.3.3.3.3.3.3.3.3.3.3.3.3.3.3.3.3.3.3.3.3.3.3.3.3.3.3.3.3.3.3.3.3.3.3.3.3.3.3.3.",
"3.3.3.3.3.3.3.3.3.3.3.3.3.3.3.3.3.3.3.3.3.3.3.3.3.3.3.3.3.3.3.3.3.3.3.3.3.3.3.3.",
"3.3.3.3.3.3.3.3.3.3.3.3.3.3.3.3.3.3.3.3.3.3.3.3.3.3.3.3.3.3.3.3.3.3.3.3.3.3.3.3.",
"3.3.3.3.3.3.3.3.3.3.3.3.3.3.5.4.3.3.3.3.3.3.3.3.3.3.3.3.3.3.3.3.3.3.3.3.3.3.3.3.",
"3.3.3.3.3.3.3.3.3.3.3.3.3.3.3.3.3.3.3.3.3.3.3.3.3.3.3.3.3.3.5.3.3.3.3.3.3.3.3.3.",
"3.3.3.3.3.3.3.3.3.3.3.3.3.3.3.3.3.2.4.3.3.5.3.2.3.3.3.3.3.3.2.4.3.3.3.3.3.3.3.3.",
"3.3.3.3.3.3.3.3.3.3.3.3.3.3.3.3.2.5.2.5.2.2.2.5.3.3.3.3.3.3.3.3.3.3.3.3.3.3.3.3.",
"3.3.3.3.3.3.3.3.3.3.3.3.2.4.2.3.5.6.6.5.6.5.5.2.3.5.3.3.3.3.3.4.3.3.3.3.3.3.3.3.",
"3.3.3.3.3.3.3.3.3.5.3.3.5.2.2.2.2.1.1.1.1.>.>.2.2.2.3.3.5.2.3.3.3.3.3.3.3.3.3.3.",
"3.3.3.3.3.3.3.3.3.3.3.5.5.5.6.0.-.  X X X @   c 9.8.6.3.3.3.3.3.3.3.3.3.3.3.3.3.",
"3.3.3.3.3.3.3.3.3.4.4.2.6.-.z ;.e < > * * > < e c z -.3.3.3.3.3.3.3.3.3.3.3.3.3.",
"3.3.3.3.3.3.3.3.3.3.3.3.8.6     ; @.O.U ) Y @.<     4 8.5.5.3.3.3.3.3.3.3.3.3.3.",
"3.3.3.3.3.4.3.3.3.3.8.-.5 T { { F H L U U I G F [ ] T 5 =.5.2.3.3.3.3.3.3.3.3.3.",
"3.3.3.3.3.3.3.3.3.2.6.z   ] X.o.O.` / ~ ~ ~ ` +. .X.}   d 8.2.3.3.3.3.3.3.3.3.3.",
"3.3.3.3.3.3.3.3.2.3.9.c   { o.b v.L.c.n n x.L.m.b ..{   l 9.2.3.3.3.3.3.3.3.3.3.",
"3.3.3.3.3.3.3.2.5.2.-.e : } O.b.B.F.M.n.b.M.F.B.b.+.F ; e -.2.5.2.3.3.3.3.3.3.3.",
"3.5.3.3.3.3.3.2.5.>.  < X.J _ L.F.b H.L.L.K.b D.L.' G @.1   :.6.2.3.3.3.3.3.3.3.",
"3.3.3.3.3.3.3.3.6.1.X , Y J ( L.F.S p.u.u.a.A G.L.$.D #.m . :.6.3.3.3.3.3.3.3.3.",
"3.3.3.3.3.3.3.2.6.<.  - ~ L / L.D.A %     $ V S.L.$.C ~ *   :.6.2.3.3.3.3.3.3.5.",
"3.3.3.3.3.3.3.3.5.>.+     K ~ %.Q   A.L.k.E O W %.) K O o . >.8.3.3.3.3.3.3.3.3.",
"3.3.3.3.3.3.3.3.6.>.  q y.R B Z 2   V.P.j.w.  & Z B N 0 #   >.6.2.3.3.3.3.3.3.3.",
"3.3.3.3.3.3.3.2.3.2.  l.L.w.        a s.g.e.        8 l.p   :.6.2.3.3.3.3.3.3.3.",
"3.3.3.3.3.3.3.3.3.2.h y.g.V.C.C.V.C.y.q r t a E a E s y f c <.6.3.3.3.3.3.3.3.3.",
"3.3.3.3.3.3.3.3.3.2.9.h   Z.L.L.L.L.d.    q h.f.d.h.t.  h q.2.3.3.3.3.3.3.3.3.3.",
"3.3.3.3.3.3.3.3.3.2.5.c   y.z.L.L.L.L.J.f.y.u.s.s.g.r.  j 6.2.3.3.3.3.3.3.3.3.3.",
"3.3.3.3.3.3.3.3.3.3.4.-.3 s u.Z.J.J.P.P.k.u.s.y.e.y.&.3 v 5.2.3.3.3.3.3.3.3.3.3.",
"3.3.3.3.3.3.3.3.3.3.3.3.8.7     9 d.u.u.f.f.h.y     3 5.3.3.3.3.3.3.3.3.3.3.3.3.",
"3.3.3.3.3.3.3.3.3.3.4.2.3.v j l g t i i i i t f l j -.3.3.3.3.3.3.3.3.3.3.3.3.3.",
"3.3.3.3.3.3.3.3.3.3.3.3.3.8.4.q.v             x 9.5.6.3.3.3.3.3.3.3.3.3.3.3.3.3.",
"3.3.3.3.3.3.3.3.3.3.3.3.3.4.2.3.2.>.>.>.,.>.:.2.3.2.3.3.3.5.3.3.3.3.3.3.3.3.3.3.",
"3.3.3.3.3.3.3.3.3.3.3.4.3.3.3.2.3.6.4.6.5.6.5.3.3.3.3.3.3.3.3.3.3.3.3.3.3.3.3.3.",
"3.3.3.3.3.3.3.3.3.3.3.3.3.3.3.3.3.3.3.3.3.2.3.3.3.3.3.3.3.3.3.3.3.3.3.3.3.3.3.3.",
"3.3.3.3.3.3.3.3.3.3.3.3.3.3.3.3.3.3.3.3.3.3.3.3.3.3.3.3.3.3.3.3.3.3.3.3.3.3.3.3.",
"3.3.3.3.3.3.3.3.3.3.3.3.3.3.3.3.3.3.3.3.3.3.3.3.3.3.3.3.3.3.3.3.3.3.3.3.3.3.3.3.",
"3.3.3.3.3.3.3.3.3.3.3.3.5.3.3.3.3.3.3.3.3.3.3.3.3.3.3.3.3.3.3.3.3.3.3.3.3.3.3.3.",
"3.3.3.3.3.3.3.3.3.3.3.3.3.3.3.3.3.3.3.3.3.3.3.3.3.3.3.3.3.3.3.3.3.3.3.3.3.3.3.3.",
"3.3.3.3.3.3.3.3.3.3.3.3.3.3.3.3.3.3.3.3.3.3.3.3.3.3.3.3.3.3.3.3.3.3.3.3.3.3.3.3.",
"3.3.3.3.3.3.3.3.3.3.3.3.3.3.3.3.3.3.3.3.3.3.3.3.3.3.3.3.3.3.3.3.3.3.3.3.3.3.3.3.",
"3.3.3.3.3.3.3.3.3.3.3.3.3.3.3.3.3.3.3.3.3.3.3.3.3.3.3.3.3.3.3.3.3.3.3.3.3.3.3.3."
};
