/* XPM */
static char *result[] = {
/* columns rows colors chars-per-pixel */
"53 53 248 2 ",
"   c black",
".  c #090401",
"X  c #0E0A03",
"o  c #180C03",
"O  c #1E1306",
"+  c #251406",
"@  c #2D1504",
"#  c #2C1B08",
"$  c #3A1A06",
"%  c #2F240B",
"&  c #3D270C",
"*  c #3F3010",
"=  c #4A250A",
"-  c #5A2808",
";  c #553710",
":  c #682B08",
">  c #66320B",
",  c #73360C",
"<  c #5D4919",
"1  c #694917",
"2  c #734818",
"3  c #6F5E22",
"4  c #7F6422",
"5  c #852603",
"6  c #852B04",
"7  c #8A2D04",
"8  c #972C04",
"9  c #8C3105",
"0  c #88380A",
"q  c #8D3C0A",
"w  c #923606",
"e  c #9C3404",
"r  c #943906",
"t  c #9B3C06",
"y  c #94340A",
"u  c #953C08",
"i  c #9A3D09",
"p  c #A22F04",
"a  c #A43404",
"s  c #AB3504",
"d  c #A33C06",
"f  c #AB3B05",
"g  c #A73E08",
"h  c #B43505",
"j  c #B33B05",
"k  c #BA3D05",
"l  c #EB3F05",
"z  c #9C4207",
"x  c #96420A",
"c  c #9C420A",
"v  c #93480F",
"b  c #9D4B0B",
"n  c #8B4C14",
"m  c #9C5818",
"M  c #A44307",
"N  c #AB4407",
"B  c #AA4907",
"V  c #A34409",
"C  c #AB4509",
"Z  c #A44B0C",
"A  c #AC4B0A",
"S  c #B34206",
"D  c #BB4407",
"F  c #B54A07",
"G  c #BC4C07",
"H  c #B4430A",
"J  c #BC4609",
"K  c #B44C0A",
"L  c #BC4D0A",
"P  c #A5530D",
"I  c #AB520E",
"U  c #A2580C",
"Y  c #B3520D",
"T  c #BD520B",
"R  c #A84C11",
"E  c #B64E10",
"W  c #A75714",
"Q  c #B65612",
"!  c #84601D",
"~  c #A3621C",
"^  c #B96015",
"/  c #BF751C",
"(  c #975C21",
")  c #996C28",
"_  c #A16922",
"`  c #AB772B",
"'  c #B77B27",
"]  c #C54608",
"[  c #C34D0A",
"{  c #CA4C0B",
"}  c #D24C0A",
"|  c #C3530B",
" . c #CA540B",
".. c #C4590B",
"X. c #CB5B0B",
"o. c #D2540C",
"O. c #DA570E",
"+. c #D45A0D",
"@. c #C65311",
"#. c #C25A14",
"$. c #CC5A11",
"%. c #D45B12",
"&. c #E84907",
"*. c #F14706",
"=. c #F24A06",
"-. c #FE4C07",
";. c #ED570B",
":. c #FD5407",
">. c #FF5A07",
",. c #FD5508",
"<. c #F35809",
"1. c #FE5D0A",
"2. c #E65C11",
"3. c #DE650F",
"4. c #C96619",
"5. c #D56314",
"6. c #DA6214",
"7. c #DD6B13",
"8. c #D76B18",
"9. c #C97118",
"0. c #DA781B",
"q. c #E4650C",
"w. c #E9660C",
"e. c #EC6B0C",
"r. c #F2650C",
"t. c #FE640A",
"y. c #F4690D",
"u. c #FE6C0C",
"i. c #ED730F",
"p. c #F3700C",
"a. c #FF740C",
"s. c #FF7B0D",
"d. c #E26514",
"f. c #E96914",
"g. c #F46716",
"h. c #F46B13",
"j. c #FD6D11",
"k. c #E67518",
"l. c #F67716",
"z. c #FE7412",
"x. c #FF7B13",
"c. c #F4751D",
"v. c #FD7D1B",
"b. c #CE6F23",
"n. c #D56E20",
"m. c #C97827",
"M. c #D87724",
"N. c #E47C22",
"B. c #E87A24",
"V. c #F37921",
"C. c #9F802E",
"Z. c #9F8835",
"A. c #BE8728",
"S. c #B98A34",
"D. c #DE811C",
"F. c #FF830D",
"G. c #FF8A0F",
"H. c #ED8D1E",
"J. c #FF8314",
"K. c #FF8B13",
"L. c #F58718",
"P. c #FE841B",
"I. c #FE8C1B",
"U. c #FF9414",
"Y. c #FF9A15",
"T. c #FF931C",
"R. c #F7991F",
"E. c #FF9D19",
"W. c #FFA41B",
"Q. c #FFAC1D",
"!. c #FFB01F",
"~. c #CC852D",
"^. c #D9862C",
"/. c #D98934",
"(. c #C59538",
"). c #D8973B",
"_. c #E78829",
"`. c #F48324",
"'. c #FF8C22",
"]. c #F98827",
"[. c #E6962A",
"{. c #FF9425",
"}. c #FE9B22",
"|. c #FF9529",
" X c #FA9B2B",
".X c #E88C33",
"XX c #E99737",
"oX c #F49432",
"OX c #F89936",
"+X c #CFA73A",
"@X c #EAA52E",
"#X c #FFAD21",
"$X c #FCA528",
"%X c #FFB423",
"&X c #FFBB26",
"*X c #FFB42B",
"=X c #FFBD29",
"-X c #E9A735",
";X c #FEA534",
":X c #F8A73A",
">X c #FDAC3B",
",X c #EFB538",
"<X c #FEBA35",
"1X c #FFC32C",
"2X c #FFC534",
"3X c #FFCB33",
"4X c #FFCD3C",
"5X c #FFD63F",
"6X c #EC9B42",
"7X c #D9A34B",
"8X c #DDAE54",
"9X c #E8A846",
"0X c #ECAB44",
"qX c #F3A843",
"wX c #EBB549",
"eX c #FBB647",
"rX c #F5B449",
"tX c #E9BA56",
"yX c #F2B955",
"uX c #D4B965",
"iX c #E4BE70",
"pX c #FFCB45",
"aX c #FFD546",
"sX c #F7D04F",
"dX c #FFDB4C",
"fX c #FBC757",
"gX c #D4C678",
"hX c #E7C663",
"jX c #F8C964",
"kX c #FFD966",
"lX c #EED677",
"zX c #F6D874",
"xX c #FFE676",
"cX c #D7CD8C",
"vX c #E6D18B",
"bX c #F9E88A",
"nX c #F8EA9B",
"mX c #F9F19C",
"MX c #FBEEA4",
"NX c #FDF6A8",
"BX c #FFFCAC",
"VX c #FCF9B8",
"CX c #DEE5C0",
"ZX c #FFFECB",
"AX c #FFFEDA",
"SX c #FFFEE8",
"DX c #FFFFF6",
"FX c #FFFFFD",
/* pixels */
"                                        X % ; 1 ) Z.Z.C.4 4 ; O                                           ",
"                                  X 1 ~.,X3X5X4X2X=X$X$X2X4XdXdXsXZ.<                                     ",
"                              % A.@X1X=X&X1X1X&XY.U.Y.U.!.3XaXaXdXdXdXdXZ.%                               ",
"                          % / }.W.#XQ.%X&X1X&XQ.W.Q.&X&X&X3X5XaXdXdXaXaXaXdXZ.%                           ",
"                      X n p.J.U.E.U.U.U.Y.W.Y.Q.Q.Q.&X%X%X%X3X3X3X3X3X4X4X2XpXsX3                         ",
"                    # +.u.a.J.J.J.s.s.s.s.s.F.Y.Y.Y.Y.Y.U.U.Q.=X&X1X1X&X1X2X2X2XpX+XO                     ",
"                  > <.t.u.a.u.u.t.t.u.a.a.a.s.F.s.F.u.s.u.t.x.W.%X%X%X&X1X=X=X&X&X<XpX=                   ",
"                , 1.1.t.t.t.>.>.>.t.u.u.a.u.t.a.F.s.t.t.t.<.t.U.W.%XQ.#X&X%XQ.%X#X#X*X<X*                 ",
"              : :.:.t.t.t.t.>.:.>.u.u.u.u.u.a.F.U.F.G.G.s.t.t.a.F.G.W.W.Y.Y.Y.W.E.Y.Y.$X<X*               ",
"            = :.-.,.u.u.u.t.>.>.t.u.>.>.t.t.a.J.U.Y.W.Y.J.a.t.u.a.s.G.Y.G.G.K.U.K.J.J.K.T.<X*             ",
"          @ =.-.-.>.u.a.u.>.>.>.u.t.>.>.t.t.u.s.G.W.Y.U.Y.K.F.a.a.u.t.a.s.s.x.T.J.x.a.p.J.}.@XX           ",
"        X { -.-.1.u.a.u.t.t.t.u.u.>.>.>.:.-.t.s.U.K.K.G.G.K.G.s.s.u.>.<.t.u.z.T.I.a.u.y.p.L.W.A.          ",
"        6 ,.-.t.u.j.j.a.u.a.u.t.:.*.*.*.*.*.>.x.K.F.J.K.U.F.G.F.s.a.a.a.a.t.u.{.}.x.u.w.e.s.R.$X<         ",
"      # ;.,.t.z.z.a.a.u.u.z.z.u.:.:.-.*.l *.1.z.s.a.a.a.s.x.s.s.s.a.s.s.s.u.t.j.x.z.a.r.w.i.L.@X@XX       ",
"      H ,.1.z.J.z.a.a.u.a.x.u.>.>.<.=.=.*.,.u.s.u.u.u.u.a.a.a.u.u.a.s.F.a.a.u.u.v.x.I.J.e.q.i.H.-X!       ",
"    @ 1.>.t.P.P.a.a.a.z.z.x.a.t.:.>.<.t.j.P.I.I.K.x.x.a.x.u.>.t.a.a.s.a.u.a.u.a.v.z.T.L.i.q.q._.-X-XX     ",
"    6 1.1.j.P.x.j.t.u.j.z.x.z.1.t.j.j.x.x.P.J.J.T.}.I.x.a.a.t.t.a.a.a.u.u.s.s.x.J.x.I.}.i.e.k.[.wXwX<     ",
"  X 2.1.1.z.v.x.j.t.1.t.z.J.z.1.u.'. X X}.v.j.x.T.}.T.x.K.J.u.u.t.a.a.t.t.s.P.I.P.J.I.L.L.e.f.XXhXhX(.    ",
"  = ,.=.t.z.z.J.z.u.1.t.x.J.z.'.OXfXkXkXfXOXz.P.I.{.'.J.T.T.J.u.t.a.a.t.p.x.'.|.{.P.P.l.i.i.f./.gXvX8XX   ",
"  y ;.&.t.z.a.J.z.z.u.z.x.P.;XkXVXZXBXBXBXxX;X'.P.'.{.J.x.I.K.a.u.u.a.a.a.x.|.;X X].v.i.q.q.q._.vXCXiX1   ",
"  { &.=.u.z.x.J.x.x.z.z.J.{.fXNXSXFXSXZXBXxXpX Xv.v.v.'.v.J.J.F.a.a.a.t.t.c.OXeXeX>X Xi.d.o.3.D.cXCXcX)   ",
"+ g.&.;.j.z.x.x.J.J.v.I.{.eXbXZXFXFXFXZXbXfX;X{.v.z.v.v.x.x.x.a.s.s.a.u.g.c.oXqXsXfX:Xk.+.} 3.0.8XcXcX(.  ",
"$ g.&.g.z.x.J.x.x.x.v.P.{.fXBXSXFXFXFXZXzX>X|.|.'.j.j.z.v.x.u.u.a.a.u.j.g.V.].OXrXfX-XD.+. .7.D.7XuXgX(.X ",
"= g.2.g.z.x.J.J.x.P.I.'.|.fXBXSXFXDXDXVXkX;X{.|.v.g.<.y.z.u.r.r.a.s.z.v.V.c.`.].qXfX9XXX8.} 0.0.~.7XuX(.# ",
": g.g.c.v.z.z.I.I. X;X>X>XfXmXZXAXSXSXVXjX;X|.P.g.2.;.r.y.r.r.w.a.I.P.I.`.c.V.`.XXwXwXwX.X5.0.8.8.~.(.S.& ",
", 2.2.V.c.j.l.I.c.`.rX:X>XzXNXBXVXAXSXNXjX>XOX].l.h.h.h.y.r.r.p.`.qXqXoX].`._.V._.9X-X9X7X^.^.0.4.9.A.S.= ",
", O.O.g.`.].:X,XoXOXfXOX XjXnXVXVXMXnXyX>X XeX:X].V.g.h.g.2.f.c.oXoXoXrXtX.Xk.k.B..X_./.9X)./.9...4.A.S.& ",
": O.} 2..XtXfXfXrXqX-X`.`.yXbXMXVXnXbXyXrXeXrXrX:X].V.V.f.k.`.oXqXOXXXtXhX.Xd.d.N.B.N.^.).+X/.#.T ^ / S.& ",
": } } %.XXvXlXyXwXXXV.f.f.XXhXzXMXmXmXlXjXfXwX:XqX6XoX.Xd.B.XXqX9X9X9XtX8XB.%.%.M..X/.M.~.).b.Q Y ^ ' ` # ",
"$ } ] O..XhX9X-XN.k.d.q.f.f._.0XlXvXlXfXrX0X0XXX6X6X6XB.d.2.B.XXXX.X.XXX.X6.%.%.M.7XM.M.).~.b.Q Y ^ ' ` O ",
"o o.] %.M.tX9X/.%.O.O.3.i.q.0.@X,XhXwX,XXX[.B.%.2.M.M.6.%.O.d.B.N.5.$.$.5.8.n.%.n.).b.b.m.m.b.Q I ~ ` _ . ",
"  @.@.%.M.7X8XM.+.5.8.0.k.7.3.0.[.^.[.-X[.N.d.} { } { ] { { @.#.@.[ ] ] @.$.$.%.4.b.$.Q 4.4.Q Q W Q ~ n   ",
"  q @.@.b./.7Xb.b.n.M.M.D.7.+.X.0.3.7.D.D.7.+.o.] k k h k k k k k D ] k D ] L [ @.T L H T Q Q Q W R m >   ",
"  - @.@.b./.m.M.M.b.M.8.8.8.+.[ X.3.3.5.3.X.{ { ] k k h h h j j k D D j j h k H H H H J E E K R R c c @   ",
"  o @.@.4.m.m.b.4.[ @.$.X.0.X.[ ] X.X. .| [ D | [ D k j h s j j j s j f a a s f H g H R R C Z R c u u .   ",
"    R [ #.^ m.#.#.@.@.[ X.9. . . .]  . .D D D X.X.[ D J S j s s s s f a a a f C A g C R M i V c r u >     ",
"    = @.L E Q E T T | ..X.X...| | | X.X.G j f [ | D H L J f a p p p d a a a a g C g V R y y i t r u @     ",
"      E L H g d C N F G T | T ..L [ X...| j f L T L L T S f a a e a a e d C M C C R W V u r r w r :       ",
"      = L K H d g g N S F F G T G f F | L N f H F H | T H N a 8 8 8 p a A Q A V V W W c r w w r y @       ",
"        R K L C d e N N N F F B a a d F F N f C N C K K C g e 8 8 8 a M A Y Z y 8 i c c r q w 9 :         ",
"        @ K K F C t M C N F F M e e d B C N C C A A C C C d e w t a A I W V y 5 y u i u w 9 9 6 o         ",
"          : A A C C N N A N K B e t d M M C Y R R Q R g V d t M M y Z P I V t w r r i q 9 6 6 $           ",
"            x C N N C A B B B B M d M M d d I I A R R i c V z M r y b R P Z c u r r r 9 6 6 -             ",
"            . x C M M B B B M B M d t V c u V V u y y y u V M z i z b W b P b b u r 7 6 5 : .             ",
"              + z B M M A A N M M M z t V i V t 8 7 y 5 9 t M Z V b Z b Z b b x r 7 6 6 : .               ",
"                o q N M M B M B M M Z V t t c t r 7 w 5 7 r z M b z c c b z b r 6 6 6 : .                 ",
"                  . 2 N M B B B M M z V V t t c r 7 7 5 6 r z z z t u x x u q 7 6 9 - .                   ",
"                      - P Z P B B M t t V c r t r 8 5 5 7 r z r r u u u x x q 0 0 &                       ",
"                        o n P P P B B V z z w w w w w 9 9 r r r 9 r x b v n v > o                         ",
"                            & n W U U P P b t w t z z z z z c v v b b m m , +                             ",
"                                # > _ ~ W W b b b P U m U m m m m ) ! ; +                                 ",
"                                      + ; 1 ~ ~ m ~ _ _ ) ) ( 2 = + .                                     ",
"                                                X + # O O .                                               "
};
