/* XPM */
static char *result[] = {
/* columns rows colors chars-per-pixel */
"53 53 75 1 ",
"  c #000000",
". c #090705",
"X c #0C0806",
"o c #0F0B08",
"O c #130D0A",
"+ c #17100C",
"@ c #1B120D",
"# c #1D1612",
"$ c #22160F",
"% c #211711",
"& c #251A13",
"* c #2B1D15",
"= c #2F1F18",
"- c #311F16",
"; c #2E2016",
": c #29221E",
"> c #332217",
", c #34231A",
"< c #3B261B",
"1 c #3D291E",
"2 c #322923",
"3 c #3D2C21",
"4 c #3E3025",
"5 c #432C1E",
"6 c #432E21",
"7 c #492E20",
"8 c #453124",
"9 c #4B3324",
"0 c #4E3827",
"q c #453529",
"w c #4B3629",
"e c #4D392B",
"r c #513625",
"t c #583725",
"y c #543927",
"u c #593A27",
"i c #503729",
"p c #543C2B",
"a c #593D2B",
"s c #4E3E33",
"d c #523F30",
"f c #56402E",
"g c #5B412E",
"h c #564231",
"j c #5C4532",
"k c #5D4935",
"l c #5F4A38",
"z c #62432E",
"x c #6A462F",
"c c #624631",
"v c #644A34",
"b c #6A4D35",
"n c #644E39",
"m c #6A4F39",
"M c #714E35",
"N c #675037",
"B c #6D5037",
"V c #65513A",
"C c #6C523A",
"Z c #735137",
"A c #7A5437",
"S c #73543B",
"D c #7A573C",
"F c #75593E",
"G c #7A5A3E",
"H c #755A41",
"J c #7C5D41",
"K c #7F6043",
"L c #805C3E",
"P c #825F42",
"I c #836244",
"U c #8A6547",
"Y c #896749",
"T c #8B6A4B",
"R c #906C4B",
/* pixels */
"                                                     ",
"                                                     ",
"                 ++                                  ",
"                *DJ8%                                ",
"               *GIUUUF1O                             ",
"               MGFFGIUUYeX3y8*                       ",
"              XuSDSbzZJJHCGPIKIC8o                   ",
"              @yapfgyfMmnmZLPDCDYTq                  ",
"              ,ajpwq89pdZISbDGvbHTm.                 ",
"              9pdpeqeww7ZRUCCJmvSHj#                 ",
"              apheqqwww8gZHCmDSvSjs:                 ",
"             Xuypq48wwq7aiaccjpapes2                 ",
"             Xuup6369qq6paiyypjjhjeq                 ",
"             Xuuw1167756iippedfhyw8s,+               ",
"             +uuw1166567wrippppaeqqjj*               ",
"             @yp9<1666679weeyeeypacvg>               ",
"             #yp9<3661599iryyqqfkkkkj8               ",
"            .eep933651199trty99fhephke               ",
"            @vee916q44599rrrr99yw999fp               ",
"            *vvq838q885i9r7rr9999166yw.              ",
"            &aaq3q00q68pr7r999yyq<<599.              ",
"            $r634qfff0pptr997ruy9,>559X              ",
"            $r<<19iffffp09999rut7<<559X              ",
"            >5<<<5ip00gfpr9899ry9,3666X              ",
"          .<e9<<>tzjgtyytr098889626848.              ",
"       ;8NbDz7<5<uzxggyuyyrr9868338844X              ",
"  .@>&&ADGGSj95670trrugzzguui888367988.              ",
" +MAGIJHGGZcfqq677r7599puuzzp7853<6636H2*            ",
".zALIIFSDAgchqq88897779997797577<<5636hln3           ",
"$bSFGFSFAbcjjpfeq888977779751576<66536dhkhke         ",
"$aBSSSCZBbbvcvcgf00q889877668pgfwi8838djkhkHH#       ",
"$bBFSSFBZbbZZNvzvvvvjgjf00fgjjjcjhpq34dhhhskHH*      ",
"@xSFFFFCBBAFABcfjjcjp999fgcccjggfpeeqqiphhhkVHHq.    ",
"+xBAGFFSBNZZCNjgpjjjfq8efjbNNjj0qqefpew9hjhlVlHHj    ",
".zBAGGFFCCvNZCvfauaazcjggccNNjfq4qefhfw0fhhVVhkHHd   ",
" pxBFFFFCVvjvNNvjayupuazvbvNkffqqeefepeehhkVhllVHH3  ",
" ,abADFSCVnkjcbcvjawrrr9rgvvjkggffffppiufhkfhVVVCHn. ",
" XrbSASCVNlvvvzzzcbvft559fcjgfffffffffppfhqflVVHHCmw ",
"  OgZSSCNvvknvbvbbbbxjvvzgfffaaaffgjjkffe8qklVVHHCjj ",
"   *bZZCZZCnvnCCCbbbvxzvzfuafagzccxkjfe84fkklVCCSSj6 ",
"   &rcZDDGASCCHFCNNVNbbzggfyyfffpeqq8qwphkkhVCFKSCj& ",
"    39jmDIKIKKKHFCCCBNvzggffy977667qpjvkjvkvCHFFmjw  ",
"     <qyCHIIKIIKJSFCBbbvcckgfgffcvjnnnnjjcNSCFFna93  ",
"      ;6yvNDKIIKJJASbNBCNNNCCCBNbZmcmnmnNSGGHCjp66O  ",
"       #67yMGGDDFASCBBSBSNNNNvvxxxxjbCCCmmADFcw6=    ",
"        .*qzbZbZAFCBAFBBNBBNBBvbzaacmCCSCbbvzu6%     ",
"           ,wuzbbxxvNBbbbbvcvvcjjzbbbmvbbcpi96.      ",
"            X=9ut0fgggggggggfgfagaaaaauiiw63&        ",
"              .&<66quyyruiuu9999965565555,#          ",
"                  O%*<55555<>>--*&&@@+X.             ",
"                         .                           ",
"                                                     ",
"                                                     "
};
