/* XPM */
static char *_84309fe75504270f1f76f1bd1e31b4cznkaQ9gbSRqYlHqd[] = {
/* columns rows colors chars-per-pixel */
"40 40 215 2 ",
"   c #000100",
".  c #0A0000",
"X  c #1A0001",
"o  c #341400",
"O  c #352D00",
"+  c #243C00",
"@  c #323D00",
"#  c #0B5000",
"$  c #2F4401",
"%  c #344601",
"&  c #354C00",
"*  c #374A06",
"=  c #335202",
"-  c #355D07",
";  c #374D12",
":  c #364E1A",
">  c #36541B",
",  c #38561E",
"<  c #365A1E",
"1  c #385717",
"2  c #146600",
"3  c #007B00",
"4  c #247F00",
"5  c #33641B",
"6  c #365522",
"7  c #365B22",
"8  c #365E2A",
"9  c #3A5D2C",
"0  c #395121",
"q  c #356124",
"w  c #356A2C",
"e  c #37662C",
"r  c #337728",
"t  c #356B3A",
"y  c #396B33",
"u  c #357733",
"i  c #367B34",
"p  c #387C35",
"a  c #377C39",
"s  c #387639",
"d  c #386C43",
"f  c #376F42",
"g  c #3A7044",
"h  c #3A764D",
"j  c #377C4B",
"k  c #397C4D",
"l  c #377546",
"z  c #397C53",
"x  c #397C54",
"c  c #048100",
"v  c #0A8501",
"b  c #168400",
"n  c #0A8517",
"m  c #0E8318",
"M  c #1D871B",
"N  c #218000",
"B  c #2A861B",
"V  c #1A892B",
"C  c #2C892E",
"Z  c #298924",
"A  c #348C2B",
"S  c #348C26",
"D  c #2E8E35",
"F  c #2F8E3D",
"G  c #338C34",
"H  c #35843B",
"J  c #348C3B",
"K  c #368732",
"L  c #2E9034",
"P  c #2A903C",
"I  c #349035",
"U  c #33923B",
"Y  c #008B4E",
"T  c #019058",
"R  c #358F43",
"E  c #38884A",
"W  c #2F934D",
"Q  c #359343",
"!  c #3B9245",
"~  c #36924B",
"^  c #3A954B",
"/  c #3B9A4C",
"(  c #349949",
")  c #39865C",
"_  c #38885A",
"`  c #369452",
"'  c #3E9855",
"]  c #399B5C",
"[  c #399659",
"{  c #299653",
"}  c #079D6B",
"|  c #139F6E",
" . c #3E8F6A",
".. c #378B64",
"X. c #2E9369",
"o. c #379963",
"O. c #399C66",
"+. c #39946D",
"@. c #399F6C",
"#. c #2E9D73",
"$. c #3A9571",
"%. c #3B9C72",
"&. c #399A74",
"*. c #16A06F",
"=. c #13A373",
"-. c #3AA16E",
";. c #37A46B",
":. c #2CA575",
">. c #34A474",
",. c #3AA474",
"<. c #3BA57D",
"1. c #33A87B",
"2. c #3BA878",
"3. c #409955",
"4. c #479B61",
"5. c #4B9E62",
"6. c #4F916D",
"7. c #559968",
"8. c #569A77",
"9. c #499672",
"0. c #6E9A7F",
"q. c #668B6A",
"w. c #4AA165",
"e. c #4AA369",
"r. c #56A66E",
"t. c #43A573",
"y. c #4EA672",
"u. c #42AA7D",
"i. c #44A97C",
"p. c #5BA47C",
"a. c #56AE7C",
"s. c #55A776",
"d. c #60A972",
"f. c #6AB07E",
"g. c #3CA581",
"h. c #36AC86",
"j. c #3CAB84",
"k. c #36AE8A",
"l. c #3DAE8A",
"z. c #35B28E",
"x. c #3CB28D",
"c. c #3DB087",
"v. c #35B393",
"b. c #3CB492",
"n. c #3BBA96",
"m. c #46AC82",
"M. c #5BAA83",
"N. c #43B38E",
"B. c #4BB58C",
"V. c #5CB483",
"C. c #51B38B",
"Z. c #5CB58A",
"A. c #57B98F",
"S. c #5BBA8F",
"D. c #50B082",
"F. c #43B693",
"G. c #41B995",
"H. c #4EBA95",
"J. c #51B992",
"K. c #5DBD94",
"L. c #53BD9A",
"P. c #5CBF99",
"I. c #51B790",
"U. c #69B284",
"Y. c #64B58D",
"T. c #6DB78B",
"R. c #63BB8D",
"E. c #67B385",
"W. c #77B68F",
"Q. c #7BAE91",
"!. c #64BC93",
"~. c #68BD93",
"^. c #65BF99",
"/. c #6ABE9B",
"(. c #78B593",
"). c #76BD93",
"_. c #79BF96",
"`. c #70A887",
"'. c #3FC39E",
"]. c #5EC099",
"[. c #5EC097",
"{. c #66C296",
"}. c #64C29A",
"|. c #6DC69C",
" X c #6EC99E",
".X c #68C090",
"XX c #7BC297",
"oX c #71C29F",
"OX c #70C89E",
"+X c #7EC59D",
"@X c #6CC6A1",
"#X c #6ECAA2",
"$X c #6FCAA9",
"%X c #71CCA3",
"&X c #72CDAA",
"*X c #7FCEAA",
"=X c #7ACAA5",
"-X c #73D0A7",
";X c #74D5AC",
":X c #77D5B1",
">X c #81CEAD",
",X c #89C9A9",
"<X c #83D2B1",
"1X c #8CD6B6",
"2X c #93D8B9",
"3X c #9ADCBC",
"4X c #94D7B4",
"5X c #9CDFC1",
"6X c #9EE2C3",
"7X c #A2E4C5",
"8X c #A5E5C9",
"9X c #A7E9CD",
"0X c #A8EBCC",
"qX c #AEEFD1",
"wX c #ACF6D5",
/* pixels */
" X X X X X X X X X X X X X X X XOX X X X X X X X X X X XOX X X X X X X X X X X X",
" X X X X X X X X X XOX X X X X X X X X X X|. X X X XOX#X X X X%X X X X X X X X X",
" X X X X X XOX X X X X X%X X X X X X|. X X X X X X X X X X X X X X X X X X X X X",
" X X X X X X X X X X X X|. X X X|.OX XOX%X#X X X X X X X X X X X X X X X X X X X",
" X X X X X X X X#X X X X X X X X#X|.}.{..X.X X X X X X XOX X X X X X X X X X X X",
" X X X X X X X X X X X X X X X XOXOXF.k.n D #X%X X X X X X X X X X X X X X X X X",
"#XOX X X X X X X X X X X|. X|. X}.[.u.u.E.E.V.R. X X X X X X X|. X X X X X X X X",
" X X X X X XOX X#X%X%X%X%X%X%X#XB.z.V I 6X3XG '  X%X%X%X X%X%X-X X X X X X X X X",
" X X X X X X X X{.a.E.V.V.V.K.K.N.l.T.).3X3X! ` ].K.p.a.V.V.p.!.@X|. X X X X X X",
" X X X#X X X X-Xa.3 v c v 3 :.b.x.b.5X8X7X3X! W v.:.. # v 2   8.;X#X%X X X X X X",
"OX|. X X X#X{.B.R.XXXXXX)._.a.,.-.,.4X3X2X>X! ! ..8.W.(.XX(.Q.`.8.V.].}. X X X X",
" X X X X X X[.Y |.qX8X6X8X8Xd.3 I J 4X6X$X!./ ! X q.9X8X7X7XwX`.. X.v.{. X#X X X",
" X XOX X X X{.A.K.Y.>X7X3X7X,X+X7.L =X<X&X/.s l X.D.<X1X7X,X0.7.r -.x.{.#X#X X X",
" X XOX X X X#X=XC.Y oX9X6X3X8X8Xr.B }.$X%X|.0 d b.H.@X*X9X(.  r U ,.b.}.OX#X X X",
"OX X X X X X X X}.K.K.Z.=X<X*X:X.XZ.y.y.J.B.7 d l.F.L.Z.f.7.r O.1.A.}.|. X X X X",
" X X X|. X X X X%X=XC.T C.$X@X@X&X&X^ C k.h., d l.k.z.>.b F I 2.b.}.%X X X X X X",
" X X XOX X#XK.:.1.1.:.=.-.5.5.3.{.@X3.R ] ' K ~ b.<.g d y y q t t M.#X X X X X X",
"|. X X X X XK.} } | | =.{ G J D ^.%X' G J J U ~ b.&.& > 7 6 7 , % p.#X#X X#X X X",
" X X X%X!.F E.6X2X2X2X3X=X}.e.C ' ' ^.^.t y c.<.9 ) j.C././././.@X8.7 !.%X X X X",
" X X X%XR.n U.3X5X7X6X6X<X&Xy.R J G ^.@X9 8 l.g.= x x.L.$X@X&X@X%X6.+ Y.#X|. X#X",
" XOX|. X}.k.i.G ).8X1X#X%X%XI.h.] J ^ ~ 8 6 8 l m.l.k.x.N.N.G. .1 $.x.{.OX XOX X",
" X X XOX}.b.u.n T.3X>X}.@X#XH.k.] R J K 8 < - t l.l.l.h.j.j.k.) & +.x.}.%X#X X X",
" X X X X X X[.c.t.K t.b.N.b.N.x.x.x.d , < q Q Q Q Q ~ H 6 e 0 a Q J D R.%X X X X",
" X#X X X#X#X}.F.2.Q @.l.<.j.g.<.g.g.t 1 , 7 H H H H R i 6 q 7 a ( ` ~ .X#X X X X",
" X X X X X X X%X].b.-.B G D 5 % < < > , , < < < 6 > & = % r Q R A >.z.}. X#X#X X",
" X X X X X X X{.A.<.t.w.w.e._ h e > w w 6 < , 8 q s j z h E a ` [ i.H.}. X XOX X",
" X X X X XOX}.v.,.4 p.&X$X&XL.b.h % R R < > , e U O.b.x.n.+.o $.n.}.%X#X X X X X",
" X X X#X|.%XK.>.t.e.Z.$X^.P.m.>.j w ~ R i y < w J ` 2.,.,.+.z  .%.C.}.}.OXOX XOX",
" X X XOX X%XR.4 M.:X$X&XL.v.] S U G A G I G > q Q U U U S ;.'...O $.v.}. X X X X",
" X X#X X|.].D.D 4.M.8.M.9.+.E i o.-.@.@.-.o.s u i a p i i E $.h = _ 2.!.#XOX X X",
" X X X X}.z.>.G r @ $ % % & * ; g.G.x.x.b.x.( J : : : : : ; % ; 0 p C R.-X|. X X",
"#X X#XOX}.x.<.,.[ i a p i p i i _ ..j.x.,.o.i u i i i a p a a i p J U .X X|. X X",
" X X X X].z.z.b.;.Z D L U Q Q Q - @ l.x.Q A : 7 Q Q Q U L L L I L D Z R.%X X X X",
" X X X%X X[.[.[.S.V.V.R.w.J Q Q E a ) ) s s a H Q Q J 5.S.V.a.R.V.V.a.|. X X X X",
" X X X X X X%X X%X%X%X%Xs.B J D D D = $ @ = D I D J B y.%X%X%X%X%X%X%XOX X X X X",
"OX X X X X X X X X X|.#X{.R.R.R.R.R.Y.R.Y.Y.R.R.R.R.R.{. X X X X X X X%X|. X X X",
" X X X X X X X X X X XOX#X#X#X%X#X%X%X#X%X X%X-X#X%X%X#X X X X X XOX X XOXOX XOX",
" X X X%X X%X X X X XOX X X X X X X X X#X X X X X X X|. X X X X X X XOX X X XOX X",
" X X X X X X X X X X#X X X X X X X X X X X X X X X X X X X X X X XOX X X X X X X",
" X X X X X X X X X X X X X X X X X X X X X X X X X X X X X X X X X X X X X X X X"
};
