/* XPM */
static char *result[] = {
/* columns rows colors chars-per-pixel */
"53 53 222 2 ",
"   c #000000",
".  c #0B0504",
"X  c #0C0905",
"o  c #130606",
"O  c #120E06",
"+  c #180807",
"@  c #140A08",
"#  c #1C0A0A",
"$  c #13100D",
"%  c #1A150C",
"&  c #240D0C",
"*  c #2C0D0D",
"=  c #25100E",
"-  c #241C0D",
";  c #231211",
":  c #2C1513",
">  c #231E13",
",  c #371514",
"<  c #282317",
"1  c #342B17",
"2  c #3B3328",
"3  c #471717",
"4  c #511818",
"5  c #5C1919",
"6  c #631B1B",
"7  c #6C1D1C",
"8  c #751E1D",
"9  c #781E1E",
"0  c #48281D",
"q  c #49371C",
"w  c #6C221E",
"e  c #6F281F",
"r  c #72221F",
"t  c #592623",
"y  c #6C2624",
"u  c #6E2A23",
"i  c #6B2B29",
"p  c #762221",
"a  c #7C2322",
"s  c #742C23",
"d  c #7A2927",
"f  c #762B29",
"g  c #7D2B28",
"h  c #6C3221",
"j  c #753324",
"k  c #733429",
"l  c #7E302D",
"z  c #753D2A",
"x  c #653231",
"c  c #7E3D3C",
"v  c #56431C",
"b  c #554222",
"n  c #56452D",
"m  c #5B4336",
"M  c #684F23",
"N  c #7A442B",
"B  c #695326",
"V  c #685529",
"C  c #775C2B",
"Z  c #7D4938",
"A  c #6B5632",
"S  c #705730",
"D  c #7E662A",
"F  c #7C6435",
"G  c #6B624A",
"H  c #832625",
"J  c #812C29",
"K  c #87352B",
"L  c #853532",
"P  c #893A35",
"I  c #963B38",
"U  c #894B2C",
"Y  c #914D2B",
"T  c #86552A",
"R  c #885629",
"E  c #8A5C2C",
"W  c #9B5A2D",
"Q  c #8C4934",
"!  c #8B4639",
"~  c #924430",
"^  c #895638",
"/  c #935834",
"(  c #93553C",
")  c #965A3C",
"_  c #86642A",
"`  c #96692E",
"'  c #94732E",
"]  c #9C762F",
"[  c #9E782F",
"{  c #896A38",
"}  c #956535",
"|  c #946A33",
" . c #9A6E32",
".. c #9B623C",
"X. c #8F7034",
"o. c #8B723C",
"O. c #9C7331",
"+. c #9F7930",
"@. c #99773B",
"#. c #A26939",
"$. c #A27635",
"%. c #A97634",
"&. c #A37C31",
"*. c #A57B3A",
"=. c #AA7E3A",
"-. c #B07B3C",
";. c #8C4343",
":. c #8A4E44",
">. c #934645",
",. c #964B45",
"<. c #9B4B4A",
"1. c #965545",
"2. c #A34D4C",
"3. c #A94948",
"4. c #B54F4F",
"5. c #A9544C",
"6. c #A75752",
"7. c #AC5251",
"8. c #B45454",
"9. c #B55956",
"0. c #976C43",
"q. c #8F7342",
"w. c #947642",
"e. c #9C6959",
"r. c #8B7858",
"t. c #AB6D45",
"y. c #A47341",
"u. c #AA7B45",
"i. c #B77346",
"p. c #AF6B56",
"a. c #A67958",
"s. c #BC7757",
"d. c #C07A4C",
"f. c #A78033",
"g. c #A98234",
"h. c #AE823B",
"j. c #B3853D",
"k. c #B6893B",
"l. c #BA8B3D",
"z. c #BA933C",
"x. c #C18E3A",
"c. c #C3963D",
"v. c #C49A3E",
"b. c #C99B3F",
"n. c #998259",
"m. c #AD8543",
"M. c #B28A45",
"N. c #BC8C42",
"B. c #B5924E",
"V. c #BC954A",
"C. c #BB9948",
"Z. c #A18450",
"A. c #A58A53",
"S. c #B98753",
"D. c #AE9257",
"F. c #B79957",
"G. c #AE8E65",
"H. c #BB9267",
"J. c #CC9B44",
"K. c #C49649",
"L. c #C39D4B",
"P. c #D29F42",
"I. c #CC8F5D",
"U. c #C59855",
"Y. c #CEA243",
"T. c #CBA44A",
"R. c #D4A344",
"E. c #D6A647",
"W. c #DCA943",
"Q. c #D4A94A",
"!. c #DDAD4B",
"~. c #DFB14A",
"^. c #C2A152",
"/. c #CBA354",
"(. c #CCA55C",
"). c #D3A652",
"_. c #D5AC55",
"`. c #D2AA5E",
"'. c #DBAC58",
"]. c #DFB053",
"[. c #E1AF46",
"{. c #E2AE4C",
"}. c #E4B24A",
"|. c #E9B548",
" X c #EBB54B",
".X c #F4BB4C",
"XX c #F9BE4B",
"oX c #E1A05D",
"OX c #E3B253",
"+X c #EBB454",
"@X c #E5B55A",
"#X c #E9B25E",
"$X c #F6BB52",
"%X c #F0BB5D",
"&X c #C49868",
"*X c #CDA663",
"=X c #CAA36A",
"-X c #CBA66A",
";X c #D4AB65",
":X c #D9AD64",
">X c #D4AD6B",
",X c #DDB265",
"<X c #DDB36B",
"1X c #C9A875",
"2X c #D2AE72",
"3X c #D3AF79",
"4X c #D6B276",
"5X c #DBB472",
"6X c #E8B966",
"7X c #E5BB75",
"8X c #E9BF79",
"9X c #E6C14C",
"0X c #F6C24E",
"qX c #FDC44E",
"wX c #FFC94F",
"eX c #EEC251",
"rX c #FDC552",
"tX c #FECC52",
"yX c #FED354",
"uX c #FFDC57",
"iX c #F0C16F",
"pX c #F0C479",
/* pixels */
"                                                                                                          ",
"                                                                                                          ",
"                                                                                                          ",
"                                                                                                          ",
"                                                                  % X.Q.C.1                               ",
"                                                                b  XqX.X}._.1                             ",
"                      X M X.V <                               C yXyXwXXX X~.`.<                           ",
"                    X C.0X~.Q.^.1                           M tXtXrXwXXX X!.~.C.X                         ",
"                    F uXwX|.~.T.F.>                       q 9XqXwXtXwXXX X[.[.Q.o.                        ",
"                  % eXuXwX.X~.T.F.A.X                   X R. XtXuXyXwXqX.X[.P.K.M.A                       ",
"                  b tXuXyX0X[.Q.T.F.r.                  D {.rXyXwXwXqX[.] F P.J.h.@.X                     ",
"                  C rXuXyXqX[.Q.T.L.F.G             . q !..X0X.XqX[.-.0   X.$X}.E.J.-                     ",
"                  C {.XXrXXXW.v.z.z.B.F.n.F m x P p.oX#X!.{. XP.i.5.8.9.u.#X+XOX}.l.X                     ",
"                  n m.P.XX[.K.<XiX7X*XF.A.D.`.=XH.,X%X$X$XE.N.d.i.s.I.*X;X;X(.).J.{               X v % b ",
"      . ; , t x P :.q.*.J.i.,.t.V.,X2X2X2Xn.q.C._._._.{.[.E.P.'._.`.).T.P.L.^.C.F.*X*XF >     > S X.S h.- ",
"= L 2.7.9.9.8.8.8.8.e.G ..t.2.<.p.*X2X2X3X3X3XH.m.z.k.g.' _ w.B.V.L.K./.`.;X(.^.(.(.;X-X=XG.1X8X6X).B X   ",
", J I 3.4.8.8.4.7.7.6.e.r.o.G.1X7XpXiX7X7X<X>XD.@.X.w.Z.A.A.U.B.{ ^ Z Z ^ @.D.U.(.*X:X<X,X`.J.N.M -       ",
", H H J K I 4.I.&X-X2X4X3X1Xa.5XiX7X7X6X,X:X/.q.A.*X-X5X5X5X4X2X2XH.a.;.;.;.;.<.1.( ) 1.) ,.<.<.<.x ;     ",
", K J J J J )  X$X%X,X;X(.F.*X%X@X@X@X@X].].).:.c 1.S.>X4XpXpX7X<X5X5X>XS.p.3.2.7.8.9.6.7.2.,.I P J s     ",
", J J J J J ) l.J.{.W...1.! U.+XOXOX[.!.!.~./.>.>.>.>.1.S.`.<X,X6X@X@X}.'.E.t.I P J H H 9 9 9 9 9 9 7     ",
"; J J J J J ) M.N.K.l.g K I $X$X X X|.{.[.[.U.>.<.2.6.6.<.>.l.R.b.b.c.x.z.k.` 8 9 9 8 9 8 9 8 9 9 9 7     ",
"> J J J J g / j.m.x.l.s g P rXrXwXrXXX X}.}.V.I P L H a a 7 R g.g.g.&.f.&.g.` 7 9 9 9 9 9 9 9 9 9 9 7     ",
"# g J J J J / j.l.N.k.s g ~ wXwXwX.Xb.|.}.[.-.7 8 8 8 r 8 7 R f.&.&.&.g.g.g.` 8 9 9 9 9 9 9 9 9 9 9 8     ",
"X i g g J J ( M.j.l.k.f g ~ qX.X|.b.z [.Y.Q.*.7 8 7 8 8 8 7 R &.&.&.&.&.&.g.O.7 8 9 9 9 9 9 9 9 9 9 7     ",
"  : d f g d ( m.j.N.l.j d ~ |.W.W./ 6 %.Y.Y.Y 7 7 8 8 8 8 6 R %.&.&.&.&.f.g.O.8 8 9 9 9 9 9 9 9 9 9 8     ",
"  : g d f f ^ j.j.N.l.k g K W.v.k.s 7 e b.v.Y 8 8 8 8 8 8 6 R f.+.&.&.&.&.&.+.7 8 8 9 9 9 8 8 9 8 8 6     ",
"  = J g g g ! j.j.k.k.z g K W.v.U s 7 7 W v.Y 7 7 8 8 8 8 6 R &.+.+.&.&.&.g.%.7 8 8 8 8 7 6 7 7 7 7 @     ",
"  : g J g J ! j.j.j.k.N d l E.%.d d 7 7 7 x.Y 8 8 8 8 8 8 7 R f.+.+.+.&.&.g.f.6 6 6 6 7 7 8 7 7 8 7 .     ",
"  : J J J g Q j.j.j.l.N i s P.P d d 7 7 7 H ` 8 8 8 8 8 7 6 R &.[ +.$.&.&.&.&.6 8 8 8 7 8 8 8 8 8 9 .     ",
"  # J J J J ! =.h.M.l.N u a #.f f d 7 8 7 7 r 7 6 7 6 6 7 5 T f.[ +.+.+.&.&.g.7 7 8 8 8 8 8 8 8 9 9 +     ",
"  & J J J J ! j.h.j.N.N u g d d d f 7 7 7 7 7 7 7 8 7 8 7 5 T f.[ +.&.&.&.g.g.7 8 8 8 9 8 9 9 9 9 9 o     ",
"  % J J J g P -.h.h.k.T y g g g g d 8 7 7 8 8 8 7 8 8 8 7 5 E &.[ [ [ &.&.&.f.6 8 8 8 8 9 9 8 9 9 9 o     ",
"  + J J J J P h.h.h.k.T y g g J g g 9 8 8 8 8 8 8 8 8 8 7 6 E f.] ] ] &.&.&.g.w 8 r 8 9 9 9 9 9 9 9 &     ",
"  + J J J J L m.h.h.j.E y g g J g J 9 8 7 8 8 8 7 8 8 8 7 6 E f.] ] +.] +.&.g.w 8 8 8 8 8 9 9 9 9 9 +     ",
"  + J J J J J m.h.h.j.} y g J J J g 8 8 8 8 8 8 8 8 7 8 7 6 E &.] +.] &.&.&.g.w 8 8 8 8 9 9 9 9 9 9 #     ",
"  o J J J J J m.=.h.j.| y g g J J g p 8 9 8 8 8 8 8 8 8 8 6 E f.] ] ] +.&.&.g.w 8 8 8 8 9 9 9 9 9 9 #     ",
"  o J J J J d m.=.=.j. .y d J J J J a 8 8 8 8 9 8 8 8 8 7 6 R &.] ] +.&.+.&.g.e 8 8 9 9 9 9 9 9 9 9 &     ",
"  @ J J J J g m.=.=.j.$.y d J J J J a 8 8 9 8 8 9 8 8 7 7 6 ` &.] ] ] +.+.&.g.e 8 8 8 8 9 9 9 9 9 9 &     ",
"  . g J J J J u.=.=.j.$.y d J J J J a r 8 8 9 9 9 9 8 8 8 6 } &.] ] ] ] +.&.f.e 8 8 8 9 9 9 9 9 9 9 &     ",
"  . J J J J g u.=.=.j.=.y d J J J J a 8 9 8 8 9 8 8 8 8 7 6 _ &.] ] ] &.+.&.f.e 7 8 9 9 9 9 9 9 9 9 &     ",
"  . J J J J J y.=.=.j.h.y g g J J J r 9 9 9 9 9 9 8 8 8 8 6 ` &.] ] [ [ [ &.f.j 8 8 9 9 9 9 9 9 9 9 &     ",
"    J J J J g #.=.=.=.k.u g J J J J H r 9 9 9 9 9 9 9 8 8 6 | &.] ] ] [ +.&.f.e 8 8 8 9 9 9 9 9 9 9 *     ",
"    J J J J J ..=.=.=.k.u g J J J J a 9 9 9 8 9 8 9 8 8 7 6 ` +.' ] [ [ [ +.f.j 8 8 8 9 9 9 9 9 9 9 *     ",
"    X 3 L J J 0.%.=.h.j.z g J J J J a 9 8 9 r 9 8 9 8 8 8 6 | &.] ] [ [ [ &.f.j 8 8 8 9 9 9 9 9 9 9 *     ",
"          : t ..*.=.=.k.z g J J J J a 8 9 8 9 9 9 9 8 8 8 6  .&.] ] ] ] ] &.f.j 8 9 9 9 9 9 9 9 8 8 *     ",
"              n *.*.=.k.N g J J J J J 9 9 9 8 8 8 9 9 9 8 6 ' &.' ] ] ] ] +.f.j 8 9 9 9 9 8 8 w 5 3 o     ",
"                2 S h.h.U J J J J J a 9 8 9 9 9 8 9 9 8 8 6 O.&.[ [ ] [ +.+.&.h 5 4 , * # o               ",
"                    $ n M t J J J J a 9 8 9 8 9 9 9 9 9 8 7 O.g.&.g.&.&.+._ B O                           ",
"                            . 0 i J d p p 9 9 8 7 5 4 , * 0 B v q q - O                                   ",
"                                  : 4 4 , & + . .                                                         ",
"                                                                                                          ",
"                                                                                                          ",
"                                                                                                          "
};
