/* XPM */
static char *result[] = {
/* columns rows colors chars-per-pixel */
"53 53 225 2 ",
"   c #000000",
".  c #0A0803",
"X  c #150C04",
"o  c #0B1709",
"O  c #1A1106",
"+  c #161709",
"@  c #241507",
"#  c #2C1A0A",
"$  c #361C0A",
"%  c #1A2F12",
"&  c #32220F",
"*  c #39240D",
"=  c #781A0B",
"-  c #48250E",
";  c #54240C",
":  c #5C260B",
">  c #5D2A0F",
",  c #472F10",
"<  c #582B10",
"1  c #4C3617",
"2  c #583814",
"3  c #60270C",
"4  c #63290D",
"5  c #6C2D0D",
"6  c #702F0E",
"7  c #74310F",
"8  c #7A330F",
"9  c #6E2D10",
"0  c #673814",
"q  c #753411",
"w  c #7D3410",
"e  c #7A3C14",
"r  c #1A411A",
"t  c #24451B",
"y  c #2B5621",
"u  c #305B23",
"i  c #356728",
"p  c #36762D",
"a  c #357C31",
"s  c #5A491C",
"d  c #654419",
"f  c #774216",
"g  c #76571C",
"h  c #4D5922",
"j  c #645622",
"k  c #7C5923",
"l  c #536D2B",
"z  c #47762D",
"x  c #5D782C",
"c  c #676B28",
"v  c #766A26",
"b  c #65782D",
"n  c #881A0A",
"m  c #941C0A",
"M  c #9C1E0A",
"N  c #A31F0A",
"B  c #89240D",
"V  c #97280D",
"C  c #833711",
"Z  c #8C3413",
"A  c #853911",
"S  c #8C3B12",
"D  c #933E13",
"F  c #983812",
"G  c #A5210B",
"H  c #AC210B",
"J  c #A6280F",
"K  c #B4220C",
"L  c #A93211",
"P  c #874717",
"I  c #854C1B",
"U  c #984013",
"Y  c #8C521B",
"T  c #885A1D",
"R  c #93551D",
"E  c #9A561D",
"W  c #935A1E",
"Q  c #9B591E",
"!  c #A94916",
"~  c #A35D1F",
"^  c #AA5D1E",
"/  c #B7591A",
"(  c #90711E",
")  c #AE691E",
"_  c #B7671F",
"`  c #885B25",
"'  c #945B21",
"]  c #9B5D21",
"[  c #A45E20",
"{  c #B15F20",
"}  c #876923",
"|  c #996725",
" . c #9A7121",
".. c #91732C",
"X. c #A46222",
"o. c #AC6321",
"O. c #AA6A27",
"+. c #B26622",
"@. c #B56924",
"#. c #BA6822",
"$. c #BC6D24",
"%. c #A97627",
"&. c #BC7124",
"*. c #BC732A",
"=. c #BC7C37",
"-. c #C1631E",
";. c #C26D24",
":. c #C86C22",
">. c #C37226",
",. c #CC7426",
"<. c #C47529",
"1. c #CA7628",
"2. c #C47A29",
"3. c #CD7A2A",
"4. c #D67726",
"5. c #D47C2A",
"6. c #DA7E2A",
"7. c #CC7D32",
"8. c #E47E29",
"9. c #3C8C37",
"0. c #478634",
"q. c #598633",
"w. c #44983B",
"e. c #55993B",
"r. c #6C8630",
"t. c #48A23E",
"y. c #58A93F",
"u. c #429E40",
"i. c #47A742",
"p. c #4BAB42",
"a. c #57A942",
"s. c #4CB245",
"d. c #4CB747",
"f. c #4BB549",
"g. c #4EBA49",
"h. c #53B947",
"j. c #61B144",
"k. c #52C34C",
"l. c #55CB4F",
"z. c #55CD50",
"x. c #B28629",
"c. c #B7992C",
"v. c #B6A12F",
"b. c #BDA42F",
"n. c #B3A232",
"m. c #C68A27",
"M. c #D4812D",
"N. c #DC822C",
"B. c #C6962B",
"V. c #CD8538",
"C. c #D48435",
"Z. c #E3852D",
"A. c #EB852B",
"S. c #E6882F",
"D. c #EB8A2F",
"F. c #F3862B",
"G. c #F38B2E",
"H. c #FC8C2D",
"J. c #E48B32",
"K. c #EC8D32",
"L. c #E88F38",
"P. c #F28E30",
"I. c #E8933A",
"U. c #F59233",
"Y. c #FD9432",
"T. c #FF9B35",
"R. c #F6963B",
"E. c #FE9C3B",
"W. c #C2A72F",
"Q. c #C6AC30",
"!. c #CFAE31",
"~. c #D3B533",
"^. c #D5BB36",
"/. c #DABC35",
"(. c #FFA237",
"). c #FFA33A",
"_. c #FFA93E",
"`. c #E3BC34",
"'. c #DDC338",
"]. c #E4C739",
"[. c #ECCC39",
"{. c #F0CE3A",
"}. c #EED33D",
"|. c #F6D93D",
" X c #FCDC3D",
".X c #FFE53E",
"XX c #C79048",
"oX c #DA9448",
"OX c #EB9947",
"+X c #F59C44",
"@X c #FD9E42",
"#X c #FEA442",
"$X c #FFAC44",
"%X c #F6A34D",
"&X c #FDA34A",
"*X c #FFAB4C",
"=X c #FFB24C",
"-X c #EFA550",
";X c #FAA856",
":X c #FFAC54",
">X c #FFB353",
",X c #FFB856",
"<X c #FFB45B",
"1X c #FFB95C",
"2X c #FEAF61",
"3X c #FEB563",
"4X c #FFBB61",
"5X c #FEB56A",
"6X c #FFBC6B",
"7X c #FCB976",
"8X c #F6DD40",
"9X c #FFEB41",
"0X c #FFF143",
"qX c #FFC46C",
"wX c #FFC575",
"eX c #FFC87A",
"rX c #F6BF89",
"tX c #FDC588",
"yX c #FFD38A",
"uX c #FDC994",
"iX c #FFD898",
"pX c #FFDBA5",
"aX c #FFE7BB",
"sX c #FFF2CF",
"dX c #FEF8E8",
/* pixels */
"                                  .   & 1 k O.%.V.C.6.7.6.*.=.| k 1 .                                     ",
"                              . & ..-X*X_._.#X+X&X%XOXOXOXR.@X&X&X:X:XOX` *                               ",
"                          . 1 XX4X,X3X4X=X$X_._.*X=X1X3X;X@X)._._.$X:X1X4X:X=.#                           ",
"                        @ x.;X#X_.qXyXwX=X_._._.=X>X=X$X#XE.*X:X$X_.(._.<X6X6X%X`                         ",
"                      1 -X:X)._.1XeXqX$X=XqXqXqX,X1X,X>X$XE.%X6XyXeX:X(.E.).#X;X%XV.#                     ",
"                    d OX:X$X4XqX,X=X_.$XqXiXqXqX$X_._._._.E.T.#X1XeX<X_.(.#XE.:X7X%XI.*                   ",
"                  s #X#X_.1XwX,X(.(.(.).,XqXqX_._._.$X).(.(.(.T.(.(.(.(.#X7X3X&X5XrX+XI.&                 ",
"                $ OX5X<X*X<X#X*X_.(.(.)._.(.(._.=XiXwX*X(._.1X:XE.(.T.E.E.eXpX2X+X%XOXI.V..               ",
"              X 7.5XeX:X*X#X#XyXeX*X(.1XiXiX,X).=XqXwX*X(.$XiXpXE.T.E.T.T.:X5X+XU.I.I.I.oXO.              ",
"              I +X&X*X&X#XT.wXdXsX6X*XpXaXiX4X).)._.#X(.(.(.*X3XT.T.T.T.T.E.T.U.U.K.J.I.oXoX1             ",
"            X 8.Y.T.&X:X:XE.7XsXpX<X#X4XqX*X(.T.T.(.T.(.(.T.E.E.@XE.T.Y.Y.U.&XrX-XK.J.L.OXoX=.            ",
"            f H.H.E.&XtX3XT.E.:X#XE.T.T.T.T.T.T.T.T.E.*X<X*XT.T.rXpX@XT.Y.R.uXdXtXL.J.J.C.oXoX1           ",
"          . 8.H.Y.Y.@X&X@XY.T.Y.T.T.Y.E.E.T.T.T.T.T.@X6XaXuX@XT.7XdX7XY.U.R.;X7X-XL.J.N.C.oXoX%.          ",
"          - F.H.H.H.H.H.H.H.H.Y.Y.Y.@X:X:X@XY.T.Y.Y.E.;XaXpX2XY.U.uXtXU.P.K.K.I.L.N.C.N.M.V.XX7.X         ",
"          E H.H.H.H.H.H.H.H.Y.Y.H.Y.3XiX7X@XY.Y.Y.Y.T.@X3X7X&XY.K.R.+XU.P.K.K.S.Z.J.N.N.M.V.V.7.d         ",
"          4.F.F.H.F.F.P.P.H.P.P.P.H.+X2X&XU.Y.Y.Y.Y.H.Y.Y.R.R.P.P.K.P.D.D.D.S.J.N.N.N.C.M.3.2.2.`         ",
"        X 4.F.8.A.F.F.F.G.D.G.G.P.P.P.P.U.P.P.U.P.Y.P.P.P.P.P.P.K.Z.A.K.A.S.J.N.N.N.5.5.7.3.2.*.O.        ",
"        $ 4.8.8.A.A.A.A.A.D.A.D.D.D.D.G.G.D.G.D.P.D.G.D.P.P.D.D.K.N.Z.Z.Z.N.N.N.N.M.M.3.2.2.2.*.O..       ",
"        $ :.8.8.8.Z.Z.Z.Z.Z.Z.Z.Z.S.S.D.A.D.D.D.D.D.D.D.S.S.S.S.S.6.N.Z.N.N.N.5.6.7.3.2.<.<.*.O.| O       ",
"      y q.-.4.4.4.4.6.Z.6.8.8.Z.Z.Z.8.Z.Z.Z.Z.Z.S.S.Z.Z.Z.Z.Z.Z.N.5.N.6.N.5.5.5.1.2.1.<.&.*.*.+.| .       ",
"    t g.a.~ ;.:.4.4.4.5.5.6.5.6.6.6.6.6.6.N.N.Z.Z.N.N.N.N.N.N.5.5.1.5.5.5.1.3.1.1.>.*.&.$.@.+.| ' . % %   ",
". y d.k.s.R ) ;.:.>.,.,.,.4.3.3.3.5.5.5.5.6.5.5.5.6.5.5.5.5.5.3.1.>.1.3.3.>.>.>.$.$.@.@.o.O.Q W k a.g.u.  ",
"i j.h.y.f.r.E ^ +.#._ ;.;.>.>.>.,.,.,.1.1.1.1.1.,.1.1.1.1.,.,.>.<.$.$.>.&.&.$.@.@.+.o.o.X.] ' k x f.f.k.o ",
"y 0.9.p k.s.t.` E ^ ) ) ) @._ $.$.$.$.$.;.$.>.;.>.>.>.&.>.&.&.$.$.o.@.@.@.@.o.[ ] ] ] ] ' Y k q.i.f.f.g.a ",
"  o % + h.g.f.p.q.v v R E ~ ~ o.{ +.) ) o.o.+.+.@.@.@.@.@.+.+.o.o.] [ [ [ ~ E R } r.b c x 0.i.p.i.p i.f.f.",
"        y w.a.j.h.p.s.h.q.b c v T Y Y R | ..Q Q ~ ~ ~ Q Q Q } ..R Y Y } Y g c e.a i u i u.i.i.i.i.% t a a ",
"          V c a.9.y i t.f.f.d.s.s.h.a.t.w.9.w.a.q.q.x q.q.e.k.t.p.a.a.u.u.p.p.z 0 2 s y i f.f.u.f.r   o o ",
"        O J K h s B F g f.g.p.a p 9.9.i s j 2 0.f.k.k.k.k.k.k.s 0 l p u a h.p.Z M m n C r.q.i p f.p..     ",
"        , L K K H N N N x t.z 2 w = = = n m m B y.k.l.z.l.l.t.V N N M V h u.x G N N m 9 ^.^.^.x 9.f.o     ",
"        g J K K K N N N V B n n n = = = = n m m c l.l.z.l.y.c H N N G N V e F H N N m B '.'.'.'...+       ",
"        ( K K K H H N N M M m n n n E x.x.F n V B h z z h f G H H K K N N K K H G G m w ^.'.}.'.h         ",
"         .-.N K H N N M m V F ) c.!./.~./.`.~.B.) &.! V V M V G N K K H K K H H G m n %.'.].8Xn.0         ",
"        x.|.;./ / ! _ 2.B.`.[.[.{.{.{.{.{.{.[.].'.'.'././.!.m.B.m.&._ / / ! J U ! ^ W.'.|.|.'.} A -       ",
"        c..X.X.X X X X X.X X X X|.{.]./.~.Q.b.b.b.b.b.b.b.b.W.b.b.W.!.~.'.'.[.[.|. X}..X.X|.v.f w <       ",
"        m..X0X.X.X.X.X.X.X{.'.~.Q.v.x. .W Y P P P C C P P P f f P Y T  . .b.Q.!./.].|..X9X}.( e q <       ",
"        T 0X0X0X.X.X|.'.!.B. .Y P A A D U S U U D D D D S U U A U A U U P C 8 Y  .x.Q.~.~.v.f 7 q $       ",
"        s .X.X|.[.~.x.( P 8 w A S S D F D D U U U D D D D U U U U S A U 8 C C 8 7 7 e T  .T q 6 5 O       ",
"        O ~./.W. .P 8 7 7 8 C S S D S S D S S S D D S S S S A U S A U A A 8 8 8 q 7 7 6 6 6 5 0 > .       ",
"          g T 7 5 5 5 7 8 w C C Z C S A A A S A C A C C C C C C C A C C C 8 8 8 7 7 5 6 5 5 4 < -         ",
"          Q P 5 5 4 5 6 7 8 8 C C C A A A A A w C C C C C 8 w C 8 8 8 8 7 7 7 7 6 6 5 5 3 < 9 +.f         ",
"          I 6.[ f : : 3 5 7 8 8 q w C C w C C B 8 8 w q w q q q 8 7 7 7 q 5 5 5 4 > 3 : > Y 6.N.d         ",
"          e :.8.Z.,.P 4 : 4 4 5 5 9 5 6 6 5 6 6 6 6 6 6 6 6 6 5 4 4 4 > : : : : ; ; 0 @.N.Z.3.O.,         ",
"          < -.:.:.4.N.6.3.Y q ; ; ; ; ; ; ; 3 3 3 3 > : : : ; ; ; - ; ; > 9 0 P ~ 1.N.3.*.O.] ' *         ",
"          & _ ;.-.;.&.;.:.,.5.N.6.6.5.5.>.>.+.' P e e P R [ X.@.$.$.1.M.N.M.M.3.>.&.@.o.X.] ] ' O         ",
"          X o.;.#.;.;.;.;.>.;.>.>.>.>.,.1.1.1.5.5.6.6.6.6.5.5.1.>.$.>.>.$.$.@.@.@.+.o.X.X.] ] I .         ",
"            0 #.#.#.#.#.$.;.$.>.>.>.,.>.,.>.1.,.>.>.>.>.>.>.>.&.>.+.*.$.$.$.@.@.+.o.o.X.] ] ' ,           ",
"            O [ _ +.+.+.#.#.$.$.$.$.;.>.>.>.<.>.>.>.>.>.>.&.&.>.$.+.$.$.@.@.+.o.O.[ [ ] ] ' Y X           ",
"              - { ^ o.^ o.+.) @.$.@.$.$.$.$.$.$.&.$.$.$.$.$.$.@.@.o.@.o.o.o.o.[ ] ] E R R R *             ",
"                - [ [ X.~ ^ o.^ o.o.+.+.+.@.@.@.@.+.@.@.@.+.o.+.o.X.o.[ [ [ Q Q R R R R I -               ",
"                  O 0 [ Q ~ Q ~ ~ ~ ~ ~ [ [ o.~ o.[ ~ [ [ ~ ~ ~ Q ' Q Q R R R R ' Y I 2 O                 ",
"                      X < Y ] E Q Q Q Q E E E E Q E E E E E E R R Y R R R R Y R f - .                     ",
"                            O * - 0 I R E E R R R R R R R R Y Y I I I 0 0 - #                             ",
"                                          X @ @ # # # # # # @ O X .                                       "
};
