/* XPM */
static char *b8364aaed4204a3382f6bb45dcd8a6cfUOU1whjuQl3KqXLx[] = {
/* columns rows colors chars-per-pixel */
"40 40 118 2 ",
"   c #000001",
".  c #0B0000",
"X  c #060709",
"o  c #0A0A0C",
"O  c #05140D",
"+  c #120810",
"@  c #0C1512",
"#  c #091A12",
"$  c #131414",
"%  c #111A15",
"&  c #161618",
"*  c #131D19",
"=  c #1B1C1C",
"-  c #0D2118",
";  c #14231D",
":  c #1B231E",
">  c #1F2022",
",  c #252525",
"<  c #222D27",
"1  c #262628",
"2  c #27282A",
"3  c #2A2B2B",
"4  c #373739",
"5  c #3A3A3B",
"6  c #204031",
"7  c #2D443A",
"8  c #3E3E40",
"9  c #265941",
"0  c #285A41",
"q  c #2E624B",
"w  c #34634D",
"e  c #366650",
"r  c #376950",
"t  c #37735A",
"y  c #3F775C",
"u  c #404241",
"i  c #424846",
"p  c #47484A",
"a  c #4C4C4E",
"s  c #574D55",
"d  c gray33",
"f  c #575759",
"g  c #58595B",
"h  c #5E5F61",
"j  c #655F61",
"k  c #417C61",
"l  c #626163",
"z  c #666867",
"x  c #6C6C6D",
"c  c #6E6F71",
"v  c #726C70",
"b  c #6F7074",
"n  c #757776",
"m  c #717C76",
"M  c #767779",
"N  c #7B7C7D",
"B  c #807E7F",
"V  c #4C8F70",
"C  c #5B8672",
"Z  c #4D9B78",
"A  c #519475",
"S  c #509A77",
"D  c #539D7C",
"F  c #589979",
"G  c #608774",
"H  c #55A27E",
"J  c #7F8583",
"K  c #55A381",
"L  c #5AA582",
"P  c #5BA985",
"I  c #63B58F",
"U  c #64B791",
"Y  c #65B993",
"T  c #6BBE98",
"R  c #69C197",
"E  c #6CC69D",
"W  c #6EC99E",
"Q  c #70C99E",
"!  c #6DC7A1",
"~  c #6ECBA1",
"^  c #71CDA2",
"/  c #6FD0A3",
"(  c #74D0A7",
")  c #77D7AA",
"_  c #79D7AB",
"`  c #77D8AB",
"'  c #78D9AC",
"]  c #848585",
"[  c #868789",
"{  c #8A8C8E",
"}  c #8E8E90",
"|  c #8E9192",
" . c #919394",
".. c #969895",
"X. c #9A9C9D",
"o. c #81A291",
"O. c #9D9EA0",
"+. c #9FA2A3",
"@. c #A3A4A5",
"#. c #A4A8A7",
"$. c #A6A7A9",
"%. c #A7A8AA",
"&. c #AAAAAC",
"*. c #ADAEB0",
"=. c #AFB1B0",
"-. c #B2B3B4",
";. c #BCBCBD",
":. c gray77",
">. c #C9C9C7",
",. c #C7C7C9",
"<. c #CBCBCB",
"1. c #CFD1D0",
"2. c #D1D2D3",
"3. c #DEDFDE",
"4. c #E3E3E3",
"5. c #EBEBEB",
"6. c #F2F1F2",
"7. c #FEFEFE",
/* pixels */
"W W W W W W W W W W W W W W W W W W W W W W W W W W W W W W W W W W W W W W W W ",
"W W W W W W W W W W W W W W W W W W W W W W W W W W W W W W W W W W W W W W W W ",
"W W W W W W W W W W W W W W W W W W W W W W W W W W W W W W W W W W W ! W W W W ",
"W W W W W W W W W W W W W W W W W W W W W W W W W W W W W W W W W W W W W W W W ",
"W W W W W W W W W W W W W W W W W W W W W W W W W W W W W W W W W W W W W W W W ",
"W W W W W W W W W W W W W W W W W W W W W W W W W W W W W W W ~ W W W W W W W W ",
"W W W W W W W W W W W W W W W W W W W W W W W W W W W W W W W W W W W W W W W W ",
"W W W W W W W W W W W W W W W W W W E W E E W E W W W W W W W W W W W W W W W W ",
"W W W W W W W W W Q W W W W W W / ~ ^ ^ ^ ~ ^ ^ W W W W W E W W W W W W W W W W ",
"W W W W W W W W W W W W W E E E R U Y Y Y Y U R E E W W W ^ E W W W W W W W W W ",
"W W W W W W W W W W W W W ( ^ _ P   - - # ;   L ` / ^ ! ~ Q Q W W W W W W W W W ",
"W W W W W W W W W ! Q ! W P A H k             t K A P W W ! W W W W W W W W W W ",
"W W Q W W W W W W W W W ( w     .     u # p <       w ( Q E W W W W W W W W W W ",
"W W W W W W W W W W ( P r 6   : %   <.&.B =.;.6.i   7 w L ( E W W W W W W W W W ",
"W W W W W W W W W W ~ A     *     -.;.  , 3 4.;.  >     V / E W W W W W W W W W ",
"W W W W W W W W W W ) L   ; &   >.6.[ ] 4 1.;.  5   ;   D ` W W W W W W W W W W ",
"W W W W W W W E W E P k   ,   a 4.5.6.7.;.7.2.3.x   3   y P T W W W W W W W W W ",
"W W W W W W W W Q Y     O           @.7.@. .=.@.3   $ O     I ^ E W W W W W W W ",
"W W W W W W W W ^ Y #       X   $   h -.d         o   O   # U ^ ! W W W W W W W ",
"W W W W W W W E ^ Y   + 3 o       X =   = 5 3 2 X   X :     Y ^ E W W W W W W W ",
"W W W W W W W W ^ Y #       &   ,   2.7.@.M       o       @ Y ^ W W W W W W W W ",
"W W W W W W W W ^ T   l X.a   % 1   ,.5.&.]   o $   3 h 5   U ^ E W W W W W W W ",
"W W W W W W W W ^ T   -.7.]         N O.@.[         a *.v   U ^ W W W W W W W W ",
"W W W W W Q W E ! E Z o.@.:.<.>.>.<.} g z x N N N N M l C K T ^ W W W W W W W W ",
"W W W W W W W W W W ) Z   4.7.7.7.7.O.    f @.@.@.%.|   Z ' ! W W W W W W W W W ",
"W W W W W W W W W E W F   | ;.7.7.7.7.5.@. .+.X.O.$.}   V ^ E W W W W W W W W W ",
"W W W W W W W W W W ( L 0 m ..3.5.5.6.5.@.O.@.| { } J 9 L ^ E W W W W W W W W W ",
"W W W W W W W W W W W W ( q     s O.X.O.+.+.@.j     9 / ^ E W W W W W W W W W W ",
"W W W W W W W W W W W W Q P A S G x c b n x x C D A L W E W W W W W W W W W W W ",
"W W W W W W W W W W W W W ~ W _ L             H _ ~ ^ ! ! W W W W W W Q W W W W ",
"W W W W W W W W W W W W W W E W R Y Y Y Y Y Y T W W W W ~ W W ! W W W W W W W W ",
"W W W W W W W W W W W W W W W ! ^ ^ ^ ^ ~ ^ ^ W W W W W W W W W W W W W W W W W ",
"W W W W W W W W W W W W Q W W W W W W W W E W E W W W W W W W W W W W W W W W W ",
"W W W Q W W W W W W W W W W W W W W W W W W W W W W W W W W W W W W W W W W W W ",
"W W W W W W W W W W W W W W W W W W W W W W W W W W W W W W W W W W W W W W W W ",
"W W W W W W W W W W W W W W W W W W W W W W W W W W W W W W W W W W W W W W W W ",
"W W W W W W W W W W W W W W W W W Q W W W W W W W W W W W W W W W W W W W W W W ",
"W W W W W W W W W W W W W W W W W W W W W W W W W W W W W W W W W W W W W W W W ",
"W W W W W W W W W W W W W W W W W W W W W W W W W W W W W W W W W W W W W W W W ",
"W W W W W W W W W W W W W W W W W W W W W W W W W W W W W W W W W W W W W W W W "
};
