/* XPM */
static char *f3bd3efd95914e849f6324904a724b8fV8Hm3DPrL8LtrJd7[] = {
/* columns rows colors chars-per-pixel */
"40 40 201 2 ",
"   c #000000",
".  c #010115",
"X  c #240000",
"o  c #270700",
"O  c #350001",
"+  c #3C0001",
"@  c #00231D",
"#  c #192F0C",
"$  c #3E2206",
"%  c #00052D",
"&  c #001B36",
"*  c #10003F",
"=  c #00223B",
"-  c #460001",
";  c #51000F",
":  c #570100",
">  c #510011",
",  c #530C1E",
"<  c #730100",
"1  c #67001E",
"2  c #541126",
"3  c #54072F",
"4  c #650020",
"5  c #492D26",
"6  c #5D282A",
"7  c #6E2334",
"8  c #64393E",
"9  c #1E432D",
"0  c #43443C",
"q  c #704C35",
"w  c #010C49",
"e  c #160049",
"r  c #01005C",
"t  c #000057",
"y  c #291E58",
"u  c #01255E",
"i  c #273D52",
"p  c #2A255C",
"a  c #002973",
"s  c #123376",
"d  c #2D3B79",
"f  c #2F346A",
"g  c #5E305E",
"h  c #633D42",
"j  c #403E6F",
"k  c #613361",
"l  c #344A58",
"z  c #33534B",
"x  c #3A715C",
"c  c #324661",
"v  c #3C457A",
"b  c #397C62",
"n  c #3B6A62",
"m  c #4B5B48",
"M  c #674545",
"N  c #62574E",
"B  c #734A58",
"V  c #417C5C",
"C  c #514766",
"Z  c #434776",
"A  c #43406F",
"S  c #71596B",
"D  c #735574",
"F  c #577E61",
"G  c #6F6F4D",
"H  c #921014",
"J  c #BC0000",
"K  c #BF180E",
"L  c #8A2006",
"P  c #9A0022",
"I  c #93383D",
"U  c #843D3B",
"Y  c #A92931",
"T  c #AD3832",
"R  c #BD363C",
"E  c #BA3C3D",
"W  c #B93131",
"Q  c #AE272D",
"!  c #C01B15",
"~  c #C22828",
"^  c #C13B3B",
"/  c #C32E30",
"(  c #8A5D37",
")  c #84403D",
"_  c #B3433A",
"`  c #C9473F",
"'  c #F5542A",
"]  c #E15233",
"[  c #EF4A1C",
"{  c #983A4F",
"}  c #B63C4A",
"|  c #AD3C4E",
" . c #C23D40",
".. c #BC4249",
"X. c #BC4951",
"o. c #936147",
"O. c #846353",
"+. c #9F6657",
"@. c #AB6D5D",
"#. c #AA6756",
"$. c #AF745C",
"%. c #8F7B62",
"&. c #996973",
"*. c #B47563",
"=. c #A16A76",
"-. c #BC6773",
";. c #B17A76",
":. c #91524A",
">. c #CC4643",
",. c #D25846",
"<. c #D95247",
"1. c #CD4E44",
"2. c #E55746",
"3. c #F75F40",
"4. c #EC604C",
"5. c #F4664E",
"6. c #F46550",
"7. c #F66953",
"8. c #FB6B53",
"9. c #C16977",
"0. c #368467",
"q. c #2E8768",
"w. c #4C9576",
"e. c #559F7D",
"r. c #4A8A6B",
"t. c #658169",
"y. c #648A70",
"u. c #70987A",
"i. c #B18054",
"p. c #89846E",
"a. c #B08D7A",
"s. c #C4846D",
"d. c #D18A6F",
"f. c #CD8770",
"g. c #D38C73",
"h. c #CA9778",
"j. c #D89377",
"k. c #F1817A",
"l. c #E39879",
"z. c #CEA27D",
"x. c #465485",
"c. c #507584",
"v. c #59789D",
"b. c #4C7082",
"n. c #7D798E",
"m. c #6B7388",
"M. c #587FA0",
"N. c #B87F92",
"B. c #55829A",
"V. c #6F9D80",
"C. c #5EAE89",
"Z. c #51A784",
"A. c #57AC87",
"S. c #66AA87",
"D. c #6DB28C",
"F. c #62B28B",
"G. c #71B28E",
"H. c #66BA93",
"J. c #6CBC96",
"K. c #68BB94",
"L. c #73B993",
"P. c #5A83A3",
"I. c #628EA7",
"U. c #6DC69C",
"Y. c #6EC99E",
"T. c #69C096",
"R. c #70C99E",
"E. c #70C49D",
"W. c #6ECBA2",
"Q. c #6CC7A0",
"!. c #71CDA3",
"~. c #77C8A2",
"^. c #6ED3A7",
"/. c #74D2A6",
"(. c #77D5A9",
"). c #75A8C3",
"_. c #B88FA5",
"`. c #B292AA",
"'. c #B99CB2",
"]. c #D0959D",
"[. c #F49594",
"{. c #CCA487",
"}. c #DFAA83",
"|. c #ECB38E",
" X c #E5B395",
".X c #EBBC96",
"XX c #EFB18B",
"oX c #C592A1",
"OX c #DAB1B7",
"+X c #FCC79B",
"@X c #B0AFC1",
"#X c #B7BAD2",
"$X c #B2B9D4",
"%X c #E8BDC6",
"&X c #AFC0DC",
"*X c #BCC2D5",
"=X c #D8C0CE",
"-X c #D4D6E4",
";X c #E9EAF8",
":X c #EBF9FF",
">X c #F2F0FB",
/* pixels */
"Y.Y.Y.Y.Y.Y.Y.Y.W.Y.Y.Y.Y.Y.Y.Y.Y.Y.Y.Y.Y.Y.Y.Y.Y.Y.Y.Y.Y.Y.Y.Y.Y.Y.Y.Y.Y.Y.Y.Y.",
"Y.Y.Y.Y.Y.Y.Y.Y.Y.Y.Y.Y.Y.Y.Y.Y.Y.Y.Y.Y.Y.Y.Y.Y.Y.Y.Y.Y.Y.Y.Y.Y.Y.Y.Y.Y.Y.Y.Y.Y.",
"Y.Y.Y.Y.Y.Y.Y.Y.Y.Y.Y.Y.Y.Y.Y.Y.Y.U.Y.U.Q.W.W.Y.Y.U.W.R.Y.Y.Y.Y.R.Y.Y.Y.Y.Y.Y.Y.",
"Y.Y.Y.Y.Y.Y.Y.Y.U.U.Y.Y.Y.Y.^.W.!.^.!.W.!.!.!.!.W.^.Y.Y.W.W.R.U.Y.Y.Y.Y.Y.Y.Y.Y.",
"Y.W.Y.Y.R.Y.Y.Y.R.Y.Y.Y.!.L.S.D.D.D.D.D.D.D.G.D.G.D.J.R.Y.Y.R.Y.Y.Y.Y.Y.Y.Y.Y.Y.",
"Y.Y.Y.Y.Y.Y.Y.Y.Y.Y.W.Y.^.S.: , > > > > > > > > , : S./.U.Y.Y.Y.Y.Y.Y.Y.Y.Y.Y.Y.",
"Y.Y.Y.Y.Y.Y.Y.Y.Y.Y.R.E.y.O.Y 1.,.,.,.,.,.,.,.,.1.Y O.y.U.W.Y.Y.Y.Y.Y.Y.Y.Y.Y.Y.",
"Y.Y.Y.Y.Y.Y.Y.Y.Y.Y.Y.T.6 P 1.5.8.8.8.8.8.8.8.8.5.>.P 6 J.W.U.Y.Y.Y.Y.Y.Y.Y.Y.Y.",
"Y.Y.Y.Y.Y.Y.Y.Y.Y.Y.!.R.0 _ 5.5.6.6.7.7.5.5.5.5.5.8._ 0 Y.W.U.W.Y.Y.Y.Y.Y.Y.Y.Y.",
"Y.R.Y.Y.Y.R.Y.Y.Y.!.D.u.U ` 8.5.6.6.6.7.5.5.5.5.5.8.>.U u.D.Y.Y.Y.Y.Y.Y.Y.Y.Y.Y.",
"Y.Y.Y.Y.Y.Y.Y.Y.Y.!.t.< E <.7.6.7.6.7.7.8.8.5.5.5.7.<.^ < F W.Y.Y.Y.Y.Y.Y.Y.Y.Y.",
"Y.Y.Y.Y.Y.Y.Y.Y.U.!.r.- } ^ >.4.8.7.' ' ' 3.8.8.3.>. .} - r.!.W.Y.Y.Y.Y.Y.Y.Y.Y.",
"Y.Y.Y.Y.Y.Y.Y.Y.Y.!.0.O ..R R 2.4.2.[.[.[.k.2.2.<.R R ` O 0.^.W.U.Y.Y.Y.Y.Y.Y.Y.",
"Y.Y.Y.Y.Y.Y.Y.Y.R./.0.X _ / K  .>.J =X;X:X=X! ^ } K / _ X 0./.U.U.Y.Y.Y.Y.Y.Y.Y.",
"Y.Y.Y.Y.Y.R.Y.!.H.b G ( L =.'.} X.`.oX].oXoX`.} >.'.=.L ( G b K./.Y.Y.Y.Y.Y.Y.Y.",
"Y.Y.Y.!.Y.Y.U.!.C.  ( i.: n.$X-.-.$XN.J J N.&X-.-.$Xn.: $.(   F.R.Y.Y.Y.Y.Y.Y.Y.",
"Y.Y.Y.Y.Y.Y.U.!.F.  $.j.- w d -X>X;X;X;X>X;X;X:X-Xd w $ j.@.  F./.U.Y.Y.Y.Y.Y.Y.",
"Y.Y.Y.Y.Y.Y.Y./.H.0.%.@.5 M &.@X*X#X#X#X#X#X#X=X@X&.M 5 @.%.b K./.Y.Y.Y.U.Y.Y.Y.",
"Y.Y.Y.Y.Y.Y.Y.Y.Y.(.q.  M $.l.k t r t r r r r r g j.@.h   q.(.W.Y.Y.Y.Y.Y.Y.Y.Y.",
"Y.Y.Y.Y.Y.Y.Y.Y.U.!.0.+ s.g.g.|.{.% a..X Xa.% {. Xf.g.s.O b !.Q.Y.Y.Y.Y.Y.Y.Y.Y.",
"Y.Y.Y.R.Y.Y.Y.Y.Y.!.w.m 9.d.d..X}.  h.+X+Xh.  }.XXd.g.i.m w.~.U.Y.Y.Y.Y.W.Y.Y.Y.",
"Y.Y.Y.Y.Y.Y.Y.R.Y.U./.~.M +.l.j.f.3 {..X+Xh.3 s.l.}.#.M (./.U.Y.Y.Y.R.Y.Y.Y.Y.Y.",
"Y.Y.Y.Y.Y.R.Y.Y.Y.R.Z.x C B o.#.@.*.j.XXXXj.*.@.+.:.B C b Z.!.W.Y.Y.Y.Y.Y.Y.Y.Y.",
"Y.Y.Y.Y.Y.Y.Y.Y.E.E.r.+ x.u   2 :.g.g.f.s.f.g.:.2   u Z O F R.U.Y.Y.Y.Y.Y.Y.Y.Y.",
"Y.Y.Y.Y.Y.Y.R.!.L.h {..Xd a Z } T @ X O O o @ T } Z a f .Xz.M G.!.Y.Y.Y.Y.Y.Y.Y.",
"Y.Y.Y.Y.Y.Y.Y.^.G.4 g.|.&.D s | W < S m.m.S < W } s S =.|.g.1 G.W.Y.U.Y.Y.Y.Y.Y.",
"Y.Y.Y.Y.W.Y.Y.W.G.7 *.g.l.*.a ..E ! `.$X$X_.~ ^ | a N.l.j.*.7 D.W.Y.Y.Y.Y.Y.Y.Y.",
"Y.Y.Y.Y.Y.Y.U.W.Q.K.%.I q 5 . Q 1.[ %X;X;X%X' 1.Y . 5 q I p.K.U.Y.U.Y.!.Y.Y.Y.Y.",
"Y.Y.R.Y.Y.Y.!.U.W.^.V.N & & l { X.] OX-X-XOX] X.{ l = % N u.^.Y.Y.Y.Y.Y.Y.U.Y.Y.",
"Y.Y.Y.Y.Y.Y.W.Y.U.U.Y.~.Z v.).x.e             e x.).v.Z R.R.Y.Y.Y.Y.Y.Y.Y.Y.Y.Y.",
"Y.Y.Y.Y.Y.Y.Y.Y.W.U.W.U.i l c.P.P.P.c     l v.P.B.b.c i U.Y.Y.Y.Y.Y.Y.Y.Y.Y.Y.Y.",
"Y.Y.Y.Y.Y.U.Y.Y.Y.U.W.T.9     I.).).c.# # c.).).I.    9 T.W.Y.Y.Y.Y.Y.Y.Y.Y.Y.Y.",
"Y.Y.Y.Y.Y.Y.W.Y.Y.U.W.T.  * v Z v   w.U.U.w.  v Z v e   T.!.Y.Y.Y.Y.Y.Y.Y.Y.Y.Y.",
"Y.Y.Y.Y.Y.Y.Y.Y.Y.Y.Y.U.w.n p y l 0.F.!.!.F.0.z p p n r.U.W.U.Y.Y.Y.Y.Y.Y.Y.Y.Y.",
"Y.Y.Y.Y.Y.Y.Y.Y.Y.Y.Y.U.(.e.    z ^.W.Q.U.Y./.z     e./.U.Y.Y.Y.Y.Y.Y.Y.Y.Y.R.Y.",
"Y.Y.Y.Y.Y.Y.Y.Y.Y.Y.Y.U.W.T.C.F.F.Y.Y.Y.Y.Y.Y.F.C.C.K.!.Y.Y.Y.Y.Y.Y.Y.Y.Y.Y.Y.Y.",
"Y.Y.Y.Y.Y.Y.R.Y.Y.Y.Y.Y.U.!.W.W.Y.Y.R.R.Y.Y.Y.Y./.W.W.Y.Y.Y.Y.Y.Y.Y.Y.Y.Y.Y.Y.Y.",
"Y.R.Y.Y.Y.Y.Y.Y.Y.Y.Y.Y.Y.Y.U.W.Y.Y.Y.Y.Y.Y.Y.U.Y.Y.Y.Y.Y.Y.Y.Y.Y.W.Y.Y.Y.Y.Y.Y.",
"Y.Y.Y.Y.Y.Y.Y.Y.R.Y.W.Y.Y.Y.W.Y.Y.Y.Y.R.Y.Y.Y.Y.Y.Y.W.U.Y.Y.Y.Y.Y.Y.Y.Y.Y.Y.Y.Y.",
"Y.Y.Y.Y.Y.Y.Y.Y.Y.Y.Y.Y.Y.Y.U.Y.Y.Y.Y.Y.Y.Y.Y.Y.Y.Y.Y.Y.Y.Y.Y.Y.Y.Y.Y.Y.Y.Y.Y.Y."
};
