/* XPM */
static char *result[] = {
/* columns rows colors chars-per-pixel */
"53 53 235 2 ",
"   c #000000",
".  c #0B0705",
"X  c #0C0B0B",
"o  c #140E0C",
"O  c #14110F",
"+  c #131312",
"@  c #191514",
"#  c #1A1818",
"$  c #1B1A1A",
"%  c #221C1A",
"&  c #391710",
"*  c #3D281A",
"=  c #272524",
"-  c #2D2B2A",
";  c #342B26",
":  c #322D2B",
">  c #38312F",
",  c #343232",
"<  c #3B3534",
"1  c #3C3836",
"2  c #3C3A3A",
"3  c #4F1E14",
"4  c #4A2718",
"5  c #582615",
"6  c #4F3119",
"7  c #742D1D",
"8  c #532E23",
"9  c #473C36",
"0  c #423D3B",
"q  c #683527",
"w  c #7A3420",
"e  c #45423F",
"r  c #4A413D",
"t  c #56473A",
"y  c #70513D",
"u  c #263446",
"i  c #3A3E46",
"p  c #2A3C59",
"a  c #313E52",
"s  c #263E65",
"d  c #3F4459",
"f  c #2C4160",
"g  c #25416D",
"h  c #2C446C",
"j  c #374768",
"k  c #294674",
"l  c #2D4874",
"z  c #334972",
"x  c #324D7A",
"c  c #3B5278",
"v  c #494544",
"b  c #4D4B4B",
"n  c #554944",
"m  c #534C4B",
"M  c #55504D",
"N  c #5D524E",
"B  c #4F4C55",
"V  c #5B5555",
"C  c #5A5858",
"Z  c #625147",
"A  c #63554E",
"S  c #75554A",
"D  c #645753",
"F  c #635D5C",
"G  c #6B635C",
"H  c #736951",
"J  c #45587A",
"K  c #6E5C6C",
"L  c #656263",
"P  c #696564",
"I  c #6B6868",
"U  c #766E6A",
"Y  c #77716D",
"T  c #6A6B74",
"R  c #757373",
"E  c #7B7573",
"W  c #7B7878",
"Q  c #7D7B7B",
"!  c #8E2F1A",
"~  c #81301E",
"^  c #8C321B",
"/  c #8D3D1C",
"(  c #93331C",
")  c #95371C",
"_  c #A6391F",
"`  c #8A3926",
"'  c #983B26",
"]  c #823F30",
"[  c #A23B21",
"{  c #B13E22",
"}  c #90411E",
"|  c #98501F",
" . c #A2511F",
".. c #AE631E",
"X. c #894A24",
"o. c #974524",
"O. c #985527",
"+. c #894737",
"@. c #974A37",
"#. c #985137",
"$. c #BB4425",
"%. c #A95827",
"&. c #B95929",
"*. c #AC5035",
"=. c #9A6637",
"-. c #9C6A34",
";. c #B56324",
":. c #B87326",
">. c #AB6A37",
",. c #C64529",
"<. c #C65A29",
"1. c #CE5333",
"2. c #D7553A",
"3. c #F0502E",
"4. c #E85534",
"5. c #FD5732",
"6. c #F65834",
"7. c #FF5933",
"8. c #C47924",
"9. c #CE702D",
"0. c #DA6B38",
"q. c #CD7538",
"w. c #F2792E",
"e. c #E76534",
"r. c #FD6C33",
"t. c #F96839",
"y. c #E97535",
"u. c #FF7534",
"i. c #FE7B34",
"p. c #FB743C",
"a. c #8B504B",
"s. c #955645",
"d. c #BA5846",
"f. c #A95351",
"g. c #866157",
"h. c #9A6356",
"j. c #B67050",
"k. c #865D6D",
"l. c #88746C",
"z. c #91776D",
"x. c #837A76",
"c. c #A87F70",
"v. c #C55744",
"b. c #CC6B4B",
"n. c #E86F4D",
"m. c #F76845",
"M. c #E97A45",
"N. c #F77847",
"B. c #C27562",
"V. c #B58036",
"C. c #DF8128",
"Z. c #D78434",
"A. c #E7892F",
"S. c #FE8434",
"D. c #FE8D32",
"F. c #FF8B39",
"G. c #FE9437",
"H. c #FF9B34",
"J. c #FFA736",
"K. c #FFB031",
"L. c #9A8250",
"P. c #B58E57",
"I. c #87817D",
"U. c #948872",
"Y. c #AD8876",
"T. c #CD914E",
"R. c #FA914A",
"E. c #FFAB45",
"W. c #EFB44E",
"Q. c #D08C71",
"!. c #ED8562",
"~. c #D8BA65",
"^. c #FCBB69",
"/. c #FFDE5D",
"(. c #F4D46D",
"). c #FAE872",
"_. c #2C4F86",
"`. c #365383",
"'. c #36568C",
"]. c #395889",
"[. c #2E5591",
"{. c #375B97",
"}. c #3B5B93",
"|. c #3F6297",
" X c #3C629C",
".X c #305FA3",
"XX c #3965A2",
"oX c #435E88",
"OX c #485F8B",
"+X c #43618D",
"@X c #4E6689",
"#X c #52698D",
"$X c #426194",
"%X c #42649D",
"&X c #5B6F92",
"*X c #5C7094",
"=X c #69708E",
"-X c #787C85",
";X c #3C7BDB",
":X c #3B7DE2",
">X c #7C879A",
",X c #5685CC",
"<X c #858382",
"1X c #8B8684",
"2X c #8B8787",
"3X c #8C8B8B",
"4X c #948B87",
"5X c #888B91",
"6X c #929091",
"7X c #959494",
"8X c #9B9593",
"9X c #9B9896",
"0X c #9C9B9B",
"qX c #A49C99",
"wX c #B09B90",
"eX c #AEAD89",
"rX c #9A9DA4",
"tX c #A09FA0",
"yX c #A3A2A1",
"uX c #A9A9A7",
"iX c #ACABAB",
"pX c #B3A8A4",
"aX c #A8ACB3",
"sX c #B2B0B2",
"dX c #B5B5B5",
"fX c #BBBCBC",
"gX c #CA9784",
"hX c #C6AD99",
"jX c #CFC893",
"kX c #CBC4B5",
"lX c #BABEC6",
"zX c #BDC3D0",
"xX c #D9D8DD",
"cX c #CEDBF2",
"vX c #ECF3F9",
/* pixels */
"                                                                                                          ",
"                                                                                                          ",
"                                                                                                          ",
"                                                                                                          ",
"                                                                                                          ",
"                                                                                                          ",
"                                                                                                          ",
"                                                                                                          ",
"                                                                                                          ",
"                                                                                                          ",
"                                                                                                          ",
"                                                              X $                                         ",
"                            X & ` 7 5 7 5 3 & %       .       = dXT X                                     ",
"                    : < 7 $.6.7.3.S a p i d v q +.y q 5 6 $   X G 3X+                                     ",
"        % e M M b V B.m.7.7.7.m.4.B s s k g g g g p f d i y y t 4 I.8               X   .                 ",
"    ; A 4XfXfXfXfXn.7.7.7.7.7.7.2.j h [.[.].'.]._.l g g f f f M G 4XN.m.&.O.>.Z.b.!.gXhXyXR =             ",
"  ; A A P tXiXiXgX7.7.7.7.7.7.7.2.j oXXXXX.X[.{.{.{.{.XX{.`.D s L 4XM.4.t.u.u.i.i.p.m.N.^.kXlXB           ",
". Z n n 9 9 M R n.7.7.7.7.7.7.7.v.j @XXX.X_.z g k k _._.[.F 4X{.T yXN.n.u.S.i.r.r.7.6.m.R.(.iXuX-         ",
"X n 9 e G x.W S 5.5.7.7.7.7.7.5.1.z @X{.[.l x z l l g g B F gX_.T qXp.n.D.D.i.u.r.p.r.p.F.W.eX7Xv         ",
". 9 C 0 8XR 0XwX7.7.7.5.7.7.7.7.d.l @X X[.`.x h h z x x V qXz.=Xx.yXm.A.H.D.G.G.i.u.S.D.G.W.).F 2         ",
". > P 5XP L 8XtX6.7.7.7.7.7.7.5.d.z @X X'.`.h p p p f p l.k.d J R tXm.T.D.D.J.E.R.S.D.J.K.W./.U.-         ",
"  ; V -XD V 0XP B.7.7.7.7.5.7.5.v.x @X X'.`.j c c c J OXC d u u G tXp.M.S.S.E.E.E.G.H.K.K.W.(.eX%         ",
"  @ 9 P 5Xx.dXL wX5.7.7.7.7.5.5.v.J @X X{.`.`.OX+X$X%X%X$X*X:X:X5X7XN.y.u.i.G.D.R.D.i.D.K.W.).jX=         ",
"    $ > v x.dXa.kXm.5.5.5.5.5.5.2.J @X{.}.`.`.+XOX$X}.%X}.*X:X:X>X3XN.y.D.D.D.u.7.t.r.S.J.~.).5XrXX       ",
"        o 9 1XI dXQ.6.5.7.7.5.5.4.@X#X X}.].].+X+X|. X}.}.*X:X:X-XE N.y.J.G.i.r.3.4.6.u.E.(.jXL W 2       ",
"          M <XO g.pXd.7.5.5.5.5.3.#X#X X{.].`.+XoX|.%X%X}.*X:X;X=Xx.M.0.w.S.w.w.y.A.A.T.P.T.Y - , b       ",
"        m 6XsXC b pXqXY.,.5.5.5.3.T #X X%X'.`.+XoX$XXXXX{.&X;X,X=Xz.b.<.&.&.;...:.:.-.V.V.-.b - - =       ",
"        I.8XiXG L z.8X2Xs.' ,.3.3.d.&X X%X'.x %X}.$X%X X{.:X:X,XsXuX=.%.%.%.;.8.:.>.O.O.-.L.L.: - , X     ",
"        W Q 7XD C E pXg.' @.s.@.d.,.&.v.v.f.a.k.K T K =X#X,X,XY.T.T.Z.C.C.C.C.A.y.0.q.>.>.-.L.H : = b X   ",
"        x.I Y b m R x.qX' ( ' #.+.h.] ' ( ) { { { { $.&.9.Z.Z.>.8.V.:.8.8.A.H.J.G.N.N.N.(.~.L.L.G , , I   ",
"        G Q 2XP v     8 c.h.! ( ^ ( ' a.#./ O.=.*.O.} | O.8XO.X.| %. ...A.K.H.H.F.N.m.!.jXkXdXeXP.G , 5XX ",
"        , kXzXfXlXaX-XI c.s.h.@.( ! ^ ~ w ^ / X.} o.} } } #.` w / ) [ 0.F.D.w.e.e.Q.pXdXiXaXaXuXuXU.U C X ",
"      + ; N W 2X9XsXaX7X5XY ' [ ' ( ! ! ! ~ 7 ! ! ^ ^ / } } X.o.} _ ,.1.<.9.,.*.qX1Xx.W x.U.0XrXuXN .     ",
"  . r D D D D D M v <XrX+ . a.' ' ( ( ( ! ! ( ( ' ' o.;.j.P.P.j.c.Y.j.$.$.&. .l.G Z A D D N A iXqXd       ",
"  9 Z A A A A V M m > L ,     * q ` ` ` ` ` ( ] g.l.1X2XI.<X3X3X0X7X4X>.;...=.A t F D m n m m G 0X+       ",
". Z n n F V F 9 n v 0 X B         . & 4 5 5 4 T 0X0X3X0XI.3Xb tXr I U >.;.O.y 9 V K iX<XW M n v ,         ",
"o t n L R I L 2XL 0 0   #                 X - 6XC 6Xb , , % z.Y.9.1.&.;.%.4 ; W m 2 R I m i n 0 <         ",
"X r T < I P P G < I >                 = 2X2X<XR 2X<X9X7X-XC 6X: X.%.%.O.5 . = 5XW m V P W P L 9 :         ",
"X m >XR R I Y E 4X3X:             e <X0XI $         X $ - 2 %               @ -XaXQ F F I > Y < $         ",
". 0 aX6X2XI.2Xx.uX0X=         = <XtXQ e X                                     1 lXzXtXE x.7XsX<           ",
"  @ T cXlXuXfXxXxXV X           C M #                                           i aXvXvXvXxXL +           ",
"    $ C rXlXxX5Xv o                                                               # , L V : X             ",
"        X + o X                                                                                           ",
"                                                                                                          ",
"                                                                                                          ",
"                                                                                                          ",
"                                                                                                          ",
"                                                                                                          ",
"                                                                                                          ",
"                                                                                                          ",
"                                                                                                          ",
"                                                                                                          ",
"                                                                                                          "
};
