/* XPM */
static char *result[] = {
/* columns rows colors chars-per-pixel */
"53 53 234 2 ",
"   c #000000",
".  c #0B0706",
"X  c #0B0A0A",
"o  c #180D0B",
"O  c #16110E",
"+  c #141211",
"@  c #1B1918",
"#  c #37140B",
"$  c #201714",
"%  c #241D1B",
"&  c #25211D",
"*  c #2A211E",
"=  c #242323",
"-  c #2D2522",
";  c #2A2828",
":  c #2C2A2A",
">  c #302724",
",  c #312924",
"<  c #352E2B",
"1  c #35302F",
"2  c #3A312D",
"3  c #3C3532",
"4  c #383839",
"5  c #502416",
"6  c #632D1C",
"7  c #752918",
"8  c #4A3328",
"9  c #433A35",
"0  c #443D39",
"q  c #483E39",
"w  c #43403E",
"e  c #4B423D",
"r  c #57413B",
"t  c #6E4538",
"y  c #3D3D41",
"u  c #2C3E5D",
"i  c #2B3F61",
"p  c #3E424B",
"a  c #2C4264",
"s  c #27416A",
"d  c #2A436A",
"f  c #344A6E",
"g  c #29497C",
"h  c #354C73",
"j  c #334E7B",
"k  c #38537E",
"l  c #424143",
"z  c #4C4542",
"x  c #494848",
"c  c #554A44",
"v  c #554B46",
"b  c #57514B",
"n  c #5C524C",
"m  c #4F5052",
"M  c #585656",
"N  c #62544C",
"B  c #625652",
"V  c #655B54",
"C  c #6B5957",
"Z  c #755457",
"A  c #6A635E",
"S  c #756952",
"D  c #5F5C68",
"F  c #475977",
"G  c #6F5A66",
"H  c #59677E",
"J  c #676565",
"K  c #6C6B6B",
"L  c #736C68",
"P  c #706D70",
"I  c #7A7776",
"U  c #9B3C27",
"Y  c #AA3E26",
"T  c #B73F25",
"R  c #8E4D3A",
"E  c #BD4126",
"W  c #A65234",
"Q  c #AD6E38",
"!  c #B96937",
"~  c #B77939",
"^  c #CA4528",
"/  c #D14727",
"(  c #DC4B2A",
")  c #D5573A",
"_  c #E84F2C",
"`  c #EA512D",
"'  c #ED5837",
"]  c #F55733",
"[  c #FA5633",
"{  c #FE5A34",
"}  c #FE5D39",
"|  c #D66A3A",
" . c #CC7338",
".. c #EA6B39",
"X. c #FC6332",
"o. c #FE6D33",
"O. c #E57A3A",
"+. c #FF7433",
"@. c #FF7B34",
"#. c #F7773B",
"$. c #AE5B4D",
"%. c #997846",
"&. c #937856",
"*. c #A37C47",
"=. c #B0704F",
"-. c #886369",
";. c #887667",
":. c #847D79",
">. c #B37769",
",. c #C35C48",
"<. c #E65E41",
"1. c #C87D45",
"2. c #D6744D",
"3. c #E36946",
"4. c #F96945",
"5. c #E87746",
"6. c #FB7449",
"7. c #EB7757",
"8. c #C17A6A",
"9. c #D78737",
"0. c #E98B35",
"q. c #FF8334",
"w. c #FE8C34",
"e. c #FA873C",
"r. c #E89034",
"t. c #FE9435",
"y. c #FF9A35",
"u. c #FE933A",
"i. c #FC9A3A",
"p. c #FEA636",
"a. c #FEA23A",
"s. c #FFB336",
"d. c #FFC33E",
"f. c #98804D",
"g. c #988757",
"h. c #B78548",
"j. c #A58B55",
"k. c #B38C54",
"l. c #8F846F",
"z. c #968B69",
"x. c #AA9669",
"c. c #AC8A76",
"v. c #A99875",
"b. c #BCA161",
"n. c #D18B4D",
"m. c #C6954D",
"M. c #E88745",
"N. c #FD8744",
"B. c #FE9B46",
"V. c #F0934D",
"C. c #D1A55A",
"Z. c #FEA745",
"A. c #F8AD56",
"S. c #E8B857",
"D. c #C9876E",
"F. c #D2936D",
"G. c #C38A73",
"H. c #EE8965",
"J. c #CBB36C",
"K. c #F6AD65",
"L. c #FFB262",
"P. c #F3C454",
"I. c #D8C66A",
"U. c #EBD26B",
"Y. c #FFD76C",
"T. c #F2E26D",
"R. c #FEE576",
"E. c #274C85",
"W. c #284C83",
"Q. c #2D5086",
"!. c #335283",
"~. c #395784",
"^. c #31548C",
"/. c #2C5491",
"(. c #2B599D",
"). c #305996",
"_. c #36639B",
"`. c #386499",
"'. c #2B5BA2",
"]. c #3567A6",
"[. c #3067B2",
"{. c #3169B5",
"}. c #306BB9",
"|. c #3671B6",
" X c #3572BA",
".X c #435B84",
"XX c #576A87",
"oX c #4B6891",
"OX c #687387",
"+X c #757C88",
"@X c #627490",
"#X c #5074AE",
"$X c #3D71C4",
"%X c #4675C1",
"&X c #798290",
"*X c #7A8EB0",
"=X c #868584",
"-X c #8D8D8D",
";X c #938C87",
":X c #97928D",
">X c #8D8E91",
",X c #939393",
"<X c #9C9895",
"1X c #9C9C9D",
"2X c #AE9587",
"3X c #A09D9C",
"4X c #A5A19E",
"5X c #ACA49A",
"6X c #B6AB92",
"7X c #999CA3",
"8X c #9CA0A9",
"9X c #A5A4A3",
"0X c #A9A7A7",
"qX c #ABABAB",
"wX c #B2ADA9",
"eX c #B8B3AD",
"rX c #A5ABB2",
"tX c #AEB2B6",
"yX c #B4B3B4",
"uX c #B8B7B8",
"iX c #BDBDBD",
"pX c #CA988B",
"aX c #D1AF8D",
"sX c #E2AD93",
"dX c #D1B8AA",
"fX c #C2BEB9",
"gX c #D4CF85",
"hX c #F1DA83",
"jX c #CCC5A5",
"kX c #C6C2BB",
"lX c #B8BDC7",
"zX c #C4C3C1",
"xX c #CBC7C4",
"cX c #CCCCCE",
/* pixels */
"                                                                                                          ",
"                                            # 6 Y / ^ 7 5                                                 ",
"                                    . 6 E ` } { [ { { { { { / 7 #                                         ",
"                                o U ` { { } { { { { { { { { { { [ ( 7                                     ",
"                  X K >Xo $ B 7 ] } } } { { { } { [ { { { [ [ [ { [ [ ^ 8 M   x -Xm                       ",
"            . . . ;XfXuXP :.8.} } { } { { } { { { { { { { [ { [ { [ [ [ [ pXp yXxXkXy . .                 ",
"            z C G xXiXuXrX,.} } } } { } { } { { { { { [ [ { [ { { { { { { [ >.xXxXlX4XV M <               ",
"            N V :.xXiXuXpX4.} } { { { { { { { { { { [ [ [ { { { { { [ [ { [ ] dXxXzXyXV B 1               ",
"            N B :.fXuXpX} } [ } { [ [ [ ` ` ( ( ( ( / ( ( ( _ ` ] ] { { { { [ 4.kXuXtXC n <               ",
"            N N :.eXrX7.[ ` ( / ^ ^ T T Y Y Y U U U U W Y Y Y T E E E ^ ( ( ` ` pXqXrXC n <               ",
"            v n :.3X2X[ W t t r r e q l x l l x w p p p l l 0 l w w r r t t R ) ' 1X3XV b <               ",
"            c v L ,X>.$.u f i i a a a a a i a a a a a a a a a a a a a a a a u p ) ,X,Xb c ;               ",
"            e c A -X7.Z i i i i i i i i i u u u u u u u a u u i a a a a d d d d $.c.:Xz z -               ",
"            e e n -X4.Z g i i i s i a s i u i i u i i i u a i a a d s s d d d f ,.>.=Xq 0 -               ",
"            q q q -X4.Z g '._.]._._._._.`.`.`.).`.`.`.`.`.`.`.`._._._.`._.].(.f ,.>.L 0 0 -               ",
"            9 9 9 :.<.G _.]._.}. X X X X X X X|.|.|.|.}.|. X X X X$X X X].`.#XF $.8.b 9 3 &               ",
"            2 2 1 x 4.G #X].[.}.}.}.}.{.{.{.{.{.[.[.[.[.{.{.}.}.}.}.}.}.}.|.].oX$.$.9 2 < &               ",
"            3 < 1 1 <.-.'.(.(.'.'.'.'.'.(.(.(.(.(.(.(.(.(.(.(.'.'.'.'.'.].'.(.#X,.R < 1 < &               ",
"            & ; * * <.$.$X/.E.E.E.W.E.E.E.W.W.g g g g W.W.g W.W.E.E.E.E.E./.).%X<.R = - = X               ",
"                    W =.$Xs h XXXXoXXXH @XH XXH oXXXXXXXXXXXXXXXXXXXXXXX.Xh ~.#X3.8                       ",
"        $ b         t 2.%Xg .X!.h ^.^.j ).h ~.h ^.).).!.h !.j ).j ).j k ~.~.F #XO.@       X x             ",
"        L kXI       ;XlX*Xg F Q.h ^.~.h ).h !.f !.^.^.!.h j j ^.j /.h j Q.oXF uXuXl     @ 1XrX=           ",
"        z wXkXI   b 3XeX7Xf F Q.f ^.!.H @XOX+X+X+X>X&X+X+XOXOX@XA C Z D j F H eXrX&X& X 1XrX&X@           ",
"          4 5XeXm   I ,X2X&.K D C -.-.D.G.D.D.D.D.G.8.D.D.D.c.G.>.-.Z &.R J =.3X-X3 : :.7XP *             ",
"            X :X5X,X: &.D.n.2.2.5.5.5.5.5.5.5.#.5.M.0.0.N.O.3.3.| ..| 3.1.=.m.k.J 3 7X,XM X               ",
"              l.3X<XJ =.i.V. .4.w.y.p.t.q.+.@.@.w.w.t.y.t.q.@.+.o.X.X.X.| W r.~ Z <X,XtX4                 ",
"              ,X9XqXyXaX0.B.| #.e.y.y.t.q.q.w.u.u.a.y.t.w.q.q.@.@.+.o.+.!  .r.Q 6X7XqX>Xm                 ",
"              9XI qX3XsXM.i.O.O.e.@.q.w.w.i.a.Z.Z.Z.a.t.w.@.+.+.+.+.+. .W 9.9.Q 0X4X=X0XM                 ",
"              4X4 K wXsX7.t.w.2.u.o.o.o.+.e.u.Z.A.Z.B.t.@.+.o.o.o.o.q. .! r. .=.rX1X; :.M                 ",
"              9X;   wXsXM.0.y.0.M.+.[ [ } @.B.B.Z.B.@.o.+.@.o.X.X.] 0.! 9.r.~ =.rXm   :.J                 ",
"              eXM = c.K.Z.B.y.i.M.Z.[ [ } o.q.t.y.u.q.@.@.+.o.X.{ X.9.~ r.r.a.Z.F.M = l.K                 ",
"              I 5XpXN.i.p.a.y.e.1.V.[ 4.+.q.q.y.p.s.p.y.w.q.+.] ` 0.~ ! r.t.a.a.u.5.7X>X4                 ",
"                ; 2.N.e.e.e.e...O.n.B.N.B.y.p.p.s.s.s.p.i.w.@.o.' n.~  .6.N.N.e.e.| t *                   ",
"                o dXH.6.6.4.6.4.| M.S.C.C.S.P.P.d.d.d.s.Z.V.V.n.2.m.Q | 6.6.6.4.5.pX;.                    ",
"                5 dXkX7.6.4.6.M.O.n.C.Y.R.T.T.T.I.I.S.S.P.P.P.A.S.%.Q 5.N.6.6.4.F.uX:..                   ",
"                8 wXxXdXL.L.L.V.1.9.m.6XaXgXgXI.T.I.T.U.gXI.J.6Xx.%.=.V.L.L.L.K.kXlX;.> O                 ",
"              % C wXxXkXjXR.Y.S.9.=.h.S n K -X-X,X>X,X,X-X:.J x &.*.! A.Y.R.R.fXuXtXL B B ;               ",
"              9 N ;XkXiXuXjXR.I.k.h.h.g.% % * 0 x J b w = & & * g.%.h.L.Y.R.kXyXqXqXL B b D               ",
"            X N N A uXqX0X0XwXS.k.~ h.x.* & * * & e ; & & & & e &.%.~ S.hXfXwX0X9X7XB b P K               ",
"            @ n N N ;X0X1X9X7X5Xk.~ m.j.w & * * , e ; - , & & S j.*.f.k.eXwX9X1X1XI b c +XM               ",
"            , b b c v >X,X-X<XuXzXwXm.j.A & * , , e , , ; & & g.f.g.uXiXyX1X,X,XI v v v rXM               ",
"            9 c c e b J ; X X ; M 2Xc.k.z.& * - , e - , , & : z.f.l.;Xx % . + e v v z L lXy               ",
"            e e e e b C w l K ,XqXk.f.b.x., * - , e , , & - b b.f.%.2XqX=XM y e r z z +XcX;               ",
"          . q q e q I fXzXzXzXzXkXuXC.m.j.v * , ; e , , - & S g.j.v.iXzXiXiXwXe q q q 7XlXX               ",
"          X 9 9 9 9 I M l x A K wXkXiXJ.C.S * , , e < < , , z.g.6XxXuX=XK M x 9 0 0 4 lX8X                ",
"          + 2 3 2 2 I :         V :XqXqXb.x., * * x < * & w g.v.kX9X;X;     O 2 2 3 3 cXF                 ",
"          . 2 2 , < x +       X 4XI V S v.J.e * , e * , & b g.;.A L ;XK     O < < < < lX@                 ",
"            % 9 2 < 1 .       ; :.<X9X>X& J.A * * e < * & z.;.e wXwX-XI X     3 3 < < y                   ",
"                X +             < 9 V L w 8 z.= * z < * w g.& V L n 3 @         X + @                     ",
"                                      @ X   b L M e 2 A K @   + O .                                       ",
"                                              K :X0X1XI 4                                                 ",
"                                                1 J D =                                                   ",
"                                                                                                          "
};
