/* XPM */
static char *result[] = {
/* columns rows colors chars-per-pixel */
"53 53 236 2 ",
"   c #000000",
".  c #0B0705",
"X  c #0B0B0B",
"o  c #170B08",
"O  c #1B150E",
"+  c #141312",
"@  c #1A1715",
"#  c #1C1B1A",
"$  c #251C19",
"%  c #3F1913",
"&  c #2A231A",
"*  c #3B251A",
"=  c #1D1F21",
"-  c #242323",
";  c #292422",
":  c #2E2926",
">  c #2D2B29",
",  c #312A26",
"<  c #342D2A",
"1  c #382F2B",
"2  c #34312F",
"3  c #39312D",
"4  c #2F3133",
"5  c #3C3531",
"6  c #393736",
"7  c #5E2B1C",
"8  c #5C2B23",
"9  c #563428",
"0  c #443A36",
"q  c #433C3A",
"w  c #493D38",
"e  c #70372C",
"r  c #544B29",
"t  c #46413E",
"y  c #4B423D",
"u  c #54433B",
"i  c #67453C",
"p  c #7B4B33",
"a  c #766D37",
"s  c #3E424C",
"d  c #314366",
"f  c #204377",
"g  c #2B4773",
"h  c #204479",
"j  c #474647",
"k  c #4B4542",
"l  c #4F4946",
"z  c #514641",
"x  c #594746",
"c  c #544A46",
"v  c #544D4A",
"b  c #5A4E49",
"n  c #56514E",
"m  c #5C524D",
"M  c #444857",
"N  c #4C5059",
"B  c #555252",
"V  c #5C5553",
"C  c #5E5955",
"Z  c #5F505E",
"A  c #5C5A59",
"S  c #744F47",
"D  c #65544C",
"F  c #725543",
"G  c #625651",
"H  c #645A54",
"J  c #685853",
"K  c #635D5B",
"L  c #66615E",
"P  c #6B625D",
"I  c #776559",
"U  c #4F4E64",
"Y  c #646362",
"T  c #6B6662",
"R  c #6D6966",
"E  c #65606A",
"W  c #6A6969",
"Q  c #716A66",
"!  c #7B6D67",
"~  c #726E6B",
"^  c #78726D",
"/  c #6C6875",
"(  c #736F7B",
")  c #747373",
"_  c #7B7672",
"`  c #7A7879",
"'  c #7D7B7B",
"]  c #873728",
"[  c #8C3A2B",
"{  c #953C2A",
"}  c #853F33",
"|  c #8B3E30",
" . c #8E512F",
".. c #874739",
"X. c #964537",
"o. c #B44C30",
"O. c #A75A3A",
"+. c #B85A33",
"@. c #88713D",
"#. c #B4653A",
"$. c #C45237",
"%. c #D75B36",
"&. c #EB5737",
"*. c #F45736",
"=. c #FB5732",
"-. c #FF5A35",
";. c #FF5D39",
":. c #D06B38",
">. c #E8693B",
",. c #F66D39",
"<. c #FD6A38",
"1. c #EC7738",
"2. c #FF7C36",
"3. c #FD7539",
"4. c #8F5447",
"5. c #995647",
"6. c #A75A47",
"7. c #B95843",
"8. c #B35E53",
"9. c #92664E",
"0. c #997856",
"q. c #A96648",
"w. c #B56B4F",
"e. c #AB6957",
"r. c #B6775C",
"t. c #886B61",
"y. c #99766F",
"u. c #847C79",
"i. c #A46A67",
"p. c #AA766B",
"a. c #B47B66",
"s. c #B36C70",
"d. c #C35C46",
"f. c #D25D48",
"g. c #E95E45",
"h. c #CC6447",
"j. c #D4714C",
"k. c #CC615A",
"l. c #E6634A",
"z. c #F6684A",
"x. c #EB7445",
"c. c #FA7445",
"v. c #EB7555",
"b. c #FB7952",
"n. c #C56B69",
"m. c #FF8436",
"M. c #FB8937",
"N. c #FF823B",
"B. c #FF8C3B",
"V. c #FF923A",
"C. c #FE9A38",
"Z. c #FFA434",
"A. c #B18952",
"S. c #BBAD55",
"D. c #88827E",
"F. c #94817C",
"G. c #A5847A",
"H. c #B68770",
"J. c #CE8D4C",
"K. c #D7854B",
"L. c #CB9759",
"P. c #F2874C",
"I. c #ED914C",
"U. c #F0954D",
"Y. c #F89848",
"T. c #E88955",
"R. c #F89555",
"E. c #FCA444",
"W. c #FDB743",
"Q. c #F4B156",
"!. c #CF8D70",
"~. c #E68E6F",
"^. c #CEA769",
"/. c #EFAF6A",
"(. c #FFC44B",
"). c #F3CF6B",
"_. c #F7E56B",
"`. c #385890",
"'. c #3B64A8",
"]. c #2F65B5",
"[. c #3168BA",
"{. c #3F70BA",
"}. c #4A5C85",
"|. c #4A6289",
" X c #576588",
".X c #4A6797",
"XX c #747B86",
"oX c #496FB1",
"OX c #4271B9",
"+X c #3A70C3",
"@X c #3875D3",
"#X c #3C7CDD",
"$X c #3C7EE2",
"%X c #426FC5",
"&X c #477AD3",
"*X c #7D838C",
"=X c #7184A0",
"-X c #608ACB",
";X c #898685",
":X c #8C8B8B",
">X c #948A88",
",X c #878B96",
"<X c #8E9399",
"1X c #949393",
"2X c #9B9693",
"3X c #95979A",
"4X c #9C9B9A",
"5X c #A68984",
"6X c #B5958A",
"7X c #A49C99",
"8X c #BEA883",
"9X c #A6A19D",
"0X c #979BA2",
"qX c #9DA2AC",
"wX c #A4A3A4",
"eX c #A6A6A7",
"rX c #ACABAB",
"tX c #B3ADAA",
"yX c #B8B2AE",
"uX c #ACB1B8",
"iX c #B3B3B2",
"pX c #B9BABA",
"aX c #C29B8B",
"sX c #CEAC88",
"dX c #EBBF84",
"fX c #C6B0A4",
"gX c #C3BCB7",
"hX c #C4C1BD",
"jX c #CBC4BD",
"kX c #9CAECA",
"lX c #B6BBC7",
"zX c #BBC2D2",
"xX c #C9C5C1",
"cX c #C4CCDC",
"vX c #DEE7FA",
"bX c #E7F3FE",
/* pixels */
"                                                  . =                                                     ",
"                                        X * r A.S.)._._.).S.a r X                                         ",
"                                      & L.Q.Q.W.Z.W.W.W.W.(.(.(.). .                                      ",
"                                    X :.z.3.3.B.Z.C.C.Z.Z.C.V.P.N.2.p                                     ",
"                    X H :X1XB        .3.<.<.3.3.2.N.B.V.C.V.N.3.<.-.<..     : F.2X~ -                     ",
"                    9XxXfX).).^.o O P.3.<.3.3.2.N.B.V.Y.C.E.V.m.3.<.=.O.  r ).).dXhXpXN                   ",
"                @ 6 xXfXb.z.b.R.A. .N.3.3.N.m.N.B.V.V.C.E.E.C.V.m.2.3.<.* /.R.b.b.~.pX<XX                 ",
"              @ H y.gX~.c.b.c.v.R.U.P.T.P.T.U.U.U.U.U.U.U.U.U.U.U.U.T.P.Y.Y.c.c.c.c.fXqXK V 5             ",
"              0 J D.fXP.Y.B.B.K.T.,.3.3.3.2.m.m.N.m.2.2.2.3.2.2.m.M.V.V.I.K.P.V.Y.N.!.uXG B (             ",
"            . b G F.~.B.E.Z.C.T.v.c.<.>.,.c.1.x.,.,.x.,.x.1.,.,.x.1.,.3.1.c.K.Z.C.V.1.eXm ` ,X@           ",
"            @ D D D.v./.^.Z.I.K.j.#.O.O.q.q.e.r.a.H.r.a.H.r.e.e.q.O.O.#.#.w.K.Z.Q.^.M.p.b XX,X-           ",
"            & b n t.j.:X,X8XL.D n b b P R ^ ~ Q T R K R P P ~ ^ ~ ) n n b b 9.L.sX2XF.r.z 3XqX=           ",
"            < c c 9.1.H.0.^.A.v n n n G T B A K L ~ C A ~ V T l R R n v v v n U.A.G.w.#.m uXlX=           ",
"            3 z y q.>.1.M.Q.D n n n n V ) W Q ~ Q _ L P _ R _ L ) W v l l l n A.E.1.:.#.L lXzXX           ",
"            5 y y #.%.%.J.@.y j n F F p G N N n n B m B n B N N N s N s s j c v A.:.$.+.! cXlXX           ",
"            3 w w #.%.%.J.M d g i d qXg l N f f f f f f f f f f h h h h h h h N F M.o.+.! vXqX            ",
"            < 6 5 :.h.T.t.d g i ,X XhX=XXXt.f f f f h f h f f h h h h h h h f d U J.r.#.aXbX`             ",
"            ; 3 < J.9Xv.U `.g u |.hXD.iXXXd M f f f h h f f f h h h h h h h `.g }.e.H.G.G.bX6             ",
"            # 3 0 :.6Xl.`.`.g x h <X2XrX`.s M f `.@X@X@X+Xf f h h h h h h h h }.OXt.n.0.q.0X.             ",
"              & , :.j.f..X'.'.Z ].[.xX-X[.Z '.].+X$X@X$X@X].].].[.[.[.[.[.[.].}.OXW l.#. .#               ",
"                . $.>.7.'..X@X%XG oXkX-X/ }.#X$X@X#X#X#X$X@X$X$X$X$X$X$X$X$X$X.X{./ &.+.e                 ",
"                   .f.f.'.`.%X$X$X X/  XoX$X$X#X&X#X#X#X$X@X$X$X$X$X$X$X$X$X$X.XOX/ &.o.*                 ",
"                  9 j.f.oX`.+X$X$X$X$X$X$X$X$X$X&X$X#X#X#X@X$X@X$X$X$X$X$X$X$X.X{.XX&.e.                  ",
"              + B 1X!.f.}.`.+X$X$X$X$X$X$X#X#X&X%X&X&X&X&X+X$X$X$X$X$X$X$X$X$X}.`.y.d.9X) -               ",
"              L wX:Xp.;.v.8.s.s.n.n.k.l.z.g.<.-.=.=.-.-.-.-.-.=.*.l.l.k.k.n.s.8.8.z.d.9X1XpXX             ",
"              _ pX0XeXg.;.;.-.;.-.-.;.-.=.-.-.-.-.-.-.-.-.=.=.-.=.=.=.-.-.-.=.=.*.&.p.7XrXpX=             ",
"              T 7Xu.>XaX&.;.=.=.-.-.;.-.=.-.;.-.-.-.-.-.-.-.-.=.=.=.=.=.=.=.=.=.*.7.5X;XD.eX+             ",
"              R wXwX/ a.7.&.;.;.-.;.-.-.-.-.-.-.-.-.-.-.-.=.=.-.=.=.=.=.=.*.=.*.$.y.I 9XrXqX+             ",
"              C wXq   9 6Xo.&.-.;.-.-.-.-.-.-.-.-.-.-.=.=.-.=.=.=.=.=.=.=.*.*.o.5.i.  X D.qX+             ",
"              v rX#   8 7.a.fXk.z.=.-.-.-.=.-.-.-.-.=.=.=.=.=.=.=.*.=.=.&.g.8.7X4.5.    _ qX              ",
"              n wXX   8 $.7.7Xt.0 w i S S 4.X.5.O.d.f.d.7.6.O.4...4.x i w t F.F.X.X.    C 4XX             ",
"              2X3XX   % k.o.y.u.2 , , , : , , : : ; : : ; : : ; , : , , , c u.4.4.}     k yXs             ",
"            < pXY     o $.n.o.4.5 , , : : : : < A A k j A q : : > : > , , v | X.i.7     + tXqX            ",
"            :XeX>       { 8.fXp.V l t q , , , : : 5 k 6 6 : : , , 2 6 t z E i.5X| %       ^ pX6           ",
"          k iX:XX       o { e.6X9X1X>X;XQ L V v c k q w k z v V K Q ` :X1X7Xp.| 8 .       6 tX4XX         ",
"        X wXeXj X Y ) ) - $ X.e.5.i.y.6XrXtXiXtX9XwX2X4XeXwXrXtXrX7X>Xi.5.5.S e O V ) Y j   3XiXY         ",
"        j tX<X@ X xXhXpXuXs w yX1X4.[ { { 5.6.e.p.y.5X5Xp.e.5.5.X.{ | | 9.gX,XO 2XxXjXlX*X  K rXeXX       ",
"        X :XA     wXhXpXuX0Xk xXy.4.[ [ { [ [ | | X.| [ | | ] ] ] ] ] | ..gXeX5 jXxXjXpXt   + 4Xv         ",
"            w w q R pXpXuX` y xX;X9 wXi e { ] [ [ [ [ [ ] ] ] ] ] e t.u., xXqX# jXjXxXwXz 6 2 &           ",
"            u H J H H ~ N # < jXqX  2XS S H p [ | [ [ [ | ] ..b K 9 5X4 y xX<X$ - t.P J H H V #           ",
"            u H J H G b X - : rX4X2 v 4Xb #   o * u fXu.* $   . 5 R rXX L :X*X@ . < G H H G V #           ",
"            y G G G m b . # # eXhX~ m iX+       q ) 7X:Xn +       W ' P *XhX' X + < D D G D m #           ",
"            w D D m b c - - . ' ;Xk + P V X   t tX7X2X:X1X,X    X 3X# > P 2Xn   $ t b m D m b #           ",
"            w b b b c c K l n v - .   4 ' X X K >X2X;X;X:X' j   q ' X   X 2 K v C G b b b b c @           ",
"            0 c c c z k G ' iXiXiXiXeX;XH 3XD.Q 1X2X4X1X:X` R 4X' H rXeXiXrXiXrXH b u c c c c @           ",
"            5 z u z k w l j A C Y Y Y V t W A ;X;X) ) ) ) 1XK W n t Y Y Y Y A V t c y y u y y @           ",
"            3 y y y w q v v 6 w q q q q q q q _ ) D.D.;X' ) A q q q t 6 q q t t l y y y y t t @           ",
"            3 w q w 0 5 +                     6 W W W Y ~ Y +                     : 0 0 w 0 0 +           ",
"            < 5 5 5 5 3 X                       + : > > 4 .                       $ 5 5 5 5 5 +           ",
"            , 3 1 1 1 < .                                                         & 3 1 1 1 1 +           ",
"            < 3 1 1 < 1 .                                                         $ 3 < 1 < < @           ",
"            X ; - & ; #                                                           X ; ; - ; #             ",
"                                                                                                          "
};
