/* XPM */
static char *result[] = {
/* columns rows colors chars-per-pixel */
"53 53 237 2 ",
"   c #000000",
".  c #0C0705",
"X  c #0C0B0A",
"o  c #180D0A",
"O  c #18110E",
"+  c #151312",
"@  c #1A1814",
"#  c #1C1919",
"$  c #2E180D",
"%  c #281D18",
"&  c #27211C",
"*  c #34211C",
"=  c #252423",
"-  c #2B2725",
";  c #322B27",
":  c #322E2C",
">  c #3A322E",
",  c #353433",
"<  c #3C3532",
"1  c #3A3A3A",
"2  c #4F1D12",
"3  c #472514",
"4  c #7F2F1E",
"5  c #7E311E",
"6  c #423834",
"7  c #453C38",
"8  c #583B34",
"9  c #642D22",
"0  c #69352A",
"q  c #763825",
"w  c #7F501F",
"e  c #4A423E",
"r  c #534535",
"t  c #774637",
"y  c #715637",
"u  c #28374C",
"i  c #2B3D56",
"p  c #263F68",
"a  c #3E414A",
"s  c #374257",
"d  c #294168",
"f  c #2B446B",
"g  c #374B69",
"h  c #264473",
"j  c #2D4976",
"k  c #294878",
"l  c #334C75",
"z  c #334E79",
"x  c #3B5175",
"c  c #4C4543",
"v  c #484746",
"b  c #544A46",
"n  c #594A43",
"m  c #534D4B",
"M  c #56514C",
"N  c #5C524D",
"B  c #534F51",
"V  c #555252",
"C  c #5B5553",
"Z  c #5B5859",
"A  c #6D4A44",
"S  c #65554C",
"D  c #655953",
"F  c #655B56",
"G  c #7B5D56",
"H  c #66615E",
"J  c #7B6F56",
"K  c #465773",
"L  c #645F70",
"P  c #576378",
"I  c #656261",
"U  c #696563",
"Y  c #65656A",
"T  c #6D6B6A",
"R  c #786864",
"E  c #726D6C",
"W  c #78716C",
"Q  c #716E71",
"!  c #747274",
"~  c #7A7573",
"^  c #797879",
"/  c #8B2F1B",
"(  c #87361C",
")  c #8B321C",
"_  c #92321C",
"`  c #973B1D",
"'  c #8C3522",
"]  c #8C3A29",
"[  c #953722",
"{  c #A43922",
"}  c #B53D22",
"|  c #89491C",
" . c #95461E",
".. c #A0481D",
"X. c #8C4D2B",
"o. c #984924",
"O. c #9B5A27",
"+. c #894838",
"@. c #9C4938",
"#. c #A94627",
"$. c #BA482A",
"%. c #AD5926",
"&. c #B95528",
"*. c #B35835",
"=. c #9F6337",
"-. c #B66725",
";. c #B97328",
":. c #AD6A35",
">. c #B06130",
",. c #C84626",
"<. c #D54B29",
"1. c #CD5731",
"2. c #ED5532",
"3. c #FD5731",
"4. c #FF5A35",
"5. c #FE5D3A",
"6. c #DC6B2C",
"7. c #D8752B",
"8. c #CA7830",
"9. c #E66D30",
"0. c #FD6537",
"q. c #EE763A",
"w. c #FE7236",
"e. c #FE7B35",
"r. c #FA7839",
"t. c #FF7B3A",
"y. c #8C5C4F",
"u. c #97594B",
"i. c #B15B50",
"p. c #976446",
"a. c #996458",
"s. c #AC694D",
"d. c #8B5D63",
"f. c #876C64",
"g. c #897168",
"h. c #847975",
"j. c #837E7B",
"k. c #937C74",
"l. c #F45E40",
"z. c #D36B4E",
"x. c #C66857",
"c. c #D56A55",
"v. c #E9654A",
"b. c #F66748",
"n. c #EE7B4B",
"m. c #F87947",
"M. c #F67951",
"N. c #DC882C",
"B. c #D3963B",
"V. c #E48829",
"C. c #F28A32",
"Z. c #FE8C36",
"A. c #FF8739",
"S. c #EE983D",
"D. c #FE9836",
"F. c #FF943B",
"G. c #FFA337",
"H. c #FFB338",
"J. c #AF8F4C",
"K. c #9B8C6C",
"L. c #89817D",
"P. c #93867C",
"I. c #B3866C",
"U. c #B69965",
"Y. c #A4887D",
"T. c #DE8553",
"R. c #FD8648",
"E. c #F58C4C",
"W. c #CCA054",
"Q. c #FFB649",
"!. c #F2B450",
"~. c #D7856D",
"^. c #E9886B",
"/. c #EFB565",
"(. c #E7C252",
"). c #F1D36C",
"_. c #FDEF6F",
"`. c #2D528B",
"'. c #2B528D",
"]. c #35578A",
"[. c #345B99",
"{. c #3A619B",
"}. c #3B67A8",
"|. c #445D86",
" X c #415E91",
".X c #4B6286",
"XX c #44628D",
"oX c #4A658C",
"OX c #4B678C",
"+X c #576689",
"@X c #456495",
"#X c #456A9E",
"$X c #4A6A9A",
"%X c #536B93",
"&X c #50719E",
"*X c #77778A",
"=X c #406EA3",
"-X c #5576AD",
";X c #3D7FE3",
":X c #6691D4",
">X c #868383",
",X c #8B8584",
"<X c #86868B",
"1X c #8D8B8A",
"2X c #928D89",
"3X c #99928D",
"4X c #848794",
"5X c #959392",
"6X c #9B9695",
"7X c #9B9A9A",
"8X c #AE9882",
"9X c #B3948C",
"0X c #B69A8C",
"qX c #A49894",
"wX c #B8A189",
"eX c #A6A19D",
"rX c #B6AD93",
"tX c #9C9EA5",
"yX c #A4A2A2",
"uX c #ACA8A8",
"iX c #B1ADAC",
"pX c #BCB6A9",
"aX c #BBB9B9",
"sX c #D4AE92",
"dX c #C5BCAA",
"fX c #C1BEBB",
"gX c #E5D18E",
"hX c #EEEA90",
"jX c #CAC3BD",
"kX c #D6CDB5",
"lX c #AFBACD",
"zX c #C0BEC2",
"xX c #C6C6C7",
"cX c #D1D3D8",
"vX c #C8D3E7",
"bX c #D9E2ED",
"nX c #E6EDF4",
/* pixels */
"                                                                                                          ",
"                                                                                                          ",
"                                                                                                          ",
"                                                                                                          ",
"                                                                                                          ",
"                                                                                                          ",
"                                                                                                          ",
"                                                                                                          ",
"                                                                                                          ",
"                                                                                                          ",
"                                                                                                          ",
"                                                                                                          ",
"                                      = 2X:                       o o $ o                                 ",
"                                    X eX3X1       . $ 9 0 0 q t t A A i.l.0.<.5 2 X X                     ",
"                                  . . h.$ % r y y y n a s d l j k k p K l.4.4.5.5.b.~.1                   ",
"              X = v v e $ $ @ $ w -.z.g.S S n i d f h h f h k l k h d g v.5.5.4.5.4.5.l.L.eX5X5Xv @       ",
"            C aXgX^.M.m.m.t.e.Z.H.r.n.k.Z s p k `.`.`.{.[.}.{.=X=X=XXXx z.4.5.4.4.5.4.4.M.zXzXaX5XZ < .   ",
"        X j.aXgX/.M.l.4.4.w.D.A.A.q.m.9XQ '.[.[.{.'.[.'.`.k j {.}.=XOXx z.4.4.5.4.4.4.4.4.eX7X^ S N m 1   ",
"        1 dXrX).Q.R.e.A.A.R.Q.A.e.n.m.0XP [.'.'.'.k h h d d g z {.#XOXK i.5.4.4.4.4.4.4.4.u.c c 7 7 c m . ",
"        + L.hX_.Q.G.G.E.Q.Q.Q.F.Z.C.m.0XQ h h h p p k k l z x ].].$XoXK s.5.4.4.4.4.4.4.3.G >X6XE Z 1 7 + ",
"        # W _.(.H.H.G.A.D.G.D.D.D.S.M.0X! k j z l l j g f d x |..X$XOXK i.4.4.4.4.4.3.3.v.eXiXQ ^ Z V < + ",
"        & rX).(.H.G.Z.t.w.Z.Z.Z.Z.q.b.8X^ f s d i i i i u u g K oX$XOXK x.4.4.3.3.4.3.3.x.,X1XY Z j.,X< + ",
"        + kX_.!.F.A.t.r.w.w.e.e.A.0.E.Y.1Xi j l oX#X@X[. XXXK .XoX$XoXP c.5.3.4.3.4.3.3.0XZ 5XZ N ,XW 6 X ",
"        = 4X)./.R.w.4.0.0.w.e.e.w.2.n.k.! ;X;X-X|.$X$X@XXX]..X.X%X$XoXP c.4.3.3.3.3.3.z.zXg.pX6X3XP.e %   ",
"      X ,Xe rX/.E.R.r.w.w.e.e.w.0.5.E.f.L ;X*X+X+X$X$X@X X|.|.+X%X%XOXP v.5.3.3.3.3.2.j.uXL.yX>XC 6 &     ",
"      1 F < N J.J.W.B.N.N.7.7.6.6.6.T.g.P ;X*XR .X$X$X@X X X.X.X%X&XOXP b.4.3.3.2.c.3X6XR : V e + O       ",
"      = < , S J.:.:.:.;.N.8.-.&.%.&.i.I.uX:Xk.4XL $X$X@X X.X|.+X&X&XOXd.3.2.<.#.' 6X,XqX8 e uX3X1         ",
"      < 6 e p.J.J.:.>.1.8.7.V.V.7.7.7.U.U.U.h.uXG $X%X+X+X+Xd.a.i.i.i.<.$.@.u.[ ] G >Xf.F W uX1X7X        ",
"    & e 6 J J.J.W.n.M.M.Z.D.C.V.V.V.V.V.N.;.S.S.S.7.<.,.<.,.} { [ [ u.u.y.u.] ' ' y.qXC R R 5X~ 5X        ",
"  ; M e J U.8XhXgXR.b.m.Z.G.G.G.V.-.;.;.;.O.O.K.O. . ...%.=.o.` ] +.+.] / ' ' _ a.Y.,X5XU C ~ H 1X        ",
"  L.6 C U.dXjXxXfXaXsX^.9.e.C.Z.Z.6..... .5  .p.o. . . .o.o.o.` ' 5 / / / ' u.u.u.* # I qXiXfXfX5X        ",
"  L.L.K.dXjXxXrX5XqX3XqXqX&.,.6.6.1.$.{ {  .5 ( ` ) ) ) ( / ) 5 4 / / _ _ @.] ] 3X5XdXjXaXuX5X^ v         ",
"    & y yXyXh.D D D D G :.j.#.&.&.$.$.*.>.&.-.-.O.o.o.[ [ ' ) ) _ _ _ { { [ ] A I 5XuXm S F D F D m =     ",
"      : iXW S n S S S N M =.p.-.-.%.P.6XyXyXeXwX0XI.I.s.#.[ ' [ ' ' _ [ ] ] 0 o . 3XF r S D S D S C V ;   ",
"      X L.r m Y E E 7 b b b p.%.-.:.^ j.I 1XB T C U T ~ 2XF q ' ' ) ' q 3 %     , v ; S N n n Z e b m m . ",
"        : Z 1 m Z ~ <XZ e e 1 X.-.-.=.y.t Y.~ H ,X1Xj.7XI 7X- 3 $ O o           c . 6 b Z Q Q E <XQ c c # ",
"        : >X~ m T I ~ : V 7 :   | %.%.1.8.=.aXr , V T 1XyX<X7X^ 1                   > V < T T I h.c v c # ",
"        = tX<XI I Q F < ~ < %     3 3 3 $ . v >XT I v , = + # B 5XyXB               ; Q ~ F T T I U L.V + ",
"        X Y vX<X,XU W h.2X< X                                   + T 5XiXB           - 4X>X~ E E E j.uXI + ",
"          + <XbXcXaXxXcX5X-                                         : >X7X,         + Z lX5X>Xj.qXiXzX7   ",
"            X V tXxXaX*X; .                                           X =             % ! vXnXbXnXxXm X   ",
"                  X + X                                                                 # : Y Q B = X     ",
"                                                                                                          ",
"                                                                                                          ",
"                                                                                                          ",
"                                                                                                          ",
"                                                                                                          ",
"                                                                                                          ",
"                                                                                                          ",
"                                                                                                          ",
"                                                                                                          ",
"                                                                                                          ",
"                                                                                                          "
};
