/* XPM */
static char *result[] = {
/* columns rows colors chars-per-pixel */
"53 53 41 1 ",
"  c black",
". c #010101",
"X c #020202",
"o c gray1",
"O c #040404",
"+ c gray2",
"@ c #060606",
"# c #070707",
"$ c gray3",
"% c #090909",
"& c gray4",
"* c #0B0B0B",
"= c #0C0C0C",
"- c gray5",
"; c #0E0E0E",
": c gray6",
"> c #101010",
", c #111111",
"< c gray7",
"1 c #131313",
"2 c gray8",
"3 c #151515",
"4 c #161616",
"5 c gray9",
"6 c #181818",
"7 c #191919",
"8 c gray10",
"9 c #1B1B1B",
"0 c gray11",
"q c #1D1D1D",
"w c #1E1E1E",
"e c gray12",
"r c #202020",
"t c gray13",
"y c #222222",
"u c #232323",
"i c gray14",
"p c #252525",
"a c gray15",
"s c #272727",
"d c #282828",
/* pixels */
"                                                     ",
"                                                     ",
"                                                     ",
"                                                     ",
"                                                     ",
"           X&@                                       ",
"           %r1.                              ..      ",
"           %r1.                             o:-.     ",
"           %r1.                             @04X     ",
"       O@$@&r1. .+#$@o  @@    .+@.O@.   ++.X-e8&#    ",
"      &7er05y1. %8etr4+ 8r+  X%8wO1t%  o70+=yaptq    ",
"     +0q;&;qs1. -4**2y: ;u-  +6r1X1t%  o70+O:r9=%    ",
"    .-t;. .>p1. oOXo*t3X+r4X &ir&.1t%  o70+ #w5X     ",
"    .3e@   %r1. O-<60a5XX3q@ 2d6o.1t%  o70+ #w5X     ",
"    .7w+   %r1.O7t722y5X *t-Xee; .1t%  o70+ #w5X     ",
"    .4e#   =y1.%i,. $r5X +03=u;@ .1t%  O80+ #w5X     ",
"    .-u>X.O4s1.&p;.X:i5X .2w80oX .;u:X.&t0+ #w6OX    ",
"     +0r2>2wi1.#r0,<qi5X  *ta;    @ww<>7y0+ o6r<,    ",
"     .$6ee3:0,.X;wr8<02X  X8yX    .*0t0,47O  &qr6    ",
"       .XX..X.  .XXX.X.    .X       XXX...    XX.    ",
"                                                     ",
"                                                     ",
"                                                     ",
"                                                     ",
"                                                     ",
"                                                     ",
"                                                     ",
"                                                     ",
"                                                     ",
"                                                     ",
"                                                     ",
"                                                     ",
"                                                     ",
"        o#.   O#. #$$$$$@ o#.    +@  o#o+$#O         ",
"        >p%   4y# 9tttid5 :a+    0e  >a28ei8+        ",
"        >p%   4y# %**;wy@ :a+    0e  >s0>*<p2        ",
"        >p%   4y#   .;t,  :a+    0e  >a,. .qqO       ",
"        >p%   4y#   #07O  :a+    0e  >a&   5r#       ",
"        >p%   4y#  o4w$   :a+    0e  >a%   4r#       ",
"        :p&   7y#  ;t;.   :a#    we  >a%   4r#       ",
"        &i,XX@ty# #e6O... *u,X.X$ie  >a%   4r#       ",
"        Xqr<,6ry#o7a4>>>- +0t<>,6ue  >a%   4r#       ",
"         %0rq<3q@=rureee8 .&9re9:88  ;t#   29@       ",
"          XXX..X .XXXXXXX   .XXX..X  .X    .X        ",
"                                                     ",
"                                                     ",
"                                                     ",
"                                                     ",
"                                                     ",
"                                                     ",
"                                                     ",
"                                                     ",
"                                                     "
};
