/* XPM */
static char *ed0ff68096f64a04b9c0a0a67671ade4XvdvbZ2IQFVHO9i3[] = {
/* columns rows colors chars-per-pixel */
"40 40 202 2 ",
"   c #000001",
".  c #0B0000",
"X  c #000607",
"o  c #180001",
"O  c #260000",
"+  c #3C0104",
"@  c #380105",
"#  c #3E0012",
"$  c #2D0D11",
"%  c #02250C",
"&  c #010221",
"*  c #380E2D",
"=  c #183B2A",
"-  c #093526",
";  c #3F2B36",
":  c #4A000F",
">  c #470303",
",  c #550000",
"<  c #5A0100",
"1  c #4B0114",
"2  c #49161D",
"3  c #561711",
"4  c #720700",
"5  c #6F011B",
"6  c #6A2103",
"7  c #6F3819",
"8  c #4D0A2A",
"9  c #6F0130",
"0  c #661E36",
"q  c #582727",
"w  c #5A3333",
"e  c #483230",
"r  c #642528",
"t  c #6A3835",
"y  c #74373A",
"u  c #6A3032",
"i  c #0E4437",
"p  c #2B5039",
"a  c #5B4702",
"s  c #6A570D",
"d  c #5D4438",
"f  c #664839",
"g  c #75493B",
"h  c #6B4A2D",
"j  c #796A2A",
"k  c #001B4A",
"l  c #002C5D",
"z  c #011078",
"x  c #023878",
"c  c #2E276D",
"v  c #500D4A",
"b  c #6C2A45",
"n  c #653C76",
"m  c #562D57",
"M  c #315A44",
"N  c #246246",
"B  c #387658",
"V  c #306C53",
"C  c #254E60",
"Z  c #604E40",
"A  c #754444",
"S  c #7B4645",
"D  c #605F4D",
"F  c #427A5F",
"G  c #594E71",
"H  c #457C62",
"J  c #6B7D67",
"K  c #53524D",
"L  c #800001",
"P  c #B10902",
"I  c #BF2003",
"U  c #851A24",
"Y  c #862529",
"T  c #8A2C2C",
"R  c #8B2429",
"E  c #963929",
"W  c #883238",
"Q  c #8A2D2D",
"!  c #A4292D",
"~  c #A73333",
"^  c #BC3335",
"/  c #BC3937",
"(  c #BB3538",
")  c #BD393A",
"_  c #B43A3C",
"`  c #C21300",
"'  c #C92F1A",
"]  c #C7362C",
"[  c #C23B3A",
"{  c #C83B37",
"}  c #8A702C",
"|  c #CE483E",
" . c #C7433C",
".. c #D3493F",
"X. c #C4533D",
"o. c #EF562B",
"O. c #90345F",
"+. c #8C3761",
"@. c #864947",
"#. c #8E5346",
"$. c #BE555C",
"%. c #AB4940",
"&. c #9C6351",
"*. c #8B6654",
"=. c #A76B57",
"-. c #A8725A",
";. c #B17B5F",
":. c #8B5368",
">. c #B85B66",
",. c #A87868",
"<. c #B67964",
"1. c #B36671",
"2. c #D15144",
"3. c #E25A43",
"4. c #F66747",
"5. c #F86947",
"6. c #F56749",
"7. c #F6684A",
"8. c #FB6B4B",
"9. c #F76847",
"0. c #F66D53",
"q. c #F56A4E",
"w. c #DC7169",
"e. c #F47E70",
"r. c #548569",
"t. c #4C8F70",
"y. c #539978",
"u. c #4B8566",
"i. c #68856C",
"p. c #659675",
"a. c #749C7D",
"s. c #A88739",
"d. c #B4963A",
"f. c #BEA23E",
"g. c #C3A13F",
"h. c #A58244",
"j. c #B3914A",
"k. c #BCAC4C",
"l. c #B4896E",
"z. c #C3A540",
"x. c #D3B849",
"c. c #CB8C6D",
"v. c #C78268",
"b. c #D48C6E",
"n. c #D5856A",
"m. c #D68E71",
"M. c #DA9474",
"N. c #D89777",
"B. c #CB9976",
"V. c #E39F7A",
"C. c #E4A17E",
"Z. c #F9DC5B",
"A. c #E6C854",
"S. c #FFE45C",
"D. c #004183",
"F. c #746D91",
"G. c #8E7384",
"H. c #B97689",
"J. c #D17A82",
"K. c #749B83",
"L. c #5BA984",
"P. c #61AD87",
"I. c #62AE8B",
"U. c #69A986",
"Y. c #74AA87",
"T. c #68B38D",
"R. c #73B28B",
"E. c #6DBC94",
"W. c #65B590",
"Q. c #638BA6",
"!. c #6395AE",
"~. c #6DC69C",
"^. c #6EC99E",
"/. c #71C59C",
"(. c #70C89E",
"). c #6FC7A1",
"_. c #6ECBA2",
"`. c #71CDA2",
"'. c #71C7A0",
"]. c #6FD2A5",
"[. c #6ED8AA",
"{. c #72D0A5",
"}. c #74D4A9",
"|. c #B19392",
" X c #B390AA",
".X c #B5A4B8",
"XX c #C19789",
"oX c #EAA882",
"OX c #E7B486",
"+X c #FECA96",
"@X c #F7C393",
"#X c #A7A9C9",
"$X c #B5B6C6",
"%X c #B2B7DA",
"&X c #ABB6D6",
"*X c #B0BEE1",
"=X c #C2BFCD",
"-X c #BCC5E2",
";X c #D7C9D8",
":X c #C4C0CE",
">X c #E1E4F6",
",X c #EDEDFC",
/* pixels */
"^.^.^.^.^.^.^.^.^.^.^.^.^.^.^.^.^.^.^.^.^.(.^._.^.(.^.^.^.^.^.^.^.^.^.^.^.^.^.^.",
"^.^.^.^.^.^.^.^._.^.^.^._.^.^.^.^.^.^.^.^.^.(.(.^.^.^.^._.^.^.^.^.^.^.^.^.^.^.^.",
"^.^.^.^.^.^.^.^.^.^.^.^.^.^.^.^.^.^.^.^.~.~.^.(.^.^.^.^.~.^.^.^.^.^.^.^.^.^.^.^.",
"^.^.^.^.(.^.^.^.^.^.^.^.^._._.]._._._._.]._._.`.].^.^.~.^.^.^.^.^.^.^.^.^.^.^.^.",
"^.(.^.^.^.^.^.^.^._.^.^.E.R.R.R.R.R.R.R.R.R.R.R.R.R.~.~.^.(.^.^.^.^.^.^.^.^.^.^.",
"^.^.^.^.^.^.^.^.^.~.~.[.i.< 1 : : : : : 1 : : 2 , Z _.`._.^.^.^.^.^.^.^.^.^.^.^.",
"^.^.^.^.^.^._.^.~._.W.p.*.! X.X.X.X.X.X.X.X.X.X.~ #.i.U.(.~.^.^.^.^.^.^.^.^.^.^.",
"^.^.^.^.^.^.^.^.)._.Y., ! 2.7.8.8.8.8.8.8.8.8.8.2.( 4 i.].~.^.^.^.^.^.^.^.^.^.^.",
"^.^.^.^.^.^.^.^.~.].T.: X.9.9.9.6.6.4.6.4.6.6.6.6.3.P E D T.[.(.^.^.^.(.^.^.^.^.",
"^.^.^.^.^.^.^._.^.E.a.5 ..8.9.7.7.8.6.7.8.6.6.6.4.7.J.>.< a./.~.^.`.^.(.^.^.^.^.",
"^.^.^.^.^.^.^._.~.f Y ^ 3.8.6.6.4.7.6.6.6.8.6.0.o.e.,X=X, , > (.[.^.^.^.^.^.^.^.",
"^.^.^.^.^.^.^.^./.f U [ 2.3.6.6.8.7.7.8.6.6.4.0.o.w.,X=X> |..Xy.y.(.^.^.^.^.^.^.",
"^.^.(.(.^.^.~._.E.f Y / / ( 6.4.6.8.8.4.6.4.6.0.] >.,X=XO ;X,X$ N {.^.^.^.^.^.^.",
"^.^.^.^.^.^.^._.~.f R [ [ / | | 2.{ ....| 2...2.' 2.-X.XP ;X>X* V ].^.^.^.^.^.^.",
"^.^.^.^.^.^.^._./.w Y / / ) ( ( ^ ( ^ ^ ( ( ( ( ^ $.#X X( ;X>X; B `.^.^.^.^.^.^.",
"^.^.^._.^.^.~._.~.= + r ~ { { { [ ) [ [ ) [ ) ( I I ` H.#X>X>X* N {.^.^.^.^.^.^.",
"^.^.^.^.^.^.^.^.~.- @ t W ~ ~ ~ ( ) [ ( ) / / ^ 1.H.H. X%X$X.Xr.y.^.^.^.^.^.^.^.",
"^.^.^.^.^.^.^.`.~.= 2 S u q q Q  .[ [ ) )  .[ ] #X-X%X%X%XG   {.].^.^.^.^.^.^.^.",
"^.^.^.^.^.^.^.^.~.% + S g u t y U T Q T Y Y Y T :.F.F.F.G.K.P.^.^.^.^.^.^.^.^.^.",
"^.^.^.^.^.^.^.`.E.p e A A A @.S g t q u t t u q 6 6 c m 4 R.[.^.^.^.^.(.^.(.^.^.",
"^.^.^.^.^.^.^.^._._.L.X w @.v.N.OXl.9 l.n.b.&.  <.b.N.<.9 Y._.^.^.^.^.^.^.^.^.^.",
"^.^.^.^.^.^.^.^.~.I.p.s f t c.C.+XN.#.c.M.oX;.  c.oXv.,.J R._.).(.^.^.^.^.^.^.^.",
"^.^.^.^.^.^.^.`.~.  > g.s X c.C.+XoXm.b.M.+XB.8 OX@X5 i.[.^.^.^.^.^.^.^.^.^.^.^.",
"^.^.^.^.^.^.^.y.r.k.x.A.d.} =.;.l.c.M.m.M.oXm.<.<.l.K.R._.^.^.^.^.^.(.^.^.^.^.^.",
"^.^.^.^.^.~.{.V @ Z.Z.Z.x.d.g t 8 >.N.m.b.n.m.M.@.K `._.^._.^.^.^.^.^.^.^.^.^.^.",
"^.^.^.^.^.^.{.B O A j.S.x.d.S W  .:.G e 7 2.%.u Y.(.~.^.^.^.^.^.^.(.(.^.^.^.^.^.",
"^.~.^.^.^.~.{.B o g h.A.g.s.h O.] +.x k 8 %.T > R.{.^.^.^.^.^.^.^.{.^.^.^.^.^.^.",
"^.^.^.^.^.(.`.B . g.j.v 0 r   3 { O.z z c S w   P.`.~.(.^.^.^.^.^.^.^.^.^.^.^.^.",
"^.^.^.^.(._.(.L.r.j } s.h : X 2 4 ,.XXXXl.w $   L.{.~.^.^._.^.^.^.^.^.^.^.^.^.^.",
"^.^.^.^.^.^.^.{.~.& a g.j   X O . l.+X+XOXX X o I._.).^.^.^.^.^.^.^.^.^.^.^.^.^.",
"^.^.^.^.^.^.^.^.~.~.p.> O X Q.Q.  -.V.V.c.  u.E.~.`.~.^.^.^.^.^.^.^.^.^.^.^.^.^.",
"^.^.^.^.^.^.^.^.~.].~.i M M !.Q.X &.n.v.,.  t.}.^.^.^.^.^.^.^.^.^.^.^.^.^.^.^.^.",
"^.^.^.^.^.^.^.^.^.^.~.(._.).% . D.O.] n x X t.{.^.^.^.^.^.^.^.^.^.^.^.^.^.^.^.^.",
"^.^.^.^.^.^.^.^._.^.^.^._.^.y.H l b E v C u.y.{.^.^.^.^.^.^.^.^.^.^.^.^.^.^.^.^.",
"^.^.^.^.^.^.^.^.(.(.^.^.^.~.}.T.        p {.{.~.^.^.^.^.^.^.^.^.^.^.^.^.^.^.^.^.",
"^.^.^.^.^.^.^.^.^.^.^.^.^.~.~.~.I.I.T.P.E.(.^.~.^.^.^.^.^.^.^.^.^.^.^.^.^.^.^.^.",
"^.^.^.^.^.^.(.^.^._.^.^.(.(.^._.`.`.`.].`.^.^.`.^.^.^.^.^.^.^.^.^.^.^.^.^.^.^.^.",
"^.^.^.^.^.^.^.^.^.(.^.^.^.~.^.^.^.^.^.~.^.^.^.^.^.^.^.^.^.^.^.^.^.^.^.^.(.`.^.^.",
"(.^.^._.^.^.^.^.^.^.^.^.^.^.^.^.(.^.^.^.^.~.^.^.(.^.^.^.^.^.^.^.^.^.^.^.(.^.^.^.",
"^.^.^.^.^.^.^.^.^.^.^.(.^.^.^.^.^.^.^.^.~.^.^._.^.(.^.^.^.^.^.^.^.^.^.^.^.^.^.^."
};
