/* XPM */
static char *_32bad33768944da9e4d209a316e69d4LwwroQno8wGmiLRz[] = {
/* columns rows colors chars-per-pixel */
"40 40 205 2 ",
"   c #000001",
".  c #0D0200",
"X  c #000405",
"o  c #280000",
"O  c #2E0C00",
"+  c #3B0101",
"@  c #370019",
"#  c #3B181C",
"$  c #052C0D",
"%  c #000026",
"&  c #370F2B",
"*  c #0E3929",
"=  c #3B2939",
"-  c #440101",
";  c #4A000E",
":  c #4E0000",
">  c #550000",
",  c #5A0101",
"<  c #4D1900",
"1  c #480017",
"2  c #471219",
"3  c #6C0000",
"4  c #740001",
"5  c #670C1D",
"6  c #6D2302",
"7  c #6F3618",
"8  c #59002C",
"9  c #450B2B",
"0  c #70002B",
"q  c #691628",
"w  c #582827",
"e  c #5A3232",
"r  c #4F2F30",
"t  c #6B3A33",
"y  c #693636",
"u  c #77373A",
"i  c #692E31",
"p  c #144635",
"a  c #2A5038",
"s  c #5D4500",
"d  c #69580F",
"f  c #5C483B",
"g  c #69483C",
"h  c #72453B",
"j  c #704C31",
"k  c #786A29",
"l  c #021A4A",
"z  c #01305E",
"x  c #011078",
"c  c #013579",
"v  c #302870",
"b  c #5C0041",
"n  c #421B50",
"m  c #56335B",
"M  c #6C2B43",
"N  c #683C79",
"B  c #315844",
"V  c #357456",
"C  c #2A654D",
"Z  c #264A60",
"A  c #5B554B",
"S  c #764343",
"D  c #7B4949",
"F  c #7E4C43",
"G  c #584D73",
"H  c #457962",
"J  c #547F6B",
"K  c #697C66",
"L  c #83010D",
"P  c #AF0501",
"I  c #881623",
"U  c #8B2C2B",
"Y  c #882428",
"T  c #8C322D",
"R  c #A3262C",
"E  c #A73332",
"W  c #BC3436",
"Q  c #BB3539",
"!  c #BE393A",
"~  c #B8393A",
"^  c #C11A01",
"/  c #C02209",
"(  c #C32F26",
")  c #CB3828",
"_  c #C23B3B",
"`  c #CA3D36",
"'  c #984130",
"]  c #B4453E",
"[  c #896E2A",
"{  c #A37F35",
"}  c #CE483E",
"|  c #C7433C",
" . c #C5523D",
".. c #D2513F",
"X. c #E4502A",
"o. c #F96237",
"O. c #8C3C47",
"+. c #8F3561",
"@. c #894D48",
"#. c #855649",
"$. c #964D47",
"%. c #BE545D",
"&. c #9D6251",
"*. c #8A6553",
"=. c #A7715B",
"-. c #A66B55",
";. c #8B5269",
":. c #BA5B63",
">. c #A96967",
",. c #B57A64",
"<. c #AC7F68",
"1. c #CF4A41",
"2. c #CE5044",
"3. c #E45A43",
"4. c #F86947",
"5. c #F56649",
"6. c #F6684A",
"7. c #FB6B4B",
"8. c #F46747",
"9. c #F56B51",
"0. c #EF6447",
"q. c #D17767",
"w. c #F67E6D",
"e. c #4B8969",
"r. c #549877",
"t. c #588161",
"y. c #69866C",
"u. c #639775",
"i. c #779C7B",
"p. c #B39639",
"a. c #BBA23E",
"s. c #A88642",
"d. c #B3924B",
"f. c #BBAB4C",
"g. c #B4876A",
"h. c #B38E73",
"j. c #C3A543",
"k. c #D4B847",
"l. c #CB8C6E",
"z. c #C68367",
"x. c #D48B6E",
"c. c #D5856A",
"v. c #D48C72",
"b. c #CC9675",
"n. c #DB9474",
"m. c #D79676",
"M. c #E19E7C",
"N. c #E4A27D",
"B. c #F7DA5B",
"V. c #E5C755",
"C. c #FFE25C",
"Z. c #044484",
"A. c #746E91",
"S. c #BA7385",
"D. c #BA768A",
"F. c #917186",
"G. c #D07B82",
"H. c #759E81",
"J. c #6E9A83",
"K. c #5BAA85",
"L. c #5EAA86",
"P. c #61AE8A",
"I. c #68AB87",
"U. c #76AA87",
"Y. c #64B38C",
"T. c #6DB28D",
"R. c #73B28C",
"E. c #6CBC95",
"W. c #64B491",
"Q. c #73B591",
"!. c #618BA6",
"~. c #6395AE",
"^. c #6DC69C",
"/. c #6EC99E",
"(. c #6AC197",
"). c #72C39B",
"_. c #70C99E",
"`. c #6ECBA2",
"'. c #6CC6A0",
"]. c #71CDA2",
"[. c #6ED2A5",
"{. c #6FD4A8",
"}. c #73D1A6",
"|. c #73D6A9",
" X c #B19694",
".X c #B490A9",
"XX c #B5A5B9",
"oX c #C2968B",
"OX c #E8A983",
"+X c #F3BF90",
"@X c #E7B487",
"#X c #FECA96",
"$X c #F8C495",
"%X c #A8A9CA",
"&X c #B2B7D8",
"*X c #B2B6CC",
"=X c #B0BFE0",
"-X c #C1BFCC",
";X c #C5C1CF",
":X c #D7CAD9",
">X c #CFD3EB",
",X c #DFE5F3",
"<X c #EDECFD",
"1X c #E2E8F8",
"2X c #EAF0FF",
/* pixels */
"/./././././././././././././././././././././././././././././.`./././././././././.",
"/./././././././././._././././._./././././././././././._././././././././././././.",
"/./././././././././.`.^._./././././././././././././././././././././././././././.",
"/././././././././././././././.`.`.`.`.[.`.[.`.}.`./.`././././._././././././././.",
"/././././././././.^./._._.^.R.R.R.R.R.R.R.R.R.R.R.R.U.E././././././././././././.",
"/./././._./././././././.`.`.f , 1 ; ; ; ; ; ; ; ; 2 > y.|./././././././././././.",
"/._./././././././././.`.I.y.$.E  . . . . . . . . . .R *.u.E.`./././././././././.",
"/././././././././._._.].y.3 ~ 1.7.7.7.7.7.7.7.7.7.5.| R 3 I.[.^././././././././.",
"/././././././././.[.T.A ' P 0.0.5.5.5.5.4.6.6.6.6.5.6. .1 R.}./././././././././.",
"_.'././././././.^.).i., :.G.9.4.5.7.5.7.6.6.5.6.6.5.7.2.5 i.(.^././././././././.",
"/././././././.|.`.- > > -X<Xw.o.9.5.6.5.4.6.6.6.6.5.7.3.! I g ^././././././././.",
"/./././././.].r.r.XX X- -X<Xq.X.6.6.6.6.6.5.5.5.6.5.3.} _ I f ).`./././././././.",
"/.]././././.[.C @ 2X:Xo &X<X:.) 7.6.4.4.4.4.5.5.4.0.Q Q | I A E.`.^././././././.",
"/./././././.[.V = 1X:XP XX>X%.( 1.1.} 1.} 1.} } 1.} _ _ 1.I g ).`./././././././.",
"/./././.^./.}.C = ,X:XW .X%X2.W Q W Q Q W Q Q W W W _ Q ] I f E.`.'././././././.",
"/./././.^.^.}.C @ 2X,X%XS.P / / ! _ _ _ _ _ _ _ _ _ ` E w - * (.]./././././././.",
"/./././././.[.r.J *X*X&X.XG..X>.W _ Q W ! ! Q ! E E E T y + * (.`./././././././.",
"/././././././.}.^.  G &X&X&X=XXX( _ _ _ _ _ _ | u w w i D 2 p (.`./././././._./.",
"/./././././././.^.P.J.F.A.A.A.;.U U Y Y Y T Y I i y u S D + $ '././././.'./././.",
"/./._._./././././.}.T.4 m v 6 6 w e h t t w t h ' D S S S r p E.].`././._./././.",
"/./././././././._.`.U.0 ,.m.v.,.  &.x.v.z.8 g.$Xm.q.@.r   u.}.`./.'././.]._././.",
"/././././.^.`././.`.R.K <.q.M.b.  ,.OXn.v.$.b.#XN.l.y g d u.W././.`././././././.",
"/./././././././.^.`.^.{.y.5 $X@X1 b.#Xm.v.x.OX$XOXz.  d a.<   _.[.^././././././.",
"/./././././././.`.^./.`.Q.i.h.,.,.b.OXm.m.n.l.g.=.&.[ p.V.k.f.t.r.]./././._././.",
"/./././././././././././.[.].A $.M.x.c.l.l.q.-.8 i F p.k.B.B.B.+ C ].'././.'././.",
"/././././././././.`././././.).U.i $.2.7 r A.$.] @.#.p.k.B.d.S O H ].'._._./._./.",
"/././././././././././._./.^.[.T.- U ~ n l c +.) u g p.f.V.s.h o V ]./././././._.",
"/./././././././././././././.`.L.  e D v x x +.| 5   q q b s.a.. V }.^./././././.",
"/./././././._././.'./././.'.].P.  2 e h.oX X=.L 2 X @ j s.[ k r.K./././././././.",
"/././././././././././._././.].L.      @X#X#Xb.  . .   k j.s % ].}./././././././.",
"/./././././././././.`.^./.^.^.^.^.H   l.N.M.=.  !.~.X o < u.(.^././.`./._./././.",
"/./././././././././././././.].^.|.e.  <.z.c.&.  !.~.B B p Y.}.^.`././././././._.",
"_././././././././././././._././.}.e.  c N ) +.Z.. $ _.].'./././././././././././.",
"/././././._./././././././././././.P.e.Z n T M z H r./._././././././._./././././.",
"/././././././././././././././././._.].a         Y.|.^.^././././././././././././.",
"/././././././././././././././././._._.Y.I.Y.P.Y.(./././._./././././././././././.",
"/././././././././././._./././././././.`.].].[.`.]./._._././././././././././././.",
"/././._././././././././././././././.]./.^./.^.^././././.]./././././././././././.",
"/./././././././././././././././././././././.]././././._././././././././._./././.",
"/./././././././././././././././././././././././././././././././././././././././."
};
