/* XPM */
static char *_3eb295bcf344161f4bbda648e25341b9m1KV2UEKPGb53th[] = {
/* columns rows colors chars-per-pixel */
"40 40 191 2 ",
"   c #000000",
".  c #070802",
"X  c #160100",
"o  c #011C16",
"O  c #0F0A13",
"+  c #230000",
"@  c #330001",
"#  c #3A0000",
"$  c #291211",
"%  c #2B0C10",
"&  c #002413",
"*  c #362301",
"=  c #3D2D1E",
"-  c #001E20",
";  c #3D1C27",
":  c #1B3824",
">  c #013F32",
",  c #172936",
"<  c #490005",
"1  c #51000E",
"2  c #5E0101",
"3  c #510011",
"4  c #530F1C",
"5  c #5F1A1F",
"6  c #650001",
"7  c #740103",
"8  c #720113",
"9  c #4B1A21",
"0  c #670025",
"q  c #6D1B32",
"w  c #442628",
"e  c #432324",
"r  c #562225",
"t  c #522A2A",
"y  c #5D2D2B",
"u  c #49322B",
"i  c #5C2D32",
"p  c #5B3134",
"a  c #423E35",
"s  c #692827",
"d  c #712425",
"f  c #6E3B3C",
"g  c #683537",
"h  c #723138",
"j  c #004533",
"k  c #2E4735",
"l  c #7A4C3D",
"z  c #7E6135",
"x  c #0C0040",
"c  c #140048",
"v  c #271D5C",
"b  c #012744",
"n  c #2A3A55",
"m  c #332256",
"M  c #3C3E79",
"N  c #2A3164",
"B  c #750041",
"V  c #763D43",
"C  c #693448",
"Z  c #5F3E6B",
"A  c #7B2D63",
"S  c #014C5A",
"D  c #2C465D",
"F  c #39624B",
"G  c #39635F",
"H  c #29735C",
"J  c #38447C",
"K  c #2B426B",
"L  c #3C7D63",
"P  c #367F62",
"I  c #664146",
"U  c #7C4344",
"Y  c #7A4945",
"T  c #645A51",
"R  c #587A5D",
"E  c #67775E",
"W  c #414173",
"Q  c #57476B",
"!  c #4F7E62",
"~  c #647C66",
"^  c #99061A",
"/  c #B10034",
"(  c #842523",
")  c #8C312F",
"_  c #873937",
"`  c #973737",
"'  c #A63333",
"]  c #BB3636",
"[  c #BC3638",
"{  c #BE3A3A",
"}  c #B83736",
"|  c #A6282F",
" . c #C33B3A",
".. c #C73934",
"X. c #84483D",
"o. c #86543E",
"O. c #AF4132",
"+. c #B8433B",
"@. c #866E2B",
"#. c #96712D",
"$. c #916D35",
"%. c #A4733D",
"&. c #C9483C",
"*. c #C8533F",
"=. c #8C3356",
"-. c #983C41",
";. c #844746",
":. c #885942",
">. c #B84540",
",. c #936E41",
"<. c #9C6B47",
"1. c #8E6E4D",
"2. c #A37443",
"3. c #B57A61",
"4. c #B97D63",
"5. c #CA4842",
"6. c #D25941",
"7. c #D85441",
"8. c #EA5E45",
"9. c #E15844",
"0. c #EB6046",
"q. c #F16447",
"w. c #F46749",
"e. c #F7684A",
"r. c #FB6B4B",
"t. c #3D8165",
"y. c #478869",
"u. c #5D8367",
"i. c #559D7C",
"p. c #469675",
"a. c #648C71",
"s. c #6B9E7F",
"d. c #739374",
"f. c #65896C",
"g. c #53A57F",
"h. c #BE9601",
"j. c #A68639",
"k. c #BA9B34",
"l. c #B9983A",
"z. c #B59332",
"x. c #A88942",
"c. c #B69642",
"v. c #BF855A",
"b. c #AE985C",
"n. c #8E826C",
"m. c #AD9861",
"M. c #DA9448",
"N. c #C7A945",
"B. c #D38D6F",
"V. c #D69475",
"C. c #CF9474",
"Z. c #D0A47E",
"A. c #E9CD54",
"S. c #E7CD54",
"D. c #F6DD5A",
"F. c #F8DC5A",
"G. c #F9E159",
"H. c #414A83",
"J. c #4B7083",
"K. c #5874A1",
"L. c #6E9F81",
"P. c #5EAF8B",
"I. c #4FA580",
"U. c #61AE8B",
"Y. c #69AC88",
"T. c #63B38D",
"R. c #6EB18C",
"E. c #71B28E",
"W. c #6BBE96",
"Q. c #68BA94",
"!. c #72B993",
"~. c #4B89B1",
"^. c #7D9EB5",
"/. c #6DC59C",
"(. c #6EC99E",
"). c #69C096",
"_. c #71C69C",
"`. c #71C89E",
"'. c #6ECBA2",
"]. c #6DC7A1",
"[. c #71CDA2",
"{. c #6ED1A5",
"}. c #6FD4AA",
"|. c #75D1A6",
" X c #74D4A9",
".X c #79D2A6",
"XX c #78ABCB",
"oX c #839598",
"OX c #A1A18E",
"+X c #EDB58B",
"@X c #EABB91",
/* pixels */
"(.(.(.(.(.(.(.(.(.(.(.(.(.'.(.(.(.(.(.(.(.(.(.(.`.(.(.(.(.(.(.(.(.(.(.(.(.(.(.(.",
"(.(.(.(.(.(.(.(.(.(.(.(.`.(.(.(.(.(.(.(.(.(.(.(.(.(.(.(.(.(.'.(.(.(.(.`.'.(.(.(.",
"(.(.(.(.(.`.(.(.(.(.(.(.(.(.(.(.(.(.(.(./.(./.(.(.(./.(.(.(.(.(.(.(.(.(.(.(.(.(.",
"(.(.(.(.(.(.(.(.(.(.(.(.(.(.[.'.'.{.'.{.{.{.'.[.'.|.'.(.(.'.(.(.(.(.(.(.(.(.(.(.",
"(.(.(.(.(.(.(.(.(.(.`.].(.Q.R.R.R.R.E.R.E.R.E.R.E.Y.W.].(.`.(.(.(.(.(.(.(.(.(.(.",
"(.(.(.'.(.(.(.(.(./.'.(. XY.2 4 1 3 3 3 3 3 1 1 4 2 Y.}.(.].(.(.(.(.(.(.(.(.(.(.",
"`.(.(.(.(.(.(.(.[./.'./.a.1.' 5.6.6.6.6.6.6.6.6.6.| 1.a./.(.(.(.(.(.(.(.(.(.(.(.",
"(.(.(.(.(.(.(.(././.[.Q.t ^ 5.q.r.r.r.r.r.r.r.r.0.5.^ 5 !.'.(.(.(.(.(.(.(.(.(.(.",
"(.(.(.(.(.'.(.(.(.`.{.`.k } r.w.w.w.w.w.w.w.q.e.q.e.O.k [.[.`.(.(.(.(.(.(.(.(.(.",
"(.(.(.(.(.(.(.(.`.(.R.d.X.&.r.e.r.w.r.e.r.r.e.e.e.r.&._ d.E.`.(.(.(.(.(.(.(.(.(.",
"(.(.(.(.(.(.(.`.(.[.u.7 { 7.r.w.w.q.q.e.q.w.q.w.e.r.7.} 7 ~ [.(.(.(.(.(.(.(.(.(.",
"(.(.(.(.(.(.(.(.'.[.a.7 +. .&.q.r.r.r.e.r.r.r.r.q.5. .&.8 f.[./.'.(.(.(.(.(.(.(.",
"(.(.(.(.(.(.(.(./.[.u.6 >.{ ] 9.8.8.0.8.8.0.8.8.9.[  .+.6 u.'.(.(.(.(.(.(.(.(.(.",
"(.(.(.(.(.(.(.(.`.[.L # +. .[ [ ] ] [ [ [ [ [ [ [ [  . .# P [.(.(.(.(.(.(.(.(.(.",
"(.(.(.(.(.(.(.(./..Xy.. _ }  .{ { [  . . .[ [  . . .' _ X t.|.(.(.(.(.(.(.(.(.(.",
"(.`.(.(.(.(.(.(././.! # u ) [ [  .{ } } } }  .{ [ [ ) u @ ! )./.(.(.(.(.(.(.(.(.",
"(.(.(.(.(.(./.'.T.o z #.;.h d }  . .(     (  . .} s h U %.z o T.`.(.(.(.(.(.(.(.",
"(.(.(.(.(.(./.|.T.  <.v.g i g ` ' ' d $ $ d ' ' ` g i g v.<.  P.|./.(.(.(.(.(.(.",
"(.(.(.(.(.(./.{.T.  3.V.. = U y r r s s s s r r s Y e   V.3.  U.|.(.(.(.(.(.(.(.",
"(.(.(.(.(.(.(.(./.T.E 6 o t Y V ;.%.o.V h o.%.o.V U t o 6 E T./.(.(.(.(.(.(.(.(.",
"(.(.(.(.(.(.(.(.[.[.p.> & e f f l 2.:.V V :.2.Y g f e o j p. X'./.(.(.(.(.(.(.(.",
"(.(.(.(.(.(.(./.]./..X[.: . .   O U U U U U V %       : `..X/./.(.(.(.(.(.(.(.(.",
"(.(.(.(.(.(.(.(.'.[.I.H N m y @.@.; w w w w ; @.@.p $ & H I.[.(.(.(.(.(.(.(.(.(.",
"(.(.(.(.(.(.(.`./.`.R < J Q _ c.z.@ * * * * X j.c.;.i o # R `./.(.(.(.(.(.(.(.(.",
"(.(.(.(.(.(.`.{.!.I Z.@XJ A ] l.l./ / / / / / l.l...A K @X+Xp Q.(.(.(.(.(.(.(.`.",
"(.(.(.(.(.(.'.[.!.0 C.+XQ =...2.x.M.M.M.M.M.M.x.%...=.Q +XC.0 R.{.(.(.(.(.(.(.(.",
"(.(.(.(.[./.(.'.E.q 3.B.Y ` 5.B <.F.D.D.F.D.G.2.B 5.` Y OXv.q R.'.(.(.(.(.(.(.(.",
"(.(.(.(.(.'./.'.`.Q.n.` = < 6 #.N.D.F.F.F.F.F.N.#.6 < = ' 1.Q.].(.(.(.'.(.(.(.(.",
"(.(.(.(.(.(.`.(.(.{.Y.T , , S j.N.A.A.S.A.A.A.N.x.S , , T L.[.].(.`.(.(.(.(.(.(.",
"(./.(.(.(.(./.'.(./././.J K.XXb.h.c.l.l.k.l.c.h.m.XXK.M _..X].]./.(.(.(.(.(.(.(.",
"(.(.(.(.(.(.[.(././.(.).n K J.^.OXk.j.,.,.x.c.OXL.J.K n W.[.].].(.(.(.(.(.(.(.(.",
"(.(.(.(.(.(.(.(././.{.).k   . ~.^.k.,.C C 1.k.oX~.    : W.[.].].(.(.(.(.(.(.(.(.",
"(.(.(.(.(.(.(.(.(.(.{.).  x J H.W @ + X X + @ W H.M c   ).'.'.(.(.(.(.(.(.(.(.(.",
"(.(.(.(.(.(.(.(.(.(.'./.y.G N v D P L L ! L P D v N G y.).'./.(.(.(.(.(.(.(.(.(.",
"(.(.(.(.(.(.(.(.`.(.(./. Xi.    F |.[.'.'.'.|.F     i. X/.(.(.(.(.(.(.(.(.(.(.(.",
"(.(.(.(.(.(.(.(.(.(.(./.[.W.P.Y.T.(.(.(.].(.].T.P.P.W.].'.`.(.(.(.(.(.(.(.(.(.(.",
"(.`.(.(.(.(.(.(.(.(.(.(./.'.[. X[.(.(./.(.'.(.[.[.[.'.(.(.(.(.(.(.(.(.(.'.(.`.(.",
"(.(.(.(.(.(.(.(.(.(.(.(.(.(././.(.(.(.(./.(.(./.'.]./.(.(.'.(.(.(.(.(.(.(.(.(.(.",
"(.(.(.(.(.(.(.`.(.(.(.(.(.'.(.(.(.(.(.(.`.'.(.(.(.`.'.(.(.(.(.(.(.(.(.(.(.(.(.(.",
"(.(.(.(.(.(.(.(.(.(.(.'.(.(.].(.(.(.(.(.(.(.(.(.(.(./.'.(.(.(.(.(.(.(.(.(.(.(.(."
};
