/* XPM */
static char *_666713842701[] = {
/* columns rows colors chars-per-pixel */
"64 64 46 1 ",
"  c #2E271E",
". c #352D23",
"X c #373026",
"o c #393126",
"O c #3D3529",
"+ c #3F382C",
"@ c #40372B",
"# c #42392D",
"$ c #463E30",
"% c #483F31",
"& c #464032",
"* c #4D4334",
"= c #514636",
"- c #534738",
"; c #564A3A",
": c #5A4E3C",
"> c #5D513F",
", c #584F40",
"< c #5E5341",
"1 c #625542",
"2 c #665945",
"3 c #695B46",
"4 c #665C48",
"5 c #6B5E49",
"6 c #6E614B",
"7 c #72634D",
"8 c #6F6550",
"9 c #746650",
"0 c #786750",
"q c #756952",
"w c #7C6B53",
"e c #7E6F58",
"r c #7F7057",
"t c #7E7058",
"y c #816E56",
"u c #817057",
"i c #84735A",
"p c #89765C",
"a c #87785E",
"s c #8B795E",
"d c #877A60",
"f c #8D7C61",
"g c #917E62",
"h c #8E8165",
"j c #938265",
"k c #938369",
/* pixels */
".oOOo@@@..o@@@#@#@o@@o++%$#oo.. .o##@@@oO+$+OXo.o.ooO+++OOO#+OO&",
"o;>:;:>::;::::;@o;;<2,<,2,;;===X@:>>:;=;-:>>:-=oo=>>>:;:;:>>>;*O",
"#<123331373221>#@:18933452>::::##:233>:>153211:@o>49945166866>;X",
"o;<yypyyypp0021@@,4dgdppfyw091:O#:3wpy007iffe3:O+17hfpwytaaii1:o",
".;>0yyyywpsew21##:5dfeuupyww91:##>7yyyy00issy3;#+14ppuwshhsur<;@",
".%>3221146625>>+#:155252322555<$%1667711:215321@O:>221>276612>:@",
".%::;:>:><1>>>-+#;;:;;;,,,<112<#@>>:=;;>::;:>1;@o=:<<;;;<::;;;=@",
".o@#@@@@+@++##+oO##++OOXo##%%$$O@@ooo@@#@@@###@..o+&#@OO@O@@@OOo",
"X@@#@@O.Xo@@@O##$&$+OXoOO@#o####@@@.oo@oo@#@##@oo#&&&@@oO@@@Oo@o",
":><<>>;Oo-::>><<2441<;*OO:1:::1:::>-,:-oo->>1>-%;>>>:1:@@;:=;;::",
":13521>@O;<2644635532:;#%2313355755361;oo:116311113251>@#:113367",
"ipppw2>#+*:0hhir0yypi1;o$15wpgfhgsppf2;oo:2ypppyyyyyy1:@@;1yppsj",
"yyyyw<;OO*;0sjjp00wyw1;+#26tpsfkpppsp2>@#110wpppiyppi3>oo;1yyppp",
"771252>o@=:1775633123>;+#<<1259q3::132<%#12335775133731@o;>31336",
"1>;:>>=.X*;::;:>>:::1:=oO:;:<<<<;*=:<1:@@;:;;:<2>>>111;@o:::::::",
"#@@@##@XXo@@@XXoO@###@O.oO+O+$++o.Xo@##@o@@@##@#&&&&&#@.o@@@@o@@",
"o@@@@@OO@@@@@OoXXOO@@+OOO$O+++OX.o+$++++@o@@@@OXo&&&##Ooo+&#++++",
"o:11121112:;:;*Xo=::11>:<<<,:<<+o*;,,,,;;:>:;;=OO>>>>:;*=><>:;;&",
"@:231666577776<O@>3356665632<2<$#::2414<2:31>:=@@>>11231367763>&",
"o:10rhasspipa61+#17sjhpppeuyi4<$#,2wuwtwy0iu0:*O@13wiriuiissu6>#",
"O:>67wwrippjh6>O#19hshpspipiy31##137w0sai0igi1=O@;3wsypuppppu61#",
"O><16363522362:o+<5qq721331:131##>11>11412677>-X@:1772<>3253361#",
"O=>>1>;*==>>>;*X.;<<<<:<,1:;;::@o:::;::>::122:=Oo&=>>;;*:;>:>>:O",
"oOOO#+OXXOo@##+oXoOO+###$#@oo#@@Xo#@OO@OOO@O@ooX.X.oOOooO@O###Oo",
"@@OoO+O..O+&##+&oOooo+#+o+++@@@@##$#OO#oOO@O@O@@OXXoO@O.oO+++OO#",
";:;==;;Oo:>1>311>:;::>>#+::>:>:;::1:;;:#O=>>::;>;-:>11;@o*;;>>12",
"231116>+O>6q69661321>>:+O:<5353323552<,#O>6w06232126751@O;>66677",
"iyww61;+X=6aphspupip0<>+O=1pggyywyuww11#O:1ssjuw70rsa6>@O=1issgj",
"hu7061;OX;3shsupuaue7>>oO;3ypppsurrfp51#O;1spguyw07uy1;@O=1uiiup",
"61:<11>+O:1631<22655521oo=1332351<:4575&@;;2577652111<;oO=>>1137",
">;>;><>&+:>>>:;>:>><>:-.o*::==;::-->:2>#X*;>1111>>;;>>;OO*=;;;;;",
"OOOo&#&+OOXXOOXOo++#@+o..o#@X.XXoooo.++O..@@@@%@@@@@@#@..X@@XXO@",
".oOX+O&&#@ooo@@oXOO#@@o.XX+oO.X oO++oOO+o@#O+@@XXO#@#%#@o@@#@oo ",
"X*;*;>>>1<:*==*oO:;>;>;=;;>=**=XO:44<>-::>>;:;;XO=1><>1:;;>>>;*@",
"#>>>660677313>;@o:;233323>1::*=O#<qq9644567751:@#:117676615371:@",
"&>37rihspuy7y3:@o:1uuippi0776>;##<8air960ppsi1:O#>5ysjjspyppp7>@",
"&>360iiiw060y5:@o=>0yypps0007>;++>6uir765upsu2>@#15pjjjpy0yyy5:@",
"o=<<116631:111:oO:135352612666>+O:1141>:;1253>;@#2277621>>>315;@",
".&=:>>>>;;;:;:;oO=:::;:>>>>>>>-oX->:1>:=&&;>>:;O+>:><<::;-**;>;@",
"   @O@##O@@@oo@@O@####o+#&&&&#OoXOOO@O@oXXO##@@oo++O@Oo@@@o@@@@.",
"o .o@@#@@@@@O@@#O#@#@@XXo##&&OO@O+oOO+&XXX+O@##O@@@@@#&@@@#@@@@o",
":=&**;:#@><<>:>>>1<>;:*OO>><>>>>>>::><>O+;<;><1>:>1>:>;@@=>>:::-",
"11>111>#%13777356621>>:@#>1112121522666#&<4<1552233221<@o;:>>111",
"py0yy1:##>3pjgssahpp7>:@&>30wrw0upgss8<##>6ryyyuyyu07>;O.=:7yypy",
"spppp3:O@13yhjgppgpy01:@#>20w0w0uphha6>+#17uiyyyuppu01:@@;;7yppp",
"773355:Oo:11576213321>>@@;122165526qq4>o@>11<11666521>;@@::33577",
"::::>>;.o===;:>=::;;=::@O->>;;>>:;><1:=XO;:>:1:::>:::<>@@=>>>>11",
"o@@oOOO..o@@@@oo@o@@@@@ooo#@OoO@+o+#&++oO@@@@#@@O@OOo@@ooo@@oo@#",
"o@@oo.ooo@@#@@ooo@$####o+#$#OXoX.o#@OoOO@@@#%%@X.@@OooOOXoOoX.XX",
"@;;;=*;==;>>::*oo:2<2>>->>211;;OO*:::::>:1;:::=oO=>;;*:>:;*;;;=X",
"@>1211213>331>=o@<559451356752>@o->3323112111<=X+>632>161>>352;o",
"@11yyspy0yyp0:*o@:5yffduiiyua71#+:1ysfiiysiy7:=XO:30iiiarrupp71@",
"#130whgpyyppy:*..:5yspppiiypy3>@+:1wiyyyypggi:;oO;1iai00ypipy5>#",
"#<211251:3531>% .=112211121121:@@;1>311<37775<;@o;>666>:;11321>#",
"O;;:;;>::>::::=..&:==;=;;::;;=:@#;<:;=;=;:111>=Xo;>13>>;-=;::;=o",
".oOOOOOO@#@@o@o..oo@o@@@@@#@@@@o+##O@ooo##@#@@Ooo#####&Oo@@@@oo.",
"o@@@@@@oO@OO@@OOo@@@o@ooo@##++O#&&+Oo+OXO&+#+#@@@OO####O.o@@@ooo",
"=:11>>%o@=:=;-:--:>>::;@O;12<:-<<<>:<<;O+114<1<<>>;;;>:+@=1::==-",
"13331>-@@;>>333336552:=oO:146656642562:O@16q686775>1>4>#@;115>11",
"5yyyy>-@@:1yyyyyipggy2;@o:<eadhhiapfp3:Oo:6skhfshiw074>##:20yy0y",
"yyyyy>>@@11yyyyypiiiy2;Oo>2raffkigsgu<=.o;5uhshiiir0031&%12yyu07",
"113;511@#1113311356331:@@266235537775:=..*<553333364213*%>11>52>",
":;::11>@@>>:=;;;:1<<><;O@>1>::<1<1>1::*XX=:>;:;>::>;;>1@@;>>>>1:",
"oo@@%#@oo@@o@@@@@###@#OOo#@+@O#$#####@@o.o@#@@O++#+oO@*@@o@@#%%%"
};
