/* XPM */
static char *_2017ca352434b45c8402ba872774403C8YCaH5jXYrQnNC6[] = {
/* columns rows colors chars-per-pixel */
"40 40 150 2 ",
"   c #000001",
".  c #020E0A",
"X  c #00160E",
"o  c #011B18",
"O  c #011A14",
"+  c #2B0503",
"@  c #360000",
"#  c #001526",
"$  c #313737",
"%  c #013E41",
"&  c #364B4E",
"*  c #275B44",
"=  c #00604C",
"-  c #10654E",
";  c #006851",
":  c #1F6952",
">  c #30644E",
",  c #524850",
"<  c #425B5F",
"1  c #585859",
"2  c #5B5F60",
"3  c #645E62",
"4  c #666668",
"5  c #6C6C6D",
"6  c #656064",
"7  c #7F7F65",
"8  c #6E6D71",
"9  c #726B72",
"0  c #787775",
"q  c #7C7C7D",
"w  c #707974",
"e  c #8C0001",
"r  c #9C2E23",
"t  c #8C3524",
"y  c #873E33",
"u  c #A92F22",
"i  c #A7362A",
"p  c #B33529",
"a  c #A73D30",
"s  c #AA3F32",
"d  c #F60001",
"f  c #CD2300",
"g  c #FE2B00",
"h  c #F43E00",
"j  c #A64536",
"k  c #B64736",
"l  c #F34000",
"z  c #CF4D33",
"x  c #D7553F",
"c  c #EF593E",
"v  c #E1573D",
"b  c #F55A3B",
"n  c #FF613E",
"m  c #BD5749",
"M  c #BB614C",
"N  c #85797B",
"B  c #BF7069",
"V  c #CE5844",
"C  c #DA5945",
"Z  c #DA5E4D",
"A  c #D45944",
"S  c #E15C46",
"D  c #F45E43",
"F  c #D56454",
"G  c #E3604B",
"H  c #F4654E",
"J  c #F5684E",
"K  c #F9694F",
"L  c #F46650",
"P  c #F66A54",
"I  c #FE6C54",
"U  c #F56D5A",
"Y  c #FA6A57",
"T  c #FF7056",
"R  c #FD725B",
"E  c #C26961",
"W  c #FF7864",
"Q  c #F7796A",
"!  c #FC7E6F",
"~  c #5C8773",
"^  c #489E7B",
"/  c #539374",
"(  c #5A9676",
")  c #519D77",
"_  c #5A9778",
"`  c #519C7B",
"'  c #5A9B7D",
"]  c #7C8165",
"[  c #608C75",
"{  c #4AA17E",
"}  c #55A17D",
"|  c #F68072",
" . c #FB8679",
".. c #817F80",
"X. c #7B8583",
"o. c #4CA381",
"O. c #4EA985",
"+. c #5AA682",
"@. c #5CA984",
"#. c #6FB78F",
"$. c #65B691",
"%. c #6CB790",
"&. c #66BA93",
"*. c #6DBA93",
"=. c #70BD99",
"-. c #6CC69D",
";. c #6EC99E",
":. c #70C99E",
">. c #6ECCA1",
",. c #70CDA2",
"<. c #6FD0A3",
"1. c #74D1A5",
"2. c #77D6AA",
"3. c #78D7AB",
"4. c #78D9AC",
"5. c #868789",
"6. c #898B8D",
"7. c #818284",
"8. c #8D8F90",
"9. c #929396",
"0. c #9C9D9D",
"q. c #959698",
"w. c #899999",
"e. c #80A190",
"r. c #A1A19F",
"t. c #9E9FA1",
"y. c #9FA0A4",
"u. c #A2A3A4",
"i. c #A6A8A7",
"p. c #A6A6A9",
"a. c #A7A8AA",
"s. c #A9AAAC",
"d. c #AEB0AD",
"f. c #B7B7B8",
"g. c #E3968C",
"h. c #F5978B",
"j. c #FBA8A0",
"k. c #F7AAA4",
"l. c #FCB9B2",
"z. c #FEBFB8",
"x. c #C1C3C3",
"c. c #CCCBCC",
"v. c #DAD8D7",
"b. c #FAD1CE",
"n. c #DEE0DF",
"m. c #E7E7E7",
"M. c #EBECEC",
"N. c #FEEAE9",
"B. c #EFF0F4",
"V. c #FEFDFD",
/* pixels */
";.;.;.;.;.;.;.;.;.;.;.;.;.;.;.;.;.:.;.;.;.;.;.;.;.;.;.;.;.;.;.;.>.;.;.;.;.;.;.;.",
";.;.;.;.;.;.;.;.;.;.;.;.;.;.;.;.;.;.;.;.;.;.;.;.;.;.;.;.;.;.;.;.;.;.;.;.;.;.;.;.",
";.;.;.;.;.;.;.;.;.;.;.;.;.;.;.;.;.;.;.;.;.;.;.;.;.;.;.;.;.;.;.;.;.;.;.;.;.;.;.;.",
";.;.;.;.;.;.;.;.;.;.;.;.;.;.;.;.;.;.;.;.;.;.;.;.;.;.;.;.;.;.;.;.;.;.;.;.;.;.;.;.",
";.;.;.;.;.;.;.;.;.;.;.;.;.;.;.;.;.;.;.;.;.;.;.;.;.;.;.;.;.;.;.;.;.;.;.;.;.;.;.;.",
";.;.;.;.;.;.;.;.;.;.;.;.;.;.;.;.;.;.;.;.;.;.;.;.;.;.;.;.;.;.;.;.;.;.;.;.;.;.;.;.",
";.;.;.;.;.;.;.;.;.;.;.;.;.;.;.;.;.>.;.>.;.>.;.>.;.;.;.;.;.;.;.;.;.;.;.;.;.;.;.;.",
";.;.;.;.;.;.;.;.;.;.;.;.;.;.;.;.-.-.-.-.-.-.-.-.;.;.;.;.;.;.;.;.;.;.;.;.;.;.;.;.",
";.;.;.;.;.;.;.;.>.-.-.:.;.;.;.,.;.1.;.,.<.;.;.;.:.;.;.;.:.;.;.;.;.;.;.;.;.;.;.;.",
";.;.;.;.;.;.;.;.;.,.;.;.:.-.-.-.-.*.*.*.*.*.*.-.-.-.-.;.;.;.;.;.;.;.;.;.;.;.;.;.",
";.;.;.;.;.;.;.;.;.;.;.;.:.,.,.4.O.  . .   O   o.3.<.>.;.>.;.;.:.;.;.;.;.;.;.;.;.",
";.;.;.;.;.;.;.;.;.;.:.;.,.@._ ^ ] i a a a a u ] { _ @.:.;.;.;.;.;.;.;.;.;.;.;.;.",
";.;.;.;.;.;.;.;.;.;.:.:.1.-     r n I R I U R i     = 1.,.;.;.;.;.;.;.;.;.;.;.;.",
";.;.;.:.;.;.;.;.-.>.,.@.; M Z f g.N.h.l P L K S V C M : +.>.-.;.;.;.;.;.;.;.;.;.",
";.;.;.;.;.;.;.;.;.:.,.(   C W K l.V.l.P U L L K I I Z   / >.-.;.;.;.;.;.;.;.;.;.",
";.;.;.;.;.;.;.;.-.;.2.o.  z  .V.V.V.V.V.! b U H H I A   ^ 2.;.;.;.;.;.;.;.;.;.;.",
";.;.;.;.;.;.;.;.:.-.O.] r v ! b.N.V.N.b.Q D Y K L K G r 7 O.-.;.-.>.;.;.;.;.;.;.",
";.;.;.;.;.;.;.;.,.*.  i I H U d k.V.j.g R K L L L L L T p   #.,.-.;.;.;.;.;.;.;.",
";.;.;.;.;.;.;.-.,.*.  j I P L H  .z.E e t k I J K L H I k   #.>.-.>.;.;.;.;.;.;.",
";.;.;.;.;.;.;.;.,.*.  j U L K L D l y % # y H H L H H P a   *.>.-.;.;.>.;.;.;.;.",
";.;.;.;.:.-.:.;.,.&.o +   C I I F   v.V.u.N + A I I S @ + X $.,.-.;.;.;.;.;.;.;.",
";.;.;.;.>.-.;.-.,.&.  2 w.E x Z j   x.M.s.7.  j C A m < $   $.,.-.;.;.;.;.;.;.;.",
";.;.;.;.:.:.>.-.,.=.  d.V.X.        X.t.p.5.        & d.9   $.,.;.;.;.;.;.;.;.;.",
";.;.;.;.-.>.-.-.>.>.^ e.p.x.c.c.c.c.8.1 4 5 q q q ..0 3 ~ o.=.,.;.:.;.;.;.;.;.;.",
";.;.;.;.;.;.;.;.;.;.4.{   n.V.V.V.V.y.    1 a.u.u.a.8.  ` 4.;.;.;.;.;.;.;.;.;.;.",
";.;.;.;.;.;.;.;.;.-.;.'   9.x.V.V.V.V.M.r.9.0.0.t.p.6.  / >.-.;.;.;.;.;.;.;.;.;.",
";.;.;.;.;.;.;.;.-.-.1.@.* w q.v.m.m.M.M.s.0.u.9.5.8.X.* +.<.-.;.;.;.;.;.;.;.;.;.",
";.;.;.;.;.;.;.;.;.;.-.;.1.>     , u.0.0.y.u.i.6     * 1.:.;.;.;.;.;.;.;.;.;.;.;.",
";.;.;.;.;.;.;.;.;.;.:.;.:.} / ) [ 5 8 8 8 5 8 ~ ` / +.;.;.;.;.;.;.;.;.;.;.;.;.;.",
";.;.;.;.;.;.;.;.;.;.;.;.:.1.,.4.+.            ` 3.,.,.;.;.;.;.;.;.;.;.;.;.:.;.;.",
";.;.;.;.;.;.;.;.;.;.;.;.;.:.-.;.-.&.&.&.&.&.$.-.;.-.;.;.;.;.;.;.;.;.;.;.;.;.;.;.",
";.;.;.;.;.;.;.;.;.;.;.;.;.;.;.-.;.,.,.,.;.,.>.>.;.;.;.;.;.;.;.;.;.;.;.;.;.;.;.;.",
";.;.;.;.;.;.;.;.;.;.;.;.;.;.;.;.;.;.-.;.;.-.;.;.;.;.;.;.;.;.;.;.;.;.;.;.;.;.;.;.",
";.;.;.;.;.;.;.;.;.;.;.;.;.;.;.;.;.;.;.;.;.;.;.;.;.;.;.;.;.;.;.;.;.;.;.;.;.;.;.;.",
";.;.;.;.;.;.;.;.;.;.;.;.;.;.;.;.;.;.;.;.;.;.;.;.;.;.;.;.;.;.;.;.;.;.;.;.;.;.;.;.",
";.;.;.;.;.;.;.;.;.;.;.;.;.;.;.;.;.;.;.;.;.;.;.;.;.;.;.;.;.;.;.;.;.;.;.;.;.;.;.;.",
";.;.;.;.;.;.;.;.;.;.;.;.;.;.;.;.;.;.;.;.;.;.;.;.;.;.;.;.;.;.;.;.;.;.;.;.;.;.;.;.",
";.;.;.;.;.;.;.;.;.;.;.;.;.:.;.;.;.;.;.;.;.;.;.;.;.;.;.;.;.;.;.;.;.;.;.;.;.;.;.;.",
";.;.;.;.;.;.;.;.;.;.;.;.;.;.;.;.;.;.;.;.;.;.;.>.;.;.;.;.;.;.;.;.;.;.;.;.;.;.;.;.",
";.:.;.;.;.;.;.;.;.;.;.;.;.;.;.;.;.;.;.;.;.;.;.;.;.;.;.;.;.;.;.;.;.;.;.;.;.;.;.;."
};
